<svg width="300" height="299" viewBox="0 0 300 299" fill="none" xmlns="http://www.w3.org/2000/svg">
<path d="M259.9 2.46976H259.646C257.067 2.46976 254.706 1.52546 252.817 0C252.599 0.363204 252.382 0.690078 252.236 1.12592L224.742 82.6288C223.725 85.6071 224.996 88.7307 227.538 89.566C230.081 90.4377 232.95 88.6944 233.967 85.7161L261.462 4.21318C261.68 3.55941 261.789 2.90561 261.789 2.25185C261.171 2.36081 260.517 2.43351 259.9 2.43351V2.46976Z" fill="#3F2C26"/>
<path d="M277.479 19.5767C276.027 18.7414 274.828 17.5428 273.92 16.1626C273.375 16.5984 272.867 17.1069 272.431 17.7607L224.706 89.3118C222.963 91.9268 223.362 95.2684 225.578 96.7575C227.83 98.2467 231.026 97.3387 232.769 94.7236L280.494 23.1724C280.966 22.4823 281.257 21.7196 281.438 20.9932C280.058 20.7752 278.714 20.3394 277.479 19.613V19.5767Z" fill="#3F2C26"/>
<path d="M249.005 62.144C249.005 79.2146 235.167 93.0526 218.096 93.0526C201.026 93.0526 187.188 79.2146 187.188 62.144C187.188 45.0734 201.026 31.2354 218.096 31.2354C235.167 31.2354 249.005 45.0734 249.005 62.144Z" fill="#F0E3D0"/>
<g style="mix-blend-mode:multiply">
<path d="M248.894 59.6019C245.552 58.476 241.956 57.8223 238.215 57.8223C226.992 57.8223 214.099 64.8684 208.832 75.9825C211.266 80.3046 207.307 82.5564 207.307 87.7502C207.307 89.9658 214.68 90.6922 214.171 92.7624C214.171 92.7624 214.171 92.7625 214.171 92.7988C215.479 92.9804 216.786 93.0893 218.13 93.0893C235.201 93.0893 249.039 79.2512 249.039 62.1806C249.039 61.309 248.966 60.4737 248.93 59.6383L248.894 59.6019Z" fill="#F0E3D0"/>
</g>
<path d="M269.091 91.0189C269.091 108.089 255.253 121.928 238.182 121.928C221.112 121.928 207.273 108.089 207.273 91.0189C207.273 73.9483 221.112 60.1104 238.182 60.1104C255.253 60.1104 269.091 73.9483 269.091 91.0189Z" fill="#F0E3D0"/>
<g style="mix-blend-mode:multiply">
<path d="M187.878 55.6792C187.442 57.7858 187.188 59.9286 187.188 62.1805C187.188 75.6916 195.904 87.1689 207.999 91.3821C208.544 91.491 209.089 91.6001 209.67 91.6727C210.142 89.5661 210.433 87.3868 210.433 85.135C210.433 71.6238 201.062 60.1102 187.914 55.7154L187.878 55.6792Z" fill="#F0E3D0"/>
</g>
<path d="M208.034 86.7334C208.034 103.804 194.196 117.642 177.125 117.642C160.055 117.642 146.217 103.804 146.217 86.7334C146.217 69.6628 160.055 55.8247 177.125 55.8247C194.196 55.8247 208.034 69.6628 208.034 86.7334Z" fill="#F0E3D0"/>
<path d="M240.432 263.795C240.432 281.265 226.267 295.467 208.797 295.467C191.327 295.467 177.162 281.302 177.162 263.795C177.162 246.289 191.327 232.16 208.797 232.16C226.267 232.16 240.432 246.325 240.432 263.795Z" fill="#CCC1AB"/>
<path d="M236.656 293.324C231.317 283.408 220.82 276.689 208.762 276.689C196.704 276.689 186.243 283.408 180.904 293.324H236.656Z" fill="#CCC1AB"/>
<g style="mix-blend-mode:multiply" opacity="0.6">
<path d="M235.93 279.994H181.631C182.938 282.137 184.464 284.171 186.207 285.95H231.39C233.133 284.171 234.659 282.173 235.966 279.994H235.93Z" fill="#CCC1AB"/>
</g>
<path d="M299.964 172.449C299.964 167.764 297.603 163.95 294.734 163.95H279.043C274.322 162.824 269.527 162.788 265.823 162.788C264.188 162.788 262.518 162.788 260.81 162.824C259.103 162.824 257.433 162.861 255.726 162.861C235.313 162.861 218.098 185.852 218.098 213.055C218.098 240.259 234.914 260.635 255.58 260.635C276.247 260.635 296.55 216.179 296.55 190.392C296.55 186.723 296.186 183.563 295.533 180.803C298.039 180.186 300 176.699 300 172.449H299.964ZM255.544 243.674C240.907 243.674 228.558 229.654 228.558 213.092C228.558 197.401 240.18 179.895 255.726 179.895C257.469 179.895 259.212 179.895 260.919 179.859C262.59 179.859 264.224 179.822 265.823 179.822C282.821 179.822 286.053 183.563 286.053 190.464C286.053 208.515 269.6 243.71 255.58 243.71L255.544 243.674Z" fill="#CCC1AB"/>
<path d="M276.644 87.7134H140.952C140.952 88.1492 140.879 88.5488 140.879 88.9484L156.678 251.409C156.678 268.77 170.88 282.972 188.241 282.972H229.428C246.789 282.972 260.99 268.77 260.99 251.409L276.79 88.9484C276.79 88.5125 276.717 88.1129 276.717 87.7134H276.644Z" fill="#CFC9BE"/>
<path d="M188.204 276.689C174.294 276.689 162.962 265.357 162.962 251.446V251.155L147.707 94.0698H269.925L254.671 251.155V251.446C254.671 265.357 243.339 276.689 229.428 276.689H188.241H188.204Z" fill="#A25C02"/>
<path d="M265.457 139.87L269.888 94.0337H147.67L152.137 139.87H265.457Z" fill="#F8EDD6"/>
<path d="M238.836 292.67H178.726C174.913 292.67 171.789 295.249 171.789 298.445H245.774C245.774 295.285 242.65 292.67 238.836 292.67Z" fill="#CCC1AB"/>
<path d="M177.272 61.5635C175.238 61.5635 175.238 64.7233 177.272 64.7233C179.305 64.7233 179.305 61.5635 177.272 61.5635Z" fill="#3F2C26"/>
<path d="M178.324 67.1562C176.29 67.1562 176.29 70.3161 178.324 70.3161C180.358 70.3161 180.358 67.1562 178.324 67.1562Z" fill="#3F2C26"/>
<path d="M189.512 65.4131C187.478 65.4131 187.478 68.5729 189.512 68.5729C191.546 68.5729 191.546 65.4131 189.512 65.4131Z" fill="#3F2C26"/>
<path d="M184.281 60.5098C182.247 60.5098 182.247 63.6696 184.281 63.6696C186.315 63.6696 186.315 60.5098 184.281 60.5098Z" fill="#3F2C26"/>
<path d="M183.047 68.9727V69.4085C183.047 71.4425 186.207 71.4425 186.207 69.4085V68.9727C186.207 66.9388 183.047 66.9388 183.047 68.9727Z" fill="#3F2C26"/>
<path d="M170.988 65.7401C170.189 65.7401 169.462 65.8127 168.808 66.3212C167.21 67.5198 168.808 70.2801 170.407 69.0452C170.552 68.8636 170.733 68.8273 171.024 68.8999C173.058 68.8999 173.058 65.7037 171.024 65.7401H170.988Z" fill="#3F2C26"/>
<path d="M173.785 60.5098C171.751 60.5098 171.751 63.6696 173.785 63.6696C175.819 63.6696 175.819 60.5098 173.785 60.5098Z" fill="#3F2C26"/>
<path d="M179.742 54.1899C177.708 54.1899 177.708 57.3498 179.742 57.3498C181.776 57.3498 181.776 54.1899 179.742 54.1899Z" fill="#3F2C26"/>
<path d="M192.162 52.9918V53.355C192.162 55.3889 195.322 55.3889 195.322 53.355V52.9918C195.322 50.9578 192.162 50.9578 192.162 52.9918Z" fill="#3F2C26"/>
<path d="M196.524 43.3667C194.49 43.3667 194.49 46.5266 196.524 46.5266C198.557 46.5266 198.557 43.3667 196.524 43.3667Z" fill="#3F2C26"/>
<path d="M199.863 39.5166C199.028 38.4633 196.958 38.7176 197.067 40.3883C197.139 41.5869 197.793 42.2406 198.992 42.3133C200.662 42.3859 200.917 40.3157 199.863 39.5166Z" fill="#3F2C26"/>
<path d="M202.113 44.4199C200.079 44.4199 200.079 47.5798 202.113 47.5798C204.147 47.5798 204.147 44.4199 202.113 44.4199Z" fill="#3F2C26"/>
<path d="M202.807 48.96H202.443C200.409 48.96 200.409 52.1198 202.443 52.1198H202.807C204.841 52.1198 204.841 48.96 202.807 48.96Z" fill="#3F2C26"/>
<path d="M198.268 52.4468C196.234 52.4468 196.234 55.6066 198.268 55.6066C200.302 55.6066 200.302 52.4468 198.268 52.4468Z" fill="#3F2C26"/>
<path d="M196.524 63.6333C194.49 63.6333 194.49 66.7932 196.524 66.7932C198.557 66.7932 198.557 63.6333 196.524 63.6333Z" fill="#3F2C26"/>
<path d="M211.232 52.1201C209.199 52.1201 209.199 55.28 211.232 55.28C213.266 55.28 213.266 52.1201 211.232 52.1201Z" fill="#3F2C26"/>
<path d="M205.092 65.5948V65.958C205.092 67.992 208.252 67.992 208.252 65.958V65.5948C208.252 63.5609 205.092 63.5609 205.092 65.5948Z" fill="#3F2C26"/>
<path d="M200.371 71.6963C198.337 71.6963 198.337 74.8561 200.371 74.8561C202.405 74.8561 202.405 71.6963 200.371 71.6963Z" fill="#3F2C26"/>
<path d="M206.944 43.1121L206.581 43.4754C205.128 44.9282 207.38 47.1437 208.797 45.7272L209.16 45.3641C210.613 43.9113 208.361 41.6957 206.944 43.1485V43.1121Z" fill="#3F2C26"/>
<path d="M204.874 36.4655C203.276 36.9376 203.385 39.6253 205.274 39.5164C206.037 39.48 206.545 39.2258 207.09 38.7173C208.543 37.3008 206.364 35.1216 204.874 36.4655Z" fill="#3F2C26"/>
<path d="M211.922 31.4531H211.559C209.525 31.4531 209.525 34.613 211.559 34.613H211.922C213.956 34.613 213.956 31.4531 211.922 31.4531Z" fill="#3F2C26"/>
<path d="M216.098 39.5171H215.734C213.7 39.5171 213.7 42.6769 215.734 42.6769H216.098C218.132 42.6769 218.132 39.5171 216.098 39.5171Z" fill="#3F2C26"/>
<path d="M223.799 42.6401H223.436C221.402 42.6401 221.402 45.8 223.436 45.8H223.799C225.833 45.8 225.833 42.6401 223.799 42.6401Z" fill="#3F2C26"/>
<path d="M227.648 40.897H227.285C225.251 40.897 225.251 44.0568 227.285 44.0568H227.648C229.682 44.0568 229.682 40.897 227.648 40.897Z" fill="#3F2C26"/>
<path d="M226.959 34.25H226.596C224.562 34.25 224.562 37.41 226.596 37.41H226.959C228.993 37.41 228.993 34.25 226.959 34.25Z" fill="#3F2C26"/>
<path d="M215.953 48.7779V49.1411C215.953 51.1751 219.113 51.1751 219.113 49.1411V48.7779C219.113 46.744 215.953 46.744 215.953 48.7779Z" fill="#3F2C26"/>
<path d="M218.897 53.8633C216.863 53.8633 216.863 57.0231 218.897 57.0231C220.93 57.0231 220.93 53.8633 218.897 53.8633Z" fill="#3F2C26"/>
<path d="M215.772 56.9868C213.738 56.9868 213.738 60.1467 215.772 60.1467C217.805 60.1467 217.805 56.9868 215.772 56.9868Z" fill="#3F2C26"/>
<path d="M213.301 58.7666C211.267 58.7666 211.267 61.9266 213.301 61.9266C215.335 61.9266 215.335 58.7666 213.301 58.7666Z" fill="#3F2C26"/>
<path d="M229.754 52.1201H229.391C227.357 52.1201 227.357 55.28 229.391 55.28H229.754C231.788 55.28 231.788 52.1201 229.754 52.1201Z" fill="#3F2C26"/>
<path d="M226.596 50.0132H226.232C224.199 50.0132 224.199 53.173 226.232 53.173H226.596C228.63 53.173 228.63 50.0132 226.596 50.0132Z" fill="#3F2C26"/>
<path d="M228.703 42.6401H228.34C226.306 42.6401 226.306 45.8 228.34 45.8H228.703C230.737 45.8 230.737 42.6401 228.703 42.6401Z" fill="#3F2C26"/>
<path d="M220.31 61.5635H219.947C217.913 61.5635 217.913 64.7233 219.947 64.7233H220.31C222.344 64.7233 222.344 61.5635 220.31 61.5635Z" fill="#3F2C26"/>
<path d="M222.055 68.8994H221.691C219.658 68.8994 219.658 72.0593 221.691 72.0593H222.055C224.089 72.0593 224.089 68.8994 222.055 68.8994Z" fill="#3F2C26"/>
<path d="M223.11 70.1349C222.311 68.5731 219.623 69.4085 220.205 71.2246C220.495 72.2052 221.04 72.7137 222.021 73.0406C223.873 73.6217 224.672 70.9339 223.11 70.1349Z" fill="#3F2C26"/>
<path d="M229.572 66.9752V67.3384C229.572 69.3723 232.732 69.3723 232.732 67.3384V66.9752C232.732 64.9412 229.572 64.9412 229.572 66.9752Z" fill="#3F2C26"/>
<path d="M230.811 64.3599H230.447C228.413 64.3599 228.413 67.5197 230.447 67.5197H230.811C232.844 67.5197 232.844 64.3599 230.811 64.3599Z" fill="#3F2C26"/>
<path d="M238.508 59.0933C236.474 59.0933 236.474 62.2531 238.508 62.2531C240.542 62.2531 240.542 59.0933 238.508 59.0933Z" fill="#3F2C26"/>
<path d="M236.584 44.6016V44.9649C236.584 46.9988 239.744 46.9988 239.744 44.9649V44.6016C239.744 42.5677 236.584 42.5677 236.584 44.6016Z" fill="#3F2C26"/>
<path d="M230.771 42.749C229.173 43.2211 229.282 45.9088 231.171 45.7999C231.933 45.7636 232.442 45.5093 232.987 45.0008C234.476 43.6206 232.26 41.4051 230.771 42.749Z" fill="#3F2C26"/>
<path d="M239.889 49.3232H239.525C237.492 49.3232 237.492 52.4831 239.525 52.4831H239.889C241.923 52.4831 241.923 49.3232 239.889 49.3232Z" fill="#3F2C26"/>
<path d="M241.338 50.5944C240.757 48.96 238.033 49.7591 238.396 51.6841C238.505 52.3742 238.796 52.919 239.413 53.2822C240.249 53.7544 241.556 53.3548 241.738 52.3378C241.738 52.2289 241.774 52.1563 241.774 52.0473C241.883 51.4299 241.665 50.9577 241.338 50.6308V50.5944Z" fill="#3F2C26"/>
<path d="M233.969 48.2695C231.935 48.2695 231.935 51.4294 233.969 51.4294C236.003 51.4294 236.003 48.2695 233.969 48.2695Z" fill="#3F2C26"/>
<path d="M188.275 60.6915V61.0547C188.275 63.0886 191.435 63.0886 191.435 61.0547V60.6915C191.435 58.6575 188.275 58.6575 188.275 60.6915Z" fill="#3F2C26"/>
<path d="M194.088 49.3232H193.725C191.691 49.3232 191.691 52.4831 193.725 52.4831H194.088C196.122 52.4831 196.122 49.3232 194.088 49.3232Z" fill="#3F2C26"/>
<path d="M217.152 36.5381C213.085 36.5381 213.085 42.8579 217.152 42.8579C221.22 42.8579 221.22 36.5381 217.152 36.5381Z" fill="#3F2C26"/>
<path d="M183.555 62.0714V62.4346C183.555 66.5025 189.875 66.5025 189.875 62.4346V62.0714C189.875 58.0035 183.555 58.0035 183.555 62.0714Z" fill="#3F2C26"/>
<path d="M198.375 49.1416H197.94C193.872 49.1416 193.872 55.4614 197.94 55.4614H198.375C202.443 55.4614 202.443 49.1416 198.375 49.1416Z" fill="#3F2C26"/>
<path d="M193.725 43.1847V43.5479C193.725 47.6158 200.044 47.6158 200.044 43.5479V43.1847C200.044 39.1168 193.725 39.1168 193.725 43.1847Z" fill="#3F2C26"/>
<path d="M205.491 52.1562C204.655 53.0279 204.292 53.8633 204.22 55.0982C204.038 58.7665 209.123 59.0933 210.285 56.1514C212.21 53.2457 208.179 49.3958 205.527 52.1925L205.491 52.1562Z" fill="#3F2C26"/>
<path d="M203.858 58.2217H202.805C198.737 58.2217 198.737 64.5415 202.805 64.5415H203.858C207.926 64.5415 207.926 58.2217 203.858 58.2217Z" fill="#3F2C26"/>
<path d="M213.666 57.5312C209.598 57.5312 209.598 63.8511 213.666 63.8511C217.734 63.8511 217.734 57.5312 213.666 57.5312Z" fill="#3F2C26"/>
<path d="M216.571 49.1416H216.135C212.067 49.1416 212.067 55.4614 216.135 55.4614H216.571C220.639 55.4614 220.639 49.1416 216.571 49.1416Z" fill="#3F2C26"/>
<path d="M219.258 41.4414H218.895C214.827 41.4414 214.827 47.7611 218.895 47.7611H219.258C223.326 47.7611 223.326 41.4414 219.258 41.4414Z" fill="#3F2C26"/>
<path d="M228.703 50.5216V50.8848C228.703 54.9527 235.023 54.9527 235.023 50.8848V50.5216C235.023 46.4537 228.703 46.4537 228.703 50.5216Z" fill="#3F2C26"/>
<path d="M225.905 54.0083H225.215C221.147 54.0083 221.147 60.3281 225.215 60.3281H225.905C229.973 60.3281 229.973 54.0083 225.905 54.0083Z" fill="#3F2C26"/>
<path d="M229.538 65.8124C229.538 65.8124 229.32 65.5582 229.175 65.4493C226.306 62.58 221.838 67.0473 224.708 69.9166L225.071 70.2798C227.94 73.1491 232.407 68.6817 229.538 65.8124Z" fill="#3F2C26"/>
<path d="M241.051 65.2314C239.889 62.2895 234.804 62.5801 234.985 66.2485C235.058 67.4834 235.421 68.3187 236.256 69.1904C238.908 71.9871 242.976 68.137 241.014 65.2314H241.051Z" fill="#3F2C26"/>
<path d="M236.404 69.7716V70.1348C236.404 74.2027 242.724 74.2027 242.724 70.1348V69.7716C242.724 65.7037 236.404 65.7037 236.404 69.7716Z" fill="#3F2C26"/>
<path d="M247.623 58.9116C243.555 58.9116 243.555 65.2313 247.623 65.2313C251.691 65.2313 251.691 58.9116 247.623 58.9116Z" fill="#3F2C26"/>
<path d="M231.861 38.645C227.794 38.645 227.794 44.9647 231.861 44.9647C235.929 44.9647 235.929 38.645 231.861 38.645Z" fill="#3F2C26"/>
<path d="M225.215 30.9448C221.147 30.9448 221.147 37.2645 225.215 37.2645C229.283 37.2645 229.283 30.9448 225.215 30.9448Z" fill="#3F2C26"/>
<path d="M210.506 30.5815C206.438 30.5815 206.438 36.9013 210.506 36.9013C214.574 36.9013 214.574 30.5815 210.506 30.5815Z" fill="#3F2C26"/>
<path d="M174.109 55.7886H173.746C169.678 55.7886 169.678 62.1083 173.746 62.1083H174.109C178.177 62.1083 178.177 55.7886 174.109 55.7886Z" fill="#3F2C26"/>
<path d="M167.467 52.2649C165.361 52.3739 164.09 53.6814 163.981 55.7517C163.799 58.9842 167.685 59.6017 169.429 57.713C171.317 55.9696 170.7 52.0833 167.467 52.2649Z" fill="#3F2C26"/>
<path d="M166.267 61.8173C165.903 61.5631 165.54 61.3451 165.068 61.2724C163.325 61.0182 161.763 61.672 161.182 63.488C160.927 64.2508 161 64.9772 161.254 65.7399C161.835 67.3743 163.397 68.4275 165.141 67.9554C165.649 67.8101 166.121 67.4832 166.521 67.0837C166.884 66.8295 167.175 66.5026 167.392 66.1757C168.337 64.5413 167.61 62.9069 166.267 61.8536V61.8173Z" fill="#3F2C26"/>
<path d="M177.379 65.9214H176.943C172.876 65.9214 172.876 72.2412 176.943 72.2412H177.379C181.447 72.2412 181.447 65.9214 177.379 65.9214Z" fill="#3F2C26"/>
<path d="M175.891 70.4614H175.527C171.46 70.4614 171.46 76.7812 175.527 76.7812H175.891C179.959 76.7812 179.959 70.4614 175.891 70.4614Z" fill="#3F2C26"/>
<path d="M191.765 69.9897C191.765 69.9897 191.547 69.7718 191.402 69.6265C188.532 66.7572 184.065 71.2245 186.934 74.0938L187.297 74.4571C190.167 77.3264 194.634 72.859 191.765 69.9897Z" fill="#3F2C26"/>
<path d="M199.682 68.0283H199.318C195.251 68.0283 195.251 74.348 199.318 74.348H199.682C203.75 74.348 203.75 68.0283 199.682 68.0283Z" fill="#3F2C26"/>
<path d="M158.459 66.2847H157.986C153.919 66.2847 153.919 72.6045 157.986 72.6045H158.459C162.526 72.6045 162.526 66.2847 158.459 66.2847Z" fill="#3F2C26"/>
<path d="M236.764 36.1753H236.401C232.333 36.1753 232.333 42.4951 236.401 42.4951H236.764C240.832 42.4951 240.832 36.1753 236.764 36.1753Z" fill="#3F2C26"/>
<g style="mix-blend-mode:multiply">
<path d="M294.693 163.95H279.003C275.734 163.151 272.465 162.934 269.523 162.825L276.715 88.9489C276.715 88.5131 276.642 88.1135 276.642 87.7139H268.906C267.816 77.5079 261.787 68.791 253.215 63.9967L280.492 23.1363C280.964 22.4462 281.255 21.7199 281.436 20.9572C280.056 20.7393 278.712 20.3034 277.477 19.577C276.025 18.7416 274.826 17.543 273.918 16.1629C273.373 16.5987 272.865 17.1072 272.429 17.761L247.985 54.3719C247.549 52.6648 246.968 50.9941 246.242 49.4323L261.46 4.28604C261.678 3.63228 261.787 2.97859 261.787 2.32482C261.17 2.43378 260.552 2.50638 259.898 2.50638H259.644C257.065 2.50638 254.741 1.56208 252.816 0.0366211C252.598 0.399825 252.38 0.726699 252.235 1.16254L239.632 38.4999C239.341 37.265 238.36 36.2117 236.726 36.2117H236.363C235.927 36.2117 235.527 36.3207 235.164 36.4659C232.985 35.0131 230.551 33.8146 228.009 32.9792C227.646 31.8533 226.665 30.9815 225.14 30.9815C224.268 30.9815 223.651 31.3085 223.142 31.7443C221.471 31.4538 219.764 31.2722 218.021 31.2722C216.278 31.2722 214.498 31.4538 212.827 31.7443C212.319 31.0906 211.556 30.6183 210.466 30.6183C210.139 30.6183 209.885 30.691 209.631 30.7636V298.445H245.733C245.733 295.285 242.61 292.67 238.796 292.67H236.181C234.801 290.273 233.13 288.057 231.205 286.096C232.113 285.188 232.912 284.207 233.711 283.19C233.748 283.118 233.784 283.081 233.857 283.009C233.966 282.863 234.075 282.718 234.183 282.573C246.387 280.648 256.303 271.749 259.644 260.09C278.821 254.824 296.473 214.508 296.473 190.428C296.473 186.76 296.11 183.6 295.456 180.839C297.962 180.222 299.923 176.735 299.923 172.486C299.923 167.8 297.563 163.987 294.693 163.987V163.95ZM261.86 241.494L267.853 179.822C283.034 180.113 286.013 183.818 286.013 190.428C286.013 205.791 274.063 233.613 261.86 241.531V241.494Z" fill="#CFC9BE"/>
</g>
<path d="M6.46289 191.093C7.69778 234.242 27.8919 273.323 58.8005 291.955H137.18C168.125 273.323 188.283 234.242 189.518 191.093H6.46289Z" fill="#3F2C26"/>
<path d="M135.544 191.093C134.2 166.432 96.4271 144.095 98.57 148.344C103.836 158.805 65.6274 181.468 60.4336 191.093H135.58H135.544Z" fill="#F0E3D0"/>
<path d="M194.385 165.27H1.5598C1.5598 165.27 -0.00195312 179.543 -0.00195312 186.953C-0.00195312 236.349 23.3883 278.88 57.0573 298.275H138.887C172.556 278.88 195.946 236.349 195.946 186.953C195.946 179.543 194.385 165.27 194.385 165.27ZM137.18 291.955H58.8007C26.8751 272.741 6.31776 231.736 6.31776 186.916C6.31776 182.776 6.86258 176.238 7.29842 171.553H188.682C189.118 176.238 189.663 182.776 189.663 186.916C189.663 231.699 169.106 272.705 137.216 291.955H137.18Z" fill="#DFCEAE"/>
<path d="M195.798 191.965C195.653 196.215 195.399 200.428 194.927 204.569C207.639 205.767 211.598 209.327 211.598 218.951C211.598 234.424 196.016 257.306 175.75 261.41C172.88 266.095 169.72 270.49 166.379 274.594C167.396 274.667 168.449 274.739 169.466 274.739C201.246 274.739 224.274 241.397 224.274 218.951C224.274 199.012 211.307 193.491 195.835 191.965H195.798Z" fill="#DFCEAE"/>
<g style="mix-blend-mode:multiply" opacity="0.3">
<path d="M195.801 191.965C195.837 190.294 195.946 188.623 195.946 186.916C195.946 179.507 194.384 165.233 194.384 165.233H122.361C111.211 153.247 97.2275 145.693 98.5714 148.308C99.4067 150.015 99.0798 152.013 97.9902 154.264V298.238H138.887C149.129 292.354 158.391 284.291 166.345 274.594C167.362 274.666 168.415 274.739 169.432 274.739C201.213 274.739 224.24 241.397 224.24 218.951C224.24 199.011 211.273 193.49 195.801 191.965ZM135.545 191.093C135.182 184.229 131.986 177.546 127.591 171.553H188.646C189.082 176.238 189.627 182.776 189.627 186.916C189.627 188.333 189.518 189.677 189.481 191.093H135.545ZM188.936 200.028C188.718 202.243 188.501 204.459 188.21 206.638C188.501 204.459 188.755 202.243 188.936 200.028ZM187.774 209.217C187.484 210.997 187.229 212.776 186.902 214.52C187.229 212.776 187.52 210.997 187.774 209.217ZM175.68 261.409C175.68 261.409 175.68 261.409 175.68 261.446C186.648 243.576 193.767 221.82 195.474 198.067C195.329 200.246 195.147 202.389 194.893 204.495C207.605 205.694 211.564 209.253 211.564 218.878C211.564 234.351 195.983 257.233 175.716 261.337L175.68 261.409Z" fill="#3F2C26"/>
</g>
</svg>
