<svg width="300" height="312" viewBox="0 0 300 312" fill="none" xmlns="http://www.w3.org/2000/svg">
<path d="M105.44 36.6955L124.755 36.8907L112.683 41.4963L105.44 36.6955Z" fill="#E2DED0"/>
<path d="M85.2245 69.2189L108.577 44.4556L105.441 36.6958L112.684 41.4966L118.971 36.8326L116.737 44.5366L139.587 69.7645L110.866 76.4586L85.2245 69.2189Z" fill="#CEC7AF"/>
<g style="mix-blend-mode:multiply" opacity="0.5">
<path d="M113.918 46.0111L132.423 65.9381L113.707 67.4655L110.957 67.4311L92.2765 65.5461L111.18 45.9844L113.918 46.0111Z" fill="#ADADAD"/>
</g>
<path d="M208.525 70.4473L146.761 88.1761L139.587 69.7645L116.736 44.5366L118.962 36.8451L187.913 37.5357L185.687 45.2273L208.525 70.4473Z" fill="#E2DED0"/>
<path d="M177.77 60.6292C176.664 63.6945 171.127 64.5089 165.393 62.4433C159.671 60.3856 155.924 56.2313 157.03 53.166C158.137 50.1007 163.674 49.2864 169.395 51.3441C175.117 53.4018 178.864 57.5561 177.763 60.6417L177.77 60.6292Z" fill="#DCE7F4"/>
<path d="M178.166 59.5371C177.06 62.6024 171.522 63.4167 165.809 61.3466C160.087 59.2889 156.34 55.1346 157.446 52.0693C158.553 49.004 164.09 48.1897 169.811 50.2474C175.533 52.3051 179.293 56.4673 178.179 59.545L178.166 59.5371Z" fill="#F0F4F7"/>
<g style="mix-blend-mode:multiply" opacity="0.5">
<path d="M174.443 57.3515C174.332 57.6646 174.138 57.9428 173.882 58.1816C172.623 59.3711 169.767 59.531 166.83 58.4713C163.905 57.4194 161.806 55.4782 161.591 53.7549C161.534 53.4049 161.567 53.0772 161.686 52.7517C162.362 50.8608 165.782 50.361 169.312 51.6399C172.838 52.8985 175.132 55.4685 174.456 57.3594L174.443 57.3515Z" fill="#ADADAD"/>
</g>
<path d="M173.882 58.1818C172.623 59.3712 169.767 59.5312 166.83 58.4714C163.905 57.4196 161.806 55.4784 161.59 53.7551C162.862 52.5736 165.719 52.4136 168.643 53.4655C171.588 54.5128 173.667 56.4586 173.903 58.1773L173.882 58.1818Z" fill="#DCE7F4"/>
<path d="M208.547 70.4174L112.422 69.4668L110.687 241.456L206.812 242.407L208.547 70.4174Z" fill="#F0F4F7"/>
<path d="M139.596 69.7494L85.2461 69.2119L83.5112 241.202L137.861 241.739L139.596 69.7494Z" fill="#DCE7F4"/>
<path d="M204.339 257.433L111.648 256.515C110.695 256.504 109.905 256.073 109.828 255.536L107.736 240.381C107.747 239.237 109.396 238.312 111.419 238.339L206.816 239.281C208.838 239.308 208.598 240.237 208.588 241.381L206.176 256.488C206.094 257.029 205.291 257.444 204.339 257.433Z" fill="#9DE2ED"/>
<path d="M136.802 256.767L84.2244 256.238C83.689 256.229 83.2422 255.807 83.1973 255.273L82.0783 240.124C82.0888 238.98 83.0236 238.056 84.1802 238.074L137.235 238.592C138.379 238.603 139.304 239.537 139.285 240.694L137.858 255.815C137.81 256.36 137.345 256.763 136.802 256.767Z" fill="#73CFE5"/>
<path d="M139.588 69.7646L138.699 156.723C136.84 157.044 134.858 157.2 132.815 157.178C129.918 157.155 127.184 156.765 124.697 156.095C118.092 162.911 105.559 167.417 91.2494 167.274C88.855 167.256 86.5022 167.09 84.2406 166.807L85.2249 69.219L139.575 69.7567L139.588 69.7646Z" fill="#73CFE5"/>
<path d="M112.943 143.064L109.001 143.947C103.081 119.321 92.343 103.725 84.9577 95.3812L85.2246 69.2187L97.1605 69.3392C102.177 82.5466 111.588 111.182 112.923 143.068L112.943 143.064Z" fill="#A85D4E"/>
<path d="M121.021 137.721L120.691 137.774C122.222 136.652 124.909 134.449 123.796 133.481C122.749 132.574 120.684 134.595 119.493 135.951L118.705 134.911C118.705 134.911 124.315 128.509 120.508 129.95C116.693 131.403 115.55 137.688 115.55 137.688L115.367 138.636L105.831 140.176L105.471 139.286C105.471 139.286 102.584 132.015 97.6629 131.197C92.7418 130.379 101 136.713 101 136.713L100.298 138.151C98.5473 136.814 95.5693 134.857 94.538 136.208C93.6139 137.419 96.1555 139.047 98.2387 140.107C91.5839 139.218 86.9123 141.087 84.5213 142.466L84.274 166.81C86.5435 167.08 88.8963 167.247 91.2828 167.277C105.605 167.429 118.133 162.902 124.73 156.098C127.209 156.781 129.951 157.159 132.848 157.181C134.891 157.204 136.873 157.048 138.733 156.727L139.01 129.943C129.511 129.554 121.046 137.737 121.046 137.737L121.021 137.721Z" fill="#9B5145"/>
<path d="M120.983 140.087L120.653 140.14C122.184 139.018 124.871 136.815 123.758 135.848C122.712 134.94 120.638 136.974 119.455 138.317L118.668 137.277C118.668 137.277 124.277 130.876 120.462 132.328C116.647 133.781 115.504 140.067 115.504 140.067L115.322 141.015L105.785 142.555L105.426 141.664C105.426 141.664 102.538 134.393 97.6172 133.575C92.6961 132.758 100.967 139.099 100.967 139.099L100.265 140.537C98.514 139.201 95.536 137.243 94.5048 138.595C93.5727 139.818 96.1222 141.434 98.2054 142.493C91.5382 141.597 86.879 143.474 84.488 144.853L84.2486 169.184C86.5226 169.475 88.8709 169.621 91.2574 169.651C105.58 169.803 118.1 165.289 124.705 158.472C127.184 159.155 129.926 159.533 132.823 159.555C134.866 159.578 136.848 159.422 138.707 159.101L138.984 132.317C129.485 131.928 121.02 140.111 121.02 140.111L120.983 140.087Z" fill="#A85D4E"/>
<path d="M121.651 136.395C119.999 134.353 118.483 140.072 118.382 140.286C118.382 140.286 120.034 134.655 118.664 133.489C117.305 132.332 116.762 134.673 117.698 136.993C118.634 139.312 112.857 137.865 115.705 133.811C118.541 129.75 117.642 127.401 115.983 127.378C112.909 127.331 115.291 136.252 113.313 135.852C111.335 135.452 114.241 130.703 111.499 130.848C108.744 130.985 113.268 139.939 111.08 141.08C109.263 142.021 108.953 140.255 109.194 138.856C109.194 138.856 110.672 133.445 108.146 133.745C105.835 134.007 108.085 139.67 108.085 139.67L106.462 139.234C106.431 136.477 106.019 131.159 103.249 130.414C99.475 129.381 104.15 139.635 104.15 139.635C104.15 139.635 101.104 134.512 99.8802 136.195C98.6519 137.858 102.135 140.641 102.135 140.641C102.135 140.641 98.978 138.361 98.5315 139.56C98.0851 140.759 101.069 144.412 101.069 144.412C101.069 144.412 108.691 147.186 118.618 142.005C118.618 142.005 123.316 138.444 121.664 136.403L121.651 136.395Z" fill="#BC6E61"/>
<path d="M103.976 101.736C105.013 101.173 104.961 104.418 105.872 104.054C106.698 103.74 101.121 83.3594 92.313 69.2836L85.2315 69.2062L84.9945 92.2138C88.4009 95.7509 93.0747 101.469 97.7744 109.924C103.724 120.671 104.171 127.197 105.894 125.168C107.572 123.18 96.9959 106.972 101.925 105.824C104.895 105.126 104.5 115.705 106.935 114.284C108.14 113.566 102.927 102.291 103.972 101.716L103.976 101.736ZM98.5862 101.493C98.3484 101.813 97.8588 100.055 97.0899 98.7655C96.2993 97.4273 95.2656 96.5279 95.5701 96.2675C95.895 96.0026 96.9481 97.0365 97.698 98.3837C98.4048 99.634 98.824 101.173 98.5862 101.493ZM100.136 97.9761C99.4427 98.9318 98.6174 93.5782 96.3806 89.7363C94.0724 85.8143 90.364 83.3587 91.2742 82.6105C92.2126 81.8452 95.3178 84.8948 97.5198 88.8193C99.6062 92.5135 100.813 97.0452 100.148 97.9839L100.136 97.9761Z" fill="#BC6E61"/>
<path d="M132.114 202.614L90.3734 202.206C90.0425 202.205 89.7913 201.941 89.7919 201.611L90.0048 181.116C90.0054 180.785 90.2693 180.534 90.6002 180.534L132.333 180.955C132.664 180.956 132.915 181.22 132.914 181.551L132.701 202.045C132.701 202.376 132.437 202.627 132.106 202.627L132.114 202.614Z" fill="#E2DED0"/>
<g style="mix-blend-mode:multiply" opacity="0.5">
<path d="M105.227 182.636L91.7832 182.501L91.7215 188.509L105.165 188.645L105.227 182.636Z" fill="#898989"/>
</g>
<g style="mix-blend-mode:multiply" opacity="0.5">
<path d="M128.422 183.776L108.968 183.58C108.776 183.58 108.633 183.42 108.633 183.228C108.632 183.036 108.793 182.893 108.972 182.885L128.427 183.081C128.619 183.081 128.761 183.241 128.769 183.42C128.77 183.612 128.622 183.763 128.43 183.763L128.422 183.776Z" fill="#898989"/>
<path d="M128.385 186.195L108.931 185.999C108.739 185.999 108.596 185.839 108.588 185.659C108.588 185.467 108.748 185.325 108.927 185.317L128.382 185.513C128.574 185.512 128.716 185.672 128.717 185.864C128.717 186.056 128.557 186.199 128.377 186.207L128.385 186.195Z" fill="#898989"/>
<path d="M128.365 188.623L108.91 188.427C108.718 188.427 108.576 188.267 108.568 188.087C108.567 187.895 108.715 187.745 108.907 187.744L128.362 187.94C128.554 187.94 128.696 188.1 128.696 188.292C128.697 188.484 128.537 188.627 128.345 188.627L128.365 188.623Z" fill="#898989"/>
<path d="M97.7786 191.327L91.7147 191.267C91.5227 191.267 91.3801 191.107 91.3719 190.928C91.3716 190.736 91.5193 190.585 91.7113 190.585L97.7753 190.645C97.9673 190.645 98.1098 190.805 98.118 190.984C98.1183 191.176 97.9582 191.319 97.7786 191.327Z" fill="#898989"/>
<path d="M97.7569 193.946L91.693 193.886C91.6072 193.884 91.528 193.817 91.5256 193.71C91.5277 193.625 91.5953 193.545 91.7015 193.543L97.7654 193.603C97.8512 193.605 97.9429 193.681 97.9328 193.779C97.9228 193.877 97.8631 193.944 97.7569 193.946Z" fill="#898989"/>
<path d="M97.7314 196.738L91.6675 196.677C91.5816 196.675 91.5025 196.608 91.5 196.502C91.5022 196.416 91.5698 196.336 91.6759 196.334L97.7399 196.394C97.8257 196.396 97.897 196.476 97.9073 196.57C97.8973 196.668 97.8375 196.735 97.7314 196.738Z" fill="#898989"/>
<path d="M97.6925 199.521L91.6286 199.461C91.5427 199.458 91.4635 199.391 91.4611 199.285C91.4632 199.199 91.5309 199.12 91.637 199.117L97.7009 199.177C97.7868 199.179 97.866 199.247 97.8684 199.353C97.8584 199.451 97.7986 199.518 97.6925 199.521Z" fill="#898989"/>
<path d="M108.055 191.424L101.991 191.364C101.799 191.365 101.656 191.204 101.648 191.025C101.648 190.833 101.808 190.69 101.988 190.682L108.052 190.742C108.244 190.742 108.386 190.902 108.394 191.081C108.395 191.273 108.234 191.416 108.042 191.416L108.055 191.424Z" fill="#898989"/>
<path d="M108.034 194.044L101.97 193.984C101.885 193.982 101.805 193.914 101.803 193.808C101.805 193.722 101.873 193.643 101.979 193.641L108.043 193.701C108.129 193.703 108.22 193.778 108.21 193.877C108.208 193.962 108.14 194.042 108.034 194.044Z" fill="#898989"/>
<path d="M108.007 196.835L101.943 196.775C101.857 196.773 101.778 196.705 101.776 196.599C101.778 196.513 101.845 196.434 101.952 196.432L108.015 196.492C108.101 196.494 108.193 196.569 108.183 196.668C108.181 196.753 108.113 196.833 108.007 196.835Z" fill="#898989"/>
<path d="M107.982 199.626L101.918 199.566C101.832 199.564 101.753 199.496 101.75 199.39C101.752 199.304 101.82 199.225 101.926 199.223L107.99 199.283C108.088 199.293 108.167 199.36 108.157 199.459C108.147 199.557 108.08 199.636 107.982 199.626Z" fill="#898989"/>
<path d="M118.345 191.53L112.281 191.47C112.089 191.47 111.939 191.323 111.939 191.131C111.938 190.939 112.099 190.796 112.291 190.796L118.342 190.848C118.534 190.847 118.677 191.008 118.685 191.187C118.685 191.379 118.525 191.522 118.345 191.53Z" fill="#898989"/>
<path d="M118.323 194.15L112.259 194.089C112.174 194.087 112.094 194.02 112.092 193.914C112.094 193.828 112.162 193.749 112.268 193.746L118.332 193.806C118.418 193.808 118.509 193.884 118.499 193.982C118.497 194.068 118.429 194.147 118.323 194.15Z" fill="#898989"/>
<path d="M118.276 196.945L112.213 196.885C112.127 196.883 112.048 196.815 112.045 196.709C112.047 196.623 112.115 196.544 112.221 196.541L118.285 196.602C118.383 196.612 118.462 196.679 118.452 196.777C118.463 196.871 118.383 196.942 118.276 196.945Z" fill="#898989"/>
<path d="M118.259 199.724L112.195 199.664C112.109 199.662 112.03 199.594 112.028 199.488C112.03 199.402 112.097 199.323 112.203 199.32L118.267 199.38C118.366 199.39 118.445 199.458 118.435 199.556C118.437 199.662 118.365 199.721 118.259 199.724Z" fill="#898989"/>
<path d="M128.621 191.628L122.557 191.568C122.365 191.568 122.222 191.408 122.214 191.228C122.214 191.036 122.374 190.894 122.566 190.893L128.63 190.953C128.822 190.953 128.964 191.113 128.973 191.293C128.973 191.485 128.813 191.627 128.621 191.628Z" fill="#898989"/>
<path d="M128.593 194.259L122.529 194.199C122.443 194.197 122.364 194.13 122.362 194.023C122.364 193.938 122.439 193.846 122.537 193.856L128.601 193.916C128.687 193.918 128.779 193.994 128.769 194.092C128.767 194.178 128.699 194.257 128.593 194.259Z" fill="#898989"/>
<path d="M128.565 197.05L122.501 196.99C122.416 196.988 122.324 196.913 122.334 196.814C122.336 196.729 122.412 196.637 122.51 196.647L128.574 196.707C128.66 196.709 128.743 196.797 128.741 196.883C128.731 196.981 128.672 197.048 128.565 197.05Z" fill="#898989"/>
<path d="M128.54 199.841L122.476 199.781C122.39 199.779 122.311 199.712 122.309 199.605C122.311 199.52 122.379 199.44 122.485 199.438L128.549 199.498C128.634 199.5 128.714 199.568 128.716 199.674C128.706 199.772 128.638 199.851 128.54 199.841Z" fill="#898989"/>
</g>
<path d="M102.349 206.9L89.7734 206.775L89.5242 231.486L102.099 231.611L102.349 206.9Z" fill="#E2DED0"/>
<path d="M208.533 70.4345L207.438 178.537C205.529 179.349 203.295 179.765 200.705 179.588C186.69 178.567 181.954 167.282 181.954 167.282C152.183 177.391 138.691 159.072 138.691 159.072L139.595 69.7518L208.533 70.4345Z" fill="#9DE2ED"/>
<path d="M132.256 210.255L110.461 210.039C110.256 210.032 110.093 209.876 110.101 209.672L110.11 208.806C110.117 208.601 110.273 208.438 110.485 208.433L132.273 208.661C132.478 208.669 132.64 208.824 132.645 209.037L132.637 209.903C132.629 210.107 132.473 210.27 132.261 210.275L132.256 210.255Z" fill="#C5D4E2"/>
<path d="M131.982 220.369L110.537 220.15C110.239 220.153 110 219.897 110.01 219.606L110.018 219.071C110.016 218.773 110.272 218.534 110.562 218.544L132.014 218.751C132.312 218.748 132.559 218.991 132.541 219.294L132.533 219.83C132.536 220.128 132.28 220.366 131.982 220.369Z" fill="#C5D4E2"/>
<path d="M118.83 224.501L110.168 224.415C110.049 224.41 109.953 224.314 109.946 224.188L109.952 223.023C109.957 222.905 110.053 222.808 110.18 222.801L118.842 222.887C118.961 222.893 119.065 222.976 119.064 223.115L119.058 224.279C119.053 224.398 118.949 224.507 118.83 224.501Z" fill="#C5D4E2"/>
<path d="M132.361 224.638L127.964 224.589C127.964 224.589 127.857 224.538 127.851 224.465L127.873 223.083C127.873 223.083 127.923 222.976 127.997 222.97L132.394 223.02C132.394 223.02 132.501 223.07 132.515 223.131L132.493 224.513C132.493 224.513 132.422 224.625 132.369 224.626L132.361 224.638Z" fill="#C5D4E2"/>
<path d="M182.409 140.907L168.185 140.766C164.132 140.725 160.965 136.259 161.308 131.07L161.714 124.875L163.011 104.981C163.165 102.62 164.705 100.823 166.531 100.83L184.862 101.011C186.7 101.026 188.201 102.866 188.312 105.221L189.193 124.787L189.478 131.351C189.724 136.546 186.475 140.956 182.422 140.915L182.409 140.907Z" fill="#E2DED0"/>
<path d="M165.622 107.875C163.555 90.3992 153.688 94.2757 153.688 94.2757C153.688 94.2757 153.573 109.252 165.622 107.875Z" fill="#F0F4F7"/>
<path d="M174.038 103.832C177.195 95.7712 173.109 91.2979 173.109 91.2979C173.109 91.2979 169.769 97.0623 174.038 103.832Z" fill="#F0F4F7"/>
<path d="M177.654 103.875C174.661 95.7522 178.842 91.3575 178.842 91.3575C178.842 91.3575 182.056 97.1788 177.654 103.875Z" fill="#F0F4F7"/>
<path d="M185.632 108.075C188.055 90.6382 197.835 94.7104 197.835 94.7104C197.835 94.7104 197.647 109.693 185.632 108.075Z" fill="#F0F4F7"/>
<path d="M189.193 124.788C185.466 126.157 180.443 126.984 174.947 126.935C169.909 126.88 165.308 126.108 161.713 124.875L163.022 104.989C163.169 102.64 164.717 100.831 166.535 100.85L184.866 101.032C186.704 101.046 188.205 102.887 188.316 105.242L189.197 124.808L189.193 124.788Z" fill="#F0F4F7"/>
<path d="M173.706 129.423C174.769 128.929 175.426 131.909 174.447 132.544C173.469 133.179 172.748 129.862 173.706 129.423Z" fill="#F0F4F7"/>
<path d="M177.117 129.459C176.063 128.948 175.338 131.906 176.318 132.562C177.276 133.222 178.075 129.927 177.117 129.459Z" fill="#F0F4F7"/>
<path d="M207.222 201.647L138.279 200.965L138.067 222.009L207.009 222.691L207.222 201.647Z" fill="#E2DED0"/>
<path d="M240.289 21.1992H216.799V24.1827H240.289V21.1992Z" fill="#F755C0"/>
<path d="M243.49 9.27385C243.49 6.55931 241.574 4.35742 239.22 4.35742H217.873C215.511 4.35742 213.604 6.55931 213.604 9.27385V21.1994H243.498V9.27385H243.49Z" fill="#FBC702"/>
<path d="M273.612 110.964V126.428H183.482V110.964C183.482 105.695 187.5 101.258 192.971 99.9214V90.349C192.971 83.0962 211.2 34.4109 214.571 25.5697C214.865 24.7209 215.638 24.1914 216.554 24.1914H240.524C241.44 24.1914 242.196 24.7293 242.507 25.5697C245.877 34.4109 264.107 83.0962 264.107 90.349V99.9214C269.603 101.258 273.612 105.703 273.612 110.964Z" fill="#FFBACE"/>
<path d="M238.119 126.428C238.119 131.723 233.832 136 228.537 136C223.243 136 218.965 131.714 218.965 126.428C218.965 121.142 223.251 116.847 228.537 116.847C233.824 116.847 238.119 121.133 238.119 126.428Z" fill="#F7E8C4"/>
<path d="M234.959 93.0885C234.959 96.6267 232.093 99.5009 228.555 99.5009C225.017 99.5009 222.143 96.6267 222.143 93.0885C222.143 89.5504 225.017 86.6846 228.555 86.6846C232.093 86.6846 234.959 89.5504 234.959 93.0885Z" fill="#F7E8C4"/>
<path d="M233.935 62.5228C233.935 65.4979 231.523 67.9099 228.547 67.9099C225.572 67.9099 223.16 65.4979 223.16 62.5228C223.16 59.5477 225.572 57.1357 228.547 57.1357C231.523 57.1357 233.935 59.5477 233.935 62.5228Z" fill="#F7E8C4"/>
<path d="M273.612 147.943V163.406C273.612 168.357 270.065 172.55 265.089 174.164C270.065 175.744 273.612 179.963 273.612 184.913V200.376C273.612 205.326 270.065 209.529 265.089 211.134C270.065 212.714 273.612 216.941 273.612 221.891V237.355C273.612 242.691 269.502 247.154 263.93 248.423C263.039 253.692 258.484 257.726 252.953 257.726H204.132C198.618 257.726 194.046 253.684 193.172 248.423C187.592 247.154 183.49 242.691 183.49 237.355V221.891C183.49 216.941 187.037 212.722 192.012 211.134C187.037 209.529 183.49 205.335 183.49 200.376V184.913C183.49 179.963 187.037 175.744 192.012 174.164C187.037 172.559 183.49 168.357 183.49 163.406V147.943C183.49 142.984 187.037 138.774 192.012 137.185C187.037 135.58 183.49 131.378 183.49 126.437H273.62C273.62 131.387 270.073 135.58 265.098 137.185C270.073 138.774 273.62 142.984 273.62 147.943H273.612Z" fill="#FB8CAC"/>
<path d="M239.262 163.726C239.262 169.651 234.463 174.441 228.546 174.441C222.629 174.441 217.83 169.642 217.83 163.726C217.83 157.809 222.629 153.01 228.546 153.01C234.463 153.01 239.262 157.809 239.262 163.726Z" fill="#F7E8C4"/>
<path d="M235.607 199.956C235.607 203.856 232.447 207.016 228.556 207.016C224.665 207.016 221.496 203.856 221.496 199.956C221.496 196.056 224.656 192.896 228.556 192.896C232.455 192.896 235.607 196.056 235.607 199.956Z" fill="#F7E8C4"/>
</svg>
