<svg width="301" height="376" viewBox="0 0 301 376" fill="none" xmlns="http://www.w3.org/2000/svg">
<path d="M87.1417 75.8134L287.944 0.839844L291.61 11.0535L89.9869 83.7544L87.1417 75.8134Z" fill="#F9D999"/>
<path d="M288.163 1.33617L241.708 18.0947L245.196 27.7807L291.651 11.0221L288.163 1.33617Z" fill="#F72A14"/>
<path d="M86.3209 105.25L300.556 99.6636L300.72 110.507L86.4304 113.683L86.3209 105.25Z" fill="#F9D999"/>
<path d="M300.558 100.215L251.183 100.948L251.336 111.243L300.71 110.51L300.558 100.215Z" fill="#F72A14"/>
<path d="M132.254 89.7791C132.254 98.0486 125.551 104.757 117.289 104.757C109.027 104.757 102.325 98.0486 102.325 89.7791C102.325 81.5095 109.027 74.8008 117.289 74.8008C125.551 74.8008 132.254 81.5095 132.254 89.7791Z" fill="#F7C90D"/>
<path d="M152.088 164.533C152.088 172.803 145.385 179.512 137.123 179.512C128.861 179.512 122.159 172.803 122.159 164.533C122.159 156.264 128.861 149.555 137.123 149.555C145.385 149.555 152.088 156.264 152.088 164.533Z" fill="#F72A14"/>
<path d="M139.23 174.5C139.23 182.77 132.527 189.479 124.265 189.479C116.004 189.479 109.301 182.77 109.301 174.5C109.301 166.231 116.004 159.522 124.265 159.522C132.527 159.522 139.23 166.231 139.23 174.5Z" fill="#FF4E10"/>
<path d="M151.212 211.275C147.355 208.756 134.989 203.581 138.546 164.78L156.93 156.592L189.841 207.25L151.212 211.275Z" fill="#9EC11C"/>
<path d="M70.7272 209.304C69.25 207.36 68.0189 205.197 67.1161 202.897L75.4054 199.583C79.2627 209.304 91.4094 215.356 99.8081 206.84C107.468 199.063 97.2912 172.666 113.35 157.743C129.354 142.874 163.742 159.002 138.683 187.425C135.345 191.204 127.521 200.076 126.345 207.798C126.098 209.468 128.643 225.241 141.446 206.621C146.89 198.68 156.273 182.058 169.323 180.415C174.576 179.758 179.637 181.566 184.342 185.81L178.351 192.436C175.642 189.972 173.044 188.931 170.445 189.26C161.882 190.355 153.237 205.224 148.805 211.686C131.433 236.933 115.539 219.436 117.508 206.456C118.903 197.365 125.606 188.74 131.98 181.511C149.462 161.713 127.138 157.113 119.423 164.287C106.128 176.664 118.055 201.035 106.182 213.11C95.4035 224.036 79.5089 220.887 70.7272 209.277V209.304Z" fill="#F9B50B"/>
<path d="M59.4013 242.93C57.924 240.986 56.693 238.823 55.7902 236.55L64.0794 233.237C67.9368 242.957 80.0834 249.009 88.4821 240.493C96.1422 232.716 85.9653 206.32 102.024 191.396C118.028 176.527 152.443 192.656 127.357 221.079C124.019 224.858 116.195 233.729 115.019 241.451C114.772 243.122 117.317 258.894 130.12 240.274C135.564 232.333 144.948 215.712 157.997 214.069C163.25 213.412 168.311 215.219 173.016 219.463L167.025 226.09C164.317 223.625 161.718 222.585 159.119 222.913C150.556 224.009 141.911 238.877 137.479 245.34C120.107 270.587 104.213 253.089 106.182 240.11C107.578 231.019 114.28 222.393 120.654 215.164C138.136 195.366 115.812 190.766 108.097 197.94C94.8017 210.317 106.729 234.688 94.8564 246.764C84.0776 257.689 68.183 254.54 59.4013 242.93Z" fill="#F9B50B"/>
<path d="M68.2924 226.966C65.8577 226.966 63.3955 226.637 61.0154 225.98L63.3955 217.354C73.463 220.12 85.6096 214.096 83.8861 202.239C82.2994 191.423 55.1336 183.647 52.9177 161.823C50.7291 140.081 84.3238 122.337 91.8471 159.495C92.8593 164.451 95.1847 176.034 100.629 181.62C101.805 182.825 115.921 190.3 108.809 168.833C105.772 159.687 98.194 142.189 104.732 130.771C107.359 126.17 111.873 123.24 118.083 122.036L119.752 130.825C116.14 131.51 113.76 132.961 112.474 135.234C108.179 142.709 114.827 158.591 117.289 166.039C126.946 195.12 103.392 197.283 94.2545 187.863C87.8529 181.264 85.0351 170.722 83.1201 161.275C77.8675 135.371 60.7692 150.431 61.8361 160.919C63.6691 178.991 90.3151 184.167 92.7499 200.952C94.9658 216.15 82.8739 226.938 68.3198 226.938L68.2924 226.966Z" fill="#F7C90D"/>
<path d="M97.7016 235.509C95.2668 235.208 92.8867 234.578 90.6161 233.62L94.0631 225.377C103.693 229.403 116.523 224.939 116.277 212.973C116.058 202.047 90.0689 190.903 90.6161 168.997C91.1632 147.145 126.728 133.782 129.545 171.598C129.928 176.636 130.804 188.438 135.482 194.654C136.494 195.996 149.544 205.196 145.194 182.989C143.334 173.542 137.999 155.223 145.932 144.708C149.133 140.464 153.948 138.136 160.268 137.726L160.842 146.652C157.176 146.871 154.632 148.021 153.073 150.103C147.875 156.976 152.471 173.569 153.976 181.264C159.885 211.33 136.275 210.509 128.369 200.021C122.843 192.682 121.366 181.866 120.654 172.228C118.712 145.886 99.8355 158.646 99.5619 169.188C99.0968 187.343 124.895 195.831 125.223 212.781C125.524 228.143 112.146 237.316 97.729 235.509H97.7016Z" fill="#F7C90D"/>
<path d="M74.6667 241.588C72.6423 242.957 70.4263 244.052 68.0736 244.819L65.2831 236.33C75.1865 233.045 81.9711 221.27 73.9554 212.371C66.651 204.238 39.7314 212.864 25.7792 195.941C11.9091 179.073 30.0196 145.639 56.8845 172.392C60.4683 175.952 68.8396 184.276 76.4723 185.919C78.1137 186.275 94.0083 184.659 76.1713 170.749C68.5934 164.834 52.562 154.484 51.6866 141.34C51.3309 136.055 53.4374 131.099 57.9514 126.663L64.2162 133.043C61.6173 135.617 60.4135 138.136 60.605 140.738C61.1796 149.336 75.5148 158.865 81.6701 163.684C105.827 182.524 87.4152 197.392 74.612 194.654C65.6388 192.737 57.4316 185.536 50.5923 178.717C31.8799 160.097 25.9981 182.113 32.6733 190.245C44.218 204.265 69.25 193.778 80.5759 206.374C90.8349 217.792 86.7586 233.483 74.6667 241.561V241.588Z" fill="#F7C90D"/>
<path d="M28.7885 205.525C28.7885 200.898 26.3811 187.726 60.8239 169.544L77.7033 180.525L53.2186 235.756L28.7885 205.553V205.525Z" fill="#FF4E10"/>
<path d="M76.7186 233.209C73.3263 230.06 62.0277 222.913 72.0405 185.235L91.5462 180.278L115.456 235.756L76.6912 233.209H76.7186Z" fill="#F72A14"/>
<path d="M100.465 233.209C97.0724 230.06 85.7738 222.913 95.7866 185.235L115.292 180.278L139.203 235.756L100.465 233.209Z" fill="#FF4E10"/>
<path d="M127.521 239.671C124.129 236.522 112.83 229.348 122.843 191.697L142.349 186.741L166.259 242.218L127.494 239.671H127.521Z" fill="#F72A14"/>
<path d="M105.745 206.593V300.242H28.4056L0.719971 139.095H39.239C39.2117 139.424 39.1843 139.698 39.1843 139.999C39.1843 176.774 68.9764 206.593 105.745 206.593Z" fill="#C36228"/>
<path d="M210.742 139.095L183.056 300.242H105.772V206.593C142.513 206.593 172.305 176.774 172.305 139.999C172.305 139.698 172.278 139.424 172.278 139.095H210.769H210.742Z" fill="#AA4907"/>
<path d="M105.745 260.428H22.4143L17.9551 235.4H105.745V260.428Z" fill="#F72A14"/>
<path d="M189.048 260.428H105.745V235.4H193.507L189.048 260.428Z" fill="#BD0006"/>
<path d="M139.777 251.2C139.777 269.847 124.676 284.963 106.018 284.963C87.3605 284.963 72.2593 269.847 72.2593 251.2C72.2593 232.552 87.3878 217.41 106.018 217.41C124.648 217.41 139.777 232.525 139.777 251.2Z" fill="#EAC986"/>
<path d="M117.736 229.52L117.754 234.504L247.814 234.063L247.796 229.079L117.736 229.52Z" fill="#B2D692"/>
<path d="M258.204 318.435L108.088 318.917L112.711 278.953L117.828 234.498L247.893 234.078L253.525 280.094L258.204 318.435Z" fill="#6A9B53"/>
<path d="M167.945 234.321C163.903 253.679 150.98 276.954 112.711 278.952L117.84 234.47L167.937 234.301L167.945 234.321Z" fill="#E2DED0"/>
<path d="M258.204 318.435L212.037 318.576C211.296 316.062 210.896 313.412 210.881 310.68C210.834 293.408 226.386 279.349 245.631 279.303C248.341 279.296 250.969 279.553 253.505 280.102L258.204 318.435Z" fill="#E2DED0"/>
<path d="M239.522 258.194C239.544 266.679 225.267 273.596 207.618 273.634C189.978 273.693 175.64 266.871 175.618 258.385C175.596 249.9 189.873 242.983 207.514 242.925C225.155 242.866 239.473 249.696 239.514 258.174L239.522 258.194Z" fill="#B2D692"/>
<path d="M199.816 239.642C200.012 239.843 200.107 240.084 200.094 240.344C200.085 240.789 199.988 241.129 199.759 241.313C199.538 241.516 199.182 241.611 198.694 241.55C197.61 241.446 196.753 241.391 196.137 241.357C195.521 241.323 194.729 241.312 193.724 241.293C193.276 243.791 192.884 246.314 192.52 248.849C192.381 249.786 192.242 250.839 192.098 252.057C191.954 253.274 191.879 254.256 191.824 254.997C191.799 255.401 191.658 255.689 191.389 255.889C191.129 256.108 190.8 256.215 190.424 256.202C190.028 256.197 189.708 256.091 189.505 255.87C189.281 255.657 189.17 255.377 189.171 255.028C189.18 254.7 189.218 254.151 189.292 253.402C189.387 252.645 189.493 251.86 189.604 251.027C189.734 250.186 189.825 249.477 189.907 248.865C190.034 247.839 190.181 246.806 190.356 245.785C190.532 244.764 190.683 243.799 190.858 242.894C190.894 242.694 190.943 242.466 190.976 242.197C191.029 241.921 191.082 241.645 191.131 241.3C189.946 241.353 189.017 241.466 188.344 241.64C187.671 241.814 187.194 242.073 186.905 242.396C186.616 242.72 186.475 243.124 186.489 243.629C186.488 244.094 186.615 244.531 186.849 244.948C186.889 245.049 186.929 245.149 186.92 245.245C186.928 245.497 186.791 245.737 186.51 245.965C186.229 246.192 185.949 246.304 185.669 246.299C185.464 246.31 185.297 246.237 185.153 246.109C184.921 245.875 184.698 245.546 184.552 245.117C184.385 244.696 184.31 244.215 184.3 243.662C184.304 242.5 184.635 241.58 185.305 240.873C185.976 240.166 187.006 239.664 188.38 239.328C189.753 238.992 191.519 238.826 193.676 238.829C195.02 238.829 196.073 238.853 196.861 238.911C197.649 238.97 198.349 239.04 198.937 239.179C199.317 239.26 199.605 239.401 199.78 239.61L199.816 239.642Z" fill="#D8A745"/>
<path d="M204.104 251.819C204.196 251.992 204.255 252.201 204.23 252.489C204.241 253.042 204.127 253.458 203.898 253.758C203.448 254.377 202.83 254.924 202 255.462C201.19 255.993 200.317 256.246 199.368 256.251C198.092 256.247 197.108 255.871 196.41 255.104C195.712 254.336 195.36 253.269 195.34 251.931C195.343 251.002 195.505 250.125 195.856 249.313C196.207 248.5 196.697 247.865 197.319 247.386C197.941 246.907 198.658 246.669 199.442 246.66C200.138 246.662 200.71 246.876 201.133 247.359C201.548 247.821 201.774 248.45 201.771 249.264C201.776 250.213 201.486 251.002 200.875 251.685C200.285 252.36 199.271 252.901 197.845 253.281C198.139 253.907 198.722 254.21 199.583 254.217C200.115 254.214 200.744 253.988 201.438 253.574C202.123 253.139 202.733 252.572 203.228 251.889C203.38 251.689 203.533 251.605 203.717 251.602C203.881 251.606 204.001 251.675 204.092 251.847L204.104 251.819ZM198.005 249.528C197.703 250.112 197.544 250.824 197.55 251.658L197.566 251.698C198.258 251.516 198.816 251.225 199.245 250.846C199.654 250.475 199.868 250.019 199.853 249.514C199.866 249.254 199.787 249.053 199.655 248.896C199.524 248.74 199.356 248.667 199.144 248.658C198.7 248.649 198.307 248.944 198.005 249.528Z" fill="#D8A745"/>
<path d="M203.089 255.402C202.902 254.873 202.805 253.983 202.801 252.801C202.798 251.038 203.012 249.352 203.449 247.763C203.55 247.375 203.731 247.071 203.988 246.9C204.236 246.708 204.573 246.621 205.037 246.623C205.289 246.615 205.441 246.648 205.541 246.724C205.641 246.801 205.688 246.921 205.692 247.105C205.683 247.318 205.602 247.814 205.419 248.583C205.305 249.115 205.196 249.6 205.123 250C205.049 250.401 204.996 250.909 204.934 251.514C205.326 250.337 205.785 249.389 206.283 248.658C206.782 247.926 207.272 247.407 207.745 247.08C208.226 246.773 208.675 246.618 209.063 246.604C209.847 246.594 210.254 247.036 210.256 247.918C210.258 248.451 210.127 249.408 209.862 250.789C209.635 251.97 209.528 252.755 209.535 253.124C209.537 253.657 209.717 253.934 210.065 253.935C210.297 253.935 210.602 253.768 210.931 253.429C211.26 253.089 211.702 252.566 212.26 251.81C212.393 251.619 212.565 251.527 212.75 251.524C212.914 251.528 213.033 251.597 213.125 251.769C213.216 251.942 213.276 252.15 213.251 252.439C213.261 252.992 213.148 253.408 212.919 253.708C212.392 254.427 211.838 255.018 211.236 255.489C210.635 255.96 209.958 256.182 209.193 256.183C208.573 256.197 208.117 255.984 207.795 255.578C207.472 255.172 207.317 254.607 207.316 253.842C207.301 253.453 207.407 252.784 207.57 251.791C207.721 250.942 207.811 250.35 207.8 250.029C207.808 249.817 207.741 249.704 207.597 249.692C207.433 249.687 207.228 249.931 206.938 250.371C206.657 250.831 206.363 251.435 206.076 252.175C205.79 252.915 205.547 253.708 205.369 254.544C205.226 255.181 205.073 255.613 204.908 255.841C204.743 256.069 204.463 256.18 204.087 256.167C203.623 256.165 203.307 255.896 203.113 255.346L203.089 255.402Z" fill="#D8A745"/>
<path d="M218.974 254.833C219.038 254.993 219.049 255.198 219.053 255.382C219.059 255.983 218.722 256.303 218.053 256.312C217.685 256.319 217.385 256.206 217.202 255.977C216.998 255.756 216.824 255.315 216.638 254.669L216.606 254.589C216.164 255.228 215.75 255.648 215.373 255.867C214.996 256.086 214.572 256.185 214.088 256.191C213.351 256.205 212.74 255.89 212.262 255.268C211.783 254.645 211.534 253.839 211.541 252.862C211.528 251.776 211.731 250.767 212.15 249.835C212.57 248.903 213.128 248.147 213.846 247.561C214.557 246.954 215.35 246.616 216.243 246.471C216.455 243.903 216.89 241.665 217.529 239.764C218.167 237.863 219.022 236.92 220.107 236.908C220.639 236.906 221.062 237.156 221.413 237.69C221.763 238.224 221.937 239.013 221.95 240.099C221.957 241.582 221.631 243.335 220.985 245.332C220.338 247.329 219.484 249.386 218.4 251.51C218.537 252.616 218.742 253.718 218.986 254.805L218.974 254.833ZM215.424 253.828C215.644 253.624 215.93 253.232 216.28 252.653C216.163 251.655 216.086 250.641 216.081 249.575C216.079 249.158 216.088 248.83 216.088 248.598C215.411 248.82 214.865 249.315 214.431 250.091C213.996 250.866 213.777 251.719 213.782 252.669C213.783 253.666 214.09 254.148 214.698 254.162C214.93 254.163 215.171 254.067 215.412 253.856L215.424 253.828ZM218.918 241.928C218.62 243.926 218.421 246.117 218.314 248.481C219.641 245.216 220.305 242.562 220.308 240.518C220.313 240.006 220.27 239.605 220.179 239.316C220.108 239.019 220.012 238.895 219.896 238.894C219.548 238.893 219.209 239.91 218.911 241.908L218.918 241.928Z" fill="#D8A745"/>
<path d="M229.205 251.75C229.276 251.93 229.356 252.131 229.331 252.419C229.341 252.972 229.228 253.388 228.999 253.688C228.549 254.307 227.911 254.862 227.1 255.393C226.29 255.923 225.417 256.176 224.469 256.181C223.192 256.177 222.209 255.801 221.511 255.034C220.813 254.266 220.44 253.207 220.44 251.861C220.443 250.932 220.606 250.055 220.957 249.243C221.307 248.43 221.798 247.795 222.419 247.316C223.041 246.838 223.758 246.6 224.543 246.59C225.239 246.592 225.811 246.807 226.233 247.289C226.648 247.751 226.882 248.401 226.872 249.194C226.877 250.143 226.586 250.932 225.976 251.615C225.385 252.29 224.371 252.831 222.925 253.219C223.239 253.837 223.811 254.168 224.663 254.155C225.215 254.144 225.824 253.926 226.518 253.512C227.204 253.077 227.814 252.51 228.308 251.827C228.461 251.627 228.613 251.543 228.797 251.54C228.961 251.544 229.081 251.613 229.173 251.786L229.205 251.75ZM223.105 249.458C222.803 250.042 222.645 250.755 222.65 251.588L222.666 251.628C223.359 251.446 223.916 251.155 224.346 250.776C224.755 250.405 224.968 249.949 224.954 249.444C224.947 249.192 224.887 248.983 224.756 248.826C224.624 248.67 224.456 248.597 224.244 248.588C223.8 248.579 223.407 248.874 223.105 249.458Z" fill="#D8A745"/>
<path d="M235.879 249.636C236.074 249.837 236.157 250.106 236.161 250.406C236.164 250.59 236.119 250.77 236.063 250.979C235.865 251.475 235.596 251.907 235.238 252.234C234.889 252.581 234.516 252.752 234.072 252.743C233.724 252.742 233.444 252.621 233.217 252.34C232.99 252.058 232.867 251.689 232.848 251.233C232.841 250.98 232.866 250.692 232.891 250.403C232.92 250.183 232.932 250.039 232.92 249.951C232.921 249.835 232.889 249.754 232.845 249.702C232.821 249.642 232.765 249.618 232.697 249.621C232.533 249.617 232.3 249.849 232.019 250.308C231.737 250.768 231.443 251.372 231.157 252.112C230.87 252.853 230.628 253.645 230.449 254.482C230.315 255.139 230.162 255.571 229.997 255.799C229.832 256.026 229.543 256.118 229.155 256.132C228.691 256.131 228.376 255.861 228.181 255.312C227.995 254.782 227.898 253.893 227.893 252.711C227.891 250.948 228.104 249.262 228.541 247.673C228.643 247.284 228.824 246.981 229.08 246.809C229.329 246.618 229.665 246.531 230.13 246.532C230.362 246.533 230.534 246.557 230.634 246.634C230.733 246.71 230.781 246.831 230.784 247.015C230.776 247.227 230.694 247.724 230.512 248.493C230.398 249.025 230.288 249.509 230.223 249.93C230.158 250.35 230.096 250.839 230.054 251.436C230.446 250.259 230.905 249.311 231.384 248.588C231.882 247.856 232.372 247.337 232.825 247.018C233.307 246.711 233.727 246.544 234.124 246.549C234.472 246.55 234.744 246.651 234.927 246.88C235.11 247.109 235.217 247.438 235.2 247.863C235.207 248.115 235.146 248.604 235.015 249.329L235.179 249.333C235.46 249.338 235.683 249.435 235.859 249.644L235.879 249.636Z" fill="#D8A745"/>
<path d="M190.873 253.355C191.153 253.592 191.308 253.925 191.286 254.398C191.293 254.766 191.192 255.039 190.975 255.194C190.759 255.35 190.415 255.417 189.922 255.403C189.41 255.397 188.618 255.387 187.497 255.367L186.261 255.347C185.755 258.286 185.335 260.797 185.049 262.883C184.905 263.868 184.762 264.969 184.638 266.179C184.506 267.368 184.403 268.338 184.361 269.051C184.336 269.455 184.195 269.743 183.914 269.971C183.625 270.178 183.297 270.285 182.901 270.28C182.552 270.279 182.273 270.158 182.069 269.937C181.866 269.716 181.775 269.427 181.768 269.058C181.757 268.621 181.823 267.969 181.93 267.068C182.045 266.186 182.217 264.981 182.433 263.479L182.499 262.943C182.798 260.828 183.178 258.334 183.663 255.403C182.567 255.443 181.458 255.511 180.365 255.62C179.428 255.713 178.957 255.343 178.968 254.55C178.969 254.201 179.062 253.909 179.246 253.673C179.431 253.438 179.716 253.278 180.088 253.223C181.51 253.008 183.095 252.913 184.808 252.906L187.169 252.898C188.329 252.902 189.122 252.912 189.534 252.958C190.11 253.008 190.562 253.153 190.833 253.371L190.873 253.355Z" fill="#D8A745"/>
<path d="M189.042 269.399C188.704 268.837 188.542 268.135 188.529 267.282C188.52 266.264 188.591 265.331 188.693 264.478C188.816 263.617 188.999 262.732 189.286 261.759C189.407 261.363 189.568 261.067 189.797 260.883C190.006 260.708 190.362 260.613 190.827 260.614C191.099 260.599 191.279 260.644 191.366 260.748C191.474 260.845 191.53 260.985 191.533 261.17C191.533 261.286 191.472 261.658 191.342 262.267C191.22 262.779 191.123 263.236 191.049 263.636C190.801 265.057 190.698 266.027 190.696 266.491C190.691 266.772 190.723 266.968 190.79 267.081C190.838 267.201 190.95 267.249 191.066 267.25C191.25 267.246 191.471 267.043 191.748 266.631C192.026 266.219 192.312 265.595 192.614 264.779C192.909 263.942 193.229 262.934 193.508 261.709C193.602 261.301 193.743 261.013 193.951 260.837C194.16 260.661 194.448 260.57 194.845 260.575C195.125 260.58 195.325 260.617 195.425 260.693C195.544 260.762 195.6 260.902 195.591 261.115C195.59 261.463 195.443 262.38 195.146 263.914C194.813 265.647 194.641 266.737 194.656 267.125C194.663 267.378 194.703 267.594 194.798 267.719C194.902 267.863 195.022 267.932 195.186 267.936C195.418 267.937 195.723 267.77 196.052 267.43C196.381 267.091 196.823 266.567 197.382 265.812C197.522 265.64 197.687 265.529 197.871 265.525C198.035 265.53 198.155 265.598 198.246 265.771C198.33 265.923 198.397 266.152 198.372 266.44C198.374 266.973 198.269 267.41 198.04 267.709C197.514 268.429 196.959 269.02 196.358 269.491C195.756 269.961 195.079 270.184 194.314 270.185C193.734 270.183 193.311 269.933 193.024 269.444C192.758 268.946 192.616 268.236 192.607 267.335C192.392 268.256 192.097 268.976 191.687 269.463C191.278 269.951 190.849 270.214 190.364 270.22C189.832 270.222 189.373 269.941 189.034 269.379L189.042 269.399Z" fill="#D8A745"/>
<path d="M197.246 269.393C197.032 268.851 196.963 267.974 196.958 266.792C196.956 265.029 197.169 263.343 197.606 261.754C197.708 261.366 197.897 261.082 198.145 260.89C198.394 260.699 198.73 260.612 199.195 260.613C199.427 260.614 199.599 260.639 199.699 260.715C199.798 260.792 199.846 260.912 199.849 261.096C199.841 261.309 199.759 261.805 199.577 262.574C199.463 263.106 199.353 263.591 199.288 264.011C199.215 264.411 199.161 264.92 199.119 265.517C199.511 264.34 199.95 263.4 200.449 262.669C200.947 261.937 201.437 261.418 201.91 261.091C202.392 260.784 202.832 260.609 203.229 260.614C204.013 260.605 204.42 261.047 204.421 261.928C204.423 262.461 204.292 263.418 204.028 264.8C203.8 265.981 203.694 266.766 203.701 267.134C203.703 267.667 203.882 267.944 204.23 267.945C204.462 267.946 204.767 267.779 205.096 267.44C205.426 267.1 205.867 266.577 206.426 265.821C206.567 265.649 206.731 265.538 206.915 265.534C207.079 265.539 207.199 265.607 207.291 265.78C207.374 265.933 207.441 266.161 207.437 266.442C207.439 266.974 207.333 267.411 207.104 267.711C206.578 268.43 206.024 269.021 205.422 269.492C204.82 269.963 204.143 270.185 203.379 270.186C202.759 270.2 202.283 269.994 201.98 269.581C201.657 269.175 201.503 268.61 201.501 267.844C201.494 267.476 201.573 266.795 201.736 265.802C201.886 264.953 201.968 264.34 201.965 264.04C201.974 263.828 201.906 263.715 201.762 263.703C201.598 263.698 201.385 263.922 201.104 264.382C200.822 264.841 200.528 265.445 200.242 266.186C199.955 266.926 199.713 267.718 199.534 268.555C199.392 269.192 199.259 269.616 199.074 269.852C198.909 270.08 198.629 270.191 198.252 270.178C197.788 270.176 197.473 269.907 197.278 269.357L197.246 269.393Z" fill="#D8A745"/>
<path d="M206.351 269.263C205.921 268.645 205.699 267.851 205.698 266.853C205.686 265.767 205.901 264.73 206.352 263.762C206.804 262.794 207.394 262.003 208.133 261.408C208.871 260.814 209.66 260.524 210.513 260.511C210.793 260.516 210.953 260.568 211.04 260.673C211.136 260.797 211.215 260.998 211.287 261.295C211.515 261.227 211.767 261.22 212.039 261.205C212.319 261.21 212.555 261.279 212.715 261.447C212.874 261.616 212.942 261.845 212.945 262.145C212.948 262.446 212.89 263.002 212.776 263.767C212.645 264.608 212.538 265.393 212.464 266.142C212.39 266.891 212.355 267.74 212.36 268.69C212.354 269.203 212.273 269.583 212.08 269.799C211.888 270.014 211.587 270.134 211.171 270.136C210.755 270.139 210.455 270.026 210.252 269.805C210.048 269.584 209.945 269.207 209.939 268.722L209.948 268.394C209.576 269.562 208.926 270.145 208.005 270.162C207.309 270.16 206.754 269.869 206.323 269.251L206.351 269.263ZM209.663 267.323C209.941 266.795 210.188 265.838 210.392 264.481L210.735 262.419C210.23 262.433 209.786 262.656 209.364 263.055C208.951 263.474 208.605 264.006 208.342 264.69C208.08 265.375 207.97 266.091 207.972 266.857C207.966 267.253 208.045 267.57 208.173 267.775C208.3 267.979 208.504 268.084 208.736 268.085C209.084 268.086 209.397 267.823 209.667 267.275L209.663 267.323Z" fill="#D8A745"/>
<path d="M183.059 294.098C183.059 294.098 186.927 303.634 199.486 305.731C201.078 306.004 202.807 306.154 204.684 306.152C221.396 306.091 230.406 293.953 230.406 293.953C230.406 293.953 221.323 281.844 204.611 281.905C202.734 281.907 201.017 282.078 199.415 282.365C186.874 284.532 183.066 294.118 183.066 294.118L183.059 294.098Z" fill="#E5A67C"/>
<path d="M227.525 293.936L235.607 302.171L235.585 293.918L235.563 285.665L227.525 293.936Z" fill="#E5A67C"/>
<path d="M183.059 294.098C183.059 294.098 186.927 303.634 199.486 305.731C201.794 302.425 203.139 298.387 203.129 294.028C203.118 289.669 201.734 285.646 199.407 282.345C186.866 284.512 183.059 294.098 183.059 294.098Z" fill="#F4C19F"/>
<path d="M188.514 291.308C188.508 292.053 189.114 292.648 189.858 292.654C190.595 292.641 191.197 292.054 191.195 291.288C191.182 290.551 190.595 289.948 189.851 289.942C189.114 289.956 188.512 290.543 188.526 291.28L188.514 291.308Z" fill="#E5A67C"/>
<path d="M202.374 288.317C197.22 288.063 196.783 290.999 196.583 294.652C196.404 298.297 196.523 301.29 201.685 301.563C206.846 301.837 208.432 298.933 208.611 295.288C208.791 291.643 207.508 288.578 202.354 288.324L202.374 288.317Z" fill="#F4C19F"/>
<path d="M148.163 286.493L120.901 286.581L120.978 309.385L148.24 309.298L148.163 286.493Z" fill="#E2DED0"/>
<path d="M123.847 289.825L134.084 289.792C134.321 289.792 134.537 289.985 134.538 290.244L134.54 290.697C134.54 290.934 134.347 291.151 134.089 291.152L123.852 291.184C123.615 291.185 123.42 290.992 123.419 290.754L123.418 290.301C123.417 290.064 123.61 289.869 123.847 289.868L123.847 289.825Z" fill="#6A9B53"/>
<path d="M134.045 294.487L124 294.526C123.864 294.534 123.768 294.409 123.761 294.273C123.753 294.137 123.87 294.021 123.986 294.021L134.031 293.982C134.167 293.974 134.263 294.099 134.27 294.235C134.258 294.379 134.161 294.487 134.045 294.487Z" fill="#6A9B53"/>
<path d="M134.064 296.289L124.019 296.329C123.902 296.328 123.787 296.212 123.779 296.076C123.772 295.939 123.888 295.823 124.004 295.824L134.049 295.785C134.165 295.785 134.281 295.902 134.289 296.038C134.296 296.174 134.18 296.29 134.064 296.289Z" fill="#6A9B53"/>
<path d="M134.074 298.072L124.029 298.111C123.913 298.111 123.797 297.994 123.79 297.858C123.782 297.722 123.899 297.606 124.015 297.607L134.06 297.567C134.176 297.568 134.291 297.684 134.299 297.821C134.307 297.957 134.19 298.073 134.074 298.072Z" fill="#6A9B53"/>
<path d="M134.064 299.864L124.019 299.903C123.883 299.911 123.788 299.786 123.78 299.65C123.773 299.514 123.889 299.398 124.005 299.398L134.03 299.367C134.166 299.359 134.262 299.484 134.269 299.62C134.277 299.756 134.16 299.872 134.044 299.872L134.064 299.864Z" fill="#6A9B53"/>
<path d="M134.083 301.667L124.058 301.698C123.922 301.705 123.826 301.581 123.818 301.445C123.831 301.3 123.927 301.193 124.043 301.193L134.088 301.154C134.224 301.146 134.32 301.271 134.328 301.407C134.335 301.543 134.219 301.659 134.103 301.659L134.083 301.667Z" fill="#6A9B53"/>
<path d="M134.093 303.449L124.048 303.488C123.912 303.496 123.816 303.371 123.809 303.235C123.821 303.091 123.918 302.983 124.034 302.984L134.079 302.944C134.195 302.945 134.311 303.061 134.318 303.197C134.326 303.334 134.209 303.45 134.093 303.449Z" fill="#6A9B53"/>
<path d="M134.084 305.24L124.039 305.279C123.903 305.287 123.807 305.162 123.799 305.026C123.792 304.89 123.908 304.774 124.024 304.775L134.069 304.735C134.185 304.736 134.301 304.852 134.309 304.989C134.316 305.125 134.2 305.241 134.084 305.24Z" fill="#6A9B53"/>
<path d="M134.094 307.023L124.049 307.062C123.933 307.062 123.817 306.945 123.81 306.809C123.802 306.673 123.919 306.557 124.035 306.557L134.08 306.518C134.196 306.518 134.312 306.635 134.319 306.771C134.327 306.907 134.21 307.023 134.094 307.023Z" fill="#6A9B53"/>
<path d="M144.826 294.55L143.277 294.561C143.113 294.557 142.982 294.4 142.978 294.216C142.975 294.031 143.123 293.88 143.28 293.864L144.828 293.853C144.992 293.858 145.124 294.014 145.127 294.199C145.131 294.383 144.982 294.535 144.826 294.55Z" fill="#6A9B53"/>
<path d="M144.817 296.341L143.268 296.352C143.104 296.347 142.972 296.191 142.969 296.006C142.965 295.822 143.114 295.67 143.27 295.655L144.819 295.644C144.983 295.648 145.115 295.805 145.118 295.989C145.121 296.174 144.973 296.325 144.817 296.341Z" fill="#6A9B53"/>
<path d="M144.827 298.124L143.278 298.135C143.114 298.13 142.963 297.981 142.979 297.789C142.976 297.605 143.117 297.433 143.281 297.438L144.829 297.427C144.993 297.431 145.145 297.58 145.128 297.772C145.132 297.956 144.983 298.108 144.819 298.104L144.827 298.124Z" fill="#6A9B53"/>
<path d="M144.838 299.907L143.289 299.918C143.125 299.913 142.973 299.764 142.99 299.572C142.986 299.388 143.135 299.236 143.291 299.221L144.84 299.21C145.004 299.214 145.155 299.363 145.139 299.555C145.142 299.74 144.994 299.891 144.83 299.887L144.838 299.907Z" fill="#6A9B53"/>
<path d="M144.836 301.717L143.287 301.728C143.123 301.724 142.992 301.567 142.988 301.383C142.985 301.198 143.133 301.047 143.289 301.031L144.838 301.02C145.002 301.025 145.134 301.181 145.137 301.366C145.141 301.55 144.992 301.702 144.836 301.717Z" fill="#6A9B53"/>
<path d="M144.846 303.501L143.298 303.511C143.134 303.507 143.002 303.35 142.999 303.166C142.995 302.982 143.144 302.83 143.3 302.814L144.849 302.803C145.013 302.808 145.164 302.957 145.148 303.149C145.151 303.333 145.003 303.485 144.846 303.501Z" fill="#6A9B53"/>
<path d="M144.857 305.283L143.308 305.294C143.144 305.29 142.992 305.141 143.009 304.949C143.006 304.764 143.154 304.613 143.31 304.597L144.859 304.586C145.023 304.591 145.175 304.739 145.158 304.932C145.162 305.116 145.013 305.268 144.857 305.283Z" fill="#6A9B53"/>
<path d="M144.847 307.074L143.299 307.085C143.135 307.081 143.003 306.924 142.999 306.74C142.996 306.555 143.145 306.404 143.301 306.388L144.849 306.377C145.014 306.382 145.165 306.53 145.149 306.723C145.152 306.907 145.003 307.059 144.847 307.074Z" fill="#6A9B53"/>
<path d="M114.679 231.206L114.66 225.812C114.657 224.949 115.366 224.235 116.228 224.232L249.392 223.78C250.254 223.778 250.967 224.487 250.97 225.35L250.989 230.744C250.992 231.607 250.284 232.321 249.422 232.324L116.236 232.776C115.374 232.779 114.661 232.069 114.658 231.206L114.679 231.206Z" fill="#D8E9EF"/>
<path d="M261.27 315.757L261.289 321.133C261.29 322.015 260.592 322.71 259.731 322.703L106.626 323.187C105.746 323.188 105.052 322.489 105.058 321.628L105.039 316.251C105.038 315.37 105.736 314.675 106.597 314.682L259.702 314.197C260.554 314.184 261.276 314.895 261.27 315.757Z" fill="#D8E9EF"/>
<g style="mix-blend-mode:overlay" opacity="0.5">
<path d="M143.808 228.393C143.82 229.711 139.846 230.8 134.912 230.808C130.005 230.828 126.015 229.765 126.003 228.447C125.991 227.129 129.984 226.032 134.899 226.032C139.805 226.012 143.796 227.075 143.808 228.393Z" fill="#EDF4F4"/>
</g>
<g style="mix-blend-mode:overlay" opacity="0.5">
<path d="M153.204 228.356C153.218 229.209 151.775 229.897 150.014 229.9C148.253 229.902 146.823 229.216 146.817 228.383C146.804 227.529 148.247 226.841 150.008 226.839C151.769 226.836 153.199 227.522 153.184 228.364L153.204 228.356Z" fill="#EDF4F4"/>
</g>
<g style="mix-blend-mode:overlay" opacity="0.5">
<path d="M150.11 318.61C150.114 320.024 142.078 321.216 132.141 321.236C122.212 321.275 114.156 320.131 114.152 318.717C114.148 317.303 122.184 316.111 132.121 316.091C142.05 316.052 150.106 317.196 150.11 318.61Z" fill="#EDF4F4"/>
</g>
<g style="mix-blend-mode:overlay" opacity="0.5">
<path d="M163.561 318.566C163.566 319.516 161.595 320.274 159.145 320.294C156.716 320.307 154.721 319.543 154.716 318.593C154.711 317.644 156.683 316.885 159.132 316.865C161.561 316.853 163.556 317.617 163.553 318.546L163.561 318.566Z" fill="#EDF4F4"/>
</g>
<g style="mix-blend-mode:multiply" opacity="0.5">
<path d="M247.891 232.315L247.893 234.078L220.452 234.149L220.293 232.401L247.891 232.315Z" fill="#ADADAD"/>
</g>
<g style="mix-blend-mode:multiply" opacity="0.5">
<path d="M250.998 225.35L251.017 230.727C251.031 231.58 250.32 232.303 249.46 232.296L220.293 232.401C224.977 228.13 220.371 223.876 220.371 223.876L249.43 223.791C250.283 223.778 251.005 224.489 250.998 225.35Z" fill="#ADADAD"/>
</g>
<g style="mix-blend-mode:multiply" opacity="0.5">
<path d="M257.689 314.206L228.118 314.286L220.452 234.149L247.893 234.078L253.525 280.094L257.689 314.206Z" fill="#ADADAD"/>
</g>
<g style="mix-blend-mode:multiply" opacity="0.5">
<path d="M259.682 314.205L257.689 314.206L228.098 314.294C228.098 314.294 230.174 315.791 230.258 318.52C230.318 319.726 229.973 321.139 228.932 322.782L259.703 322.691C260.556 322.677 261.262 322.003 261.261 321.121L261.242 315.744C261.24 314.863 260.526 314.172 259.674 314.185L259.682 314.205Z" fill="#ADADAD"/>
</g>
</svg>
