<svg width="588" height="65" viewBox="0 0 588 65" fill="none" xmlns="http://www.w3.org/2000/svg">
<path d="M338.129 9.14578L337.484 10.79L380.441 27.642L381.086 25.9978L338.129 9.14578Z" fill="#B2D692"/>
<path d="M372.85 56.7969L323.272 37.3376L330.016 24.775L337.509 10.7979L380.465 27.6576L376.314 43.5538L372.85 56.7969Z" fill="#6A9B53"/>
<path d="M354.063 17.2902C350.202 23.1395 342.9 29.1188 330.016 24.7758L337.517 10.791L354.063 17.2826V17.2902Z" fill="#E2DED0"/>
<path d="M372.85 56.797L357.603 50.8101C357.688 49.8849 357.902 48.9598 358.253 48.0575C360.494 42.3611 367.459 39.7615 373.813 42.2617C374.708 42.6135 375.541 43.0416 376.306 43.5539L372.85 56.797Z" fill="#E2DED0"/>
<path d="M374.555 34.509C373.454 37.3075 367.842 37.7204 362.015 35.4266C356.189 33.1404 352.351 29.0191 353.452 26.2206C354.553 23.4221 360.165 23.0093 365.991 25.2954C371.818 27.5816 375.648 31.7029 374.555 34.5014V34.509Z" fill="#B2D692"/>
<path d="M363.881 23.2074C363.919 23.2991 363.919 23.3909 363.881 23.475C363.82 23.6203 363.743 23.7197 363.644 23.7503C363.545 23.7885 363.415 23.7732 363.262 23.6891C362.918 23.5132 362.642 23.3832 362.443 23.2915C362.245 23.1997 361.985 23.0927 361.656 22.9551C361.182 23.7197 360.723 24.4996 360.272 25.2871C360.104 25.5777 359.92 25.9065 359.714 26.2888C359.507 26.6711 359.354 26.9846 359.24 27.2216C359.179 27.3516 359.094 27.428 358.98 27.4586C358.865 27.4969 358.743 27.4892 358.62 27.4357C358.49 27.3822 358.399 27.3057 358.36 27.2063C358.315 27.1069 358.315 26.9999 358.36 26.8852C358.406 26.7781 358.49 26.6023 358.613 26.3652C358.743 26.1282 358.88 25.8835 359.026 25.6236C359.179 25.3636 359.301 25.1418 359.408 24.9507C359.584 24.6296 359.767 24.3084 359.958 23.9949C360.15 23.6814 360.325 23.3832 360.501 23.108C360.54 23.0468 360.585 22.978 360.631 22.8939C360.685 22.8098 360.738 22.7257 360.8 22.6186C360.402 22.481 360.081 22.3969 359.836 22.3663C359.591 22.3357 359.4 22.3587 359.263 22.4275C359.125 22.4963 359.026 22.611 358.964 22.7792C358.903 22.9321 358.888 23.0927 358.911 23.2609C358.911 23.2991 358.911 23.3374 358.896 23.3679C358.865 23.4521 358.789 23.5132 358.666 23.5515C358.544 23.5897 358.437 23.5897 358.345 23.5515C358.276 23.5285 358.23 23.4826 358.2 23.4215C358.154 23.3144 358.123 23.1768 358.131 23.0162C358.131 22.8557 358.169 22.6874 358.238 22.5039C358.391 22.1216 358.62 21.8617 358.934 21.7164C359.247 21.5711 359.653 21.5405 360.15 21.6093C360.647 21.6782 361.251 21.854 361.962 22.1369C362.405 22.3128 362.749 22.4581 363.002 22.5804C363.254 22.7027 363.476 22.8174 363.652 22.9398C363.766 23.0162 363.843 23.1003 363.873 23.1921L363.881 23.2074Z" fill="#D8A745"/>
<path d="M363.705 27.7795C363.713 27.8483 363.705 27.9248 363.659 28.0165C363.59 28.2 363.498 28.3224 363.384 28.3912C363.154 28.5365 362.879 28.6359 362.535 28.7047C362.199 28.7735 361.877 28.7429 361.564 28.6206C361.143 28.4524 360.868 28.2 360.738 27.856C360.608 27.5119 360.631 27.1143 360.799 26.6708C360.922 26.365 361.09 26.0974 361.312 25.8756C361.533 25.6539 361.778 25.5086 362.046 25.4321C362.313 25.3557 362.581 25.371 362.841 25.4704C363.07 25.5621 363.231 25.7074 363.307 25.9215C363.384 26.1279 363.376 26.365 363.269 26.6326C363.147 26.9461 362.948 27.1678 362.657 27.3131C362.374 27.4584 361.969 27.5042 361.449 27.4431C361.465 27.6878 361.617 27.8636 361.9 27.9783C362.076 28.0471 362.313 28.0548 362.596 28.0089C362.879 27.9554 363.154 27.8483 363.407 27.6878C363.483 27.6419 363.544 27.6342 363.605 27.6572C363.659 27.6801 363.69 27.7183 363.697 27.7872L363.705 27.7795ZM361.992 26.2273C361.816 26.3803 361.671 26.5944 361.564 26.8696V26.8849C361.816 26.9155 362.038 26.8926 362.229 26.8237C362.413 26.7549 362.543 26.6326 362.604 26.4644C362.642 26.3803 362.642 26.3038 362.619 26.235C362.596 26.1662 362.55 26.1203 362.481 26.0897C362.336 26.0285 362.168 26.0744 361.992 26.2273Z" fill="#D8A745"/>
<path d="M362.902 28.828C362.91 28.6292 362.994 28.3233 363.147 27.9334C363.376 27.3523 363.667 26.8247 364.018 26.3583C364.103 26.2436 364.202 26.1671 364.309 26.1442C364.416 26.1136 364.538 26.1289 364.691 26.1901C364.775 26.2207 364.821 26.2512 364.844 26.2895C364.867 26.3277 364.867 26.3736 364.844 26.4348C364.814 26.5036 364.722 26.6565 364.561 26.8859C364.454 27.0464 364.355 27.1917 364.278 27.3141C364.202 27.4364 364.118 27.597 364.018 27.7881C364.301 27.4517 364.577 27.1994 364.837 27.0235C365.097 26.8476 365.326 26.7406 365.525 26.6947C365.724 26.6565 365.892 26.6641 366.022 26.71C366.282 26.8094 366.358 27.0082 366.243 27.2988C366.175 27.4746 366.006 27.7728 365.739 28.1934C365.509 28.5527 365.372 28.7974 365.326 28.9197C365.257 29.0956 365.28 29.2103 365.395 29.2562C365.471 29.2868 365.594 29.2715 365.746 29.2026C365.899 29.1338 366.113 29.0191 366.396 28.8433C366.465 28.7974 366.534 28.7898 366.595 28.8127C366.649 28.8356 366.679 28.8739 366.687 28.9427C366.695 29.0115 366.687 29.088 366.641 29.1797C366.572 29.3632 366.48 29.4856 366.366 29.5544C366.098 29.7226 365.838 29.8449 365.578 29.9214C365.318 29.9978 365.066 29.9826 364.814 29.8832C364.607 29.8067 364.485 29.6767 364.431 29.5008C364.378 29.325 364.401 29.1185 364.5 28.8662C364.546 28.7362 364.668 28.5298 364.852 28.2239C365.012 27.964 365.119 27.7805 365.158 27.6734C365.188 27.6046 365.181 27.5587 365.135 27.5358C365.081 27.5129 364.982 27.5664 364.829 27.6734C364.676 27.7881 364.5 27.9487 364.309 28.1551C364.118 28.3616 363.934 28.591 363.766 28.8433C363.636 29.0344 363.529 29.1568 363.445 29.2103C363.361 29.2638 363.254 29.2638 363.131 29.2103C362.979 29.1491 362.91 29.0191 362.917 28.8127L362.902 28.828Z" fill="#D8A745"/>
<path d="M368.216 30.7157C368.216 30.7769 368.193 30.8457 368.17 30.9069C368.094 31.1057 367.941 31.1668 367.719 31.0827C367.597 31.0368 367.513 30.9604 367.482 30.861C367.444 30.7616 367.444 30.5934 367.467 30.3563V30.3258C367.237 30.4787 367.046 30.5628 366.893 30.5857C366.74 30.6087 366.588 30.5857 366.427 30.5246C366.182 30.4328 366.022 30.2493 365.945 29.9817C365.869 29.7141 365.892 29.4159 366.022 29.0947C366.159 28.7354 366.358 28.4295 366.618 28.1772C366.878 27.9249 367.161 27.749 367.475 27.6496C367.788 27.5426 368.094 27.5349 368.407 27.6037C368.813 26.7856 369.248 26.1051 369.707 25.5622C370.166 25.0193 370.571 24.8205 370.931 24.9582C371.106 25.027 371.213 25.1646 371.259 25.3864C371.305 25.6081 371.259 25.891 371.122 26.2504C370.931 26.7397 370.594 27.275 370.12 27.8484C369.646 28.4219 369.095 28.9877 368.461 29.5459C368.361 29.9282 368.285 30.3181 368.224 30.7081L368.216 30.7157ZM367.176 29.9205C367.276 29.8823 367.421 29.7905 367.612 29.6453C367.704 29.3012 367.811 28.9571 367.949 28.6054C368.002 28.4677 368.048 28.3607 368.079 28.2842C367.826 28.2689 367.582 28.3607 367.337 28.5595C367.092 28.7583 366.909 29.0106 366.786 29.3241C366.656 29.6529 366.695 29.8517 366.893 29.9358C366.97 29.9664 367.062 29.9664 367.169 29.9282L367.176 29.9205ZM369.883 26.4568C369.524 27.0762 369.172 27.772 368.828 28.5366C369.692 27.6343 370.258 26.8468 370.525 26.1739C370.594 26.0057 370.632 25.8681 370.64 25.761C370.655 25.654 370.64 25.6005 370.602 25.5852C370.487 25.5393 370.242 25.8298 369.883 26.4492V26.4568Z" fill="#D8A745"/>
<path d="M371.993 31.0373C371.993 31.1061 371.993 31.1826 371.948 31.2743C371.879 31.4579 371.787 31.5802 371.672 31.649C371.443 31.7943 371.16 31.8937 370.824 31.9625C370.487 32.0313 370.166 32.0007 369.852 31.8784C369.432 31.7102 369.157 31.4579 369.027 31.1138C368.897 30.7697 368.912 30.3721 369.088 29.9286C369.21 29.6228 369.378 29.3552 369.6 29.1334C369.822 28.9117 370.067 28.7664 370.334 28.69C370.602 28.6135 370.869 28.6288 371.129 28.7282C371.359 28.8199 371.519 28.9652 371.596 29.1793C371.672 29.3858 371.665 29.6304 371.558 29.8904C371.435 30.2039 371.236 30.4256 370.946 30.5709C370.663 30.7162 370.258 30.7621 369.73 30.7009C369.753 30.9456 369.898 31.1291 370.181 31.2361C370.365 31.3049 370.594 31.3126 370.877 31.2667C371.16 31.2132 371.435 31.1061 371.688 30.9456C371.764 30.8997 371.825 30.892 371.886 30.915C371.94 30.9379 371.97 30.9761 371.978 31.045L371.993 31.0373ZM370.281 29.4852C370.105 29.6381 369.96 29.8522 369.852 30.1274V30.1427C370.105 30.1733 370.327 30.1504 370.518 30.0816C370.701 30.0127 370.831 29.8904 370.892 29.7222C370.923 29.6381 370.931 29.5616 370.908 29.4928C370.885 29.424 370.839 29.3781 370.77 29.3475C370.625 29.2864 370.457 29.3322 370.281 29.4852Z" fill="#D8A745"/>
<path d="M374.471 31.213C374.509 31.3048 374.501 31.4042 374.463 31.5036C374.44 31.5647 374.402 31.6182 374.356 31.6794C374.226 31.817 374.081 31.9241 373.92 31.9853C373.76 32.0541 373.614 32.0617 373.469 32.0006C373.354 31.9547 373.278 31.8782 373.24 31.7559C373.202 31.6335 373.209 31.4959 373.263 31.343C373.293 31.2589 373.339 31.1671 373.385 31.0754C373.423 31.0066 373.446 30.9607 373.454 30.9301C373.469 30.8919 373.469 30.8613 373.462 30.8383C373.462 30.8154 373.446 30.8001 373.423 30.7925C373.37 30.7695 373.263 30.8154 373.11 30.9301C372.957 31.0448 372.781 31.2054 372.59 31.4118C372.399 31.6182 372.215 31.8476 372.047 32.1C371.917 32.2987 371.81 32.4211 371.726 32.4746C371.642 32.5281 371.535 32.5205 371.405 32.4746C371.252 32.4134 371.183 32.2835 371.191 32.077C371.198 31.8782 371.282 31.5724 371.435 31.1824C371.665 30.6013 371.955 30.0737 372.307 29.6073C372.391 29.4926 372.49 29.4162 372.598 29.3932C372.705 29.3626 372.827 29.3779 372.98 29.4391C373.056 29.4697 373.11 29.5003 373.133 29.5385C373.156 29.5767 373.156 29.6226 373.133 29.6838C373.102 29.7526 373.01 29.9055 372.85 30.1349C372.743 30.2955 372.643 30.4407 372.567 30.5707C372.49 30.7007 372.406 30.8536 372.315 31.0448C372.598 30.7084 372.873 30.456 373.125 30.2802C373.385 30.1043 373.614 29.9973 373.806 29.9514C374.004 29.9132 374.165 29.9132 374.295 29.9667C374.41 30.0126 374.486 30.0814 374.517 30.1808C374.547 30.2802 374.54 30.4025 374.478 30.5401C374.448 30.6242 374.364 30.7772 374.226 30.9989L374.28 31.0218C374.371 31.0601 374.433 31.1212 374.463 31.213H374.471Z" fill="#D8A745"/>
<path d="M359.14 26.5562C359.201 26.6709 359.209 26.8009 359.14 26.9538C359.094 27.0762 359.026 27.1526 358.934 27.1756C358.842 27.1985 358.72 27.1756 358.559 27.1068C358.391 27.0379 358.131 26.9309 357.764 26.778L357.359 26.6098C356.808 27.512 356.342 28.2843 355.975 28.9342C355.799 29.24 355.608 29.5841 355.409 29.9664C355.21 30.3411 355.05 30.6469 354.943 30.8763C354.881 31.0063 354.797 31.0827 354.675 31.121C354.553 31.1516 354.43 31.1439 354.3 31.0904C354.186 31.0445 354.109 30.9681 354.071 30.8687C354.033 30.7693 354.04 30.6622 354.086 30.5399C354.14 30.3946 354.247 30.1882 354.4 29.9052C354.553 29.63 354.767 29.2553 355.034 28.7889L355.126 28.6207C355.501 27.9631 355.952 27.1909 356.495 26.2886C356.128 26.1586 355.753 26.0363 355.378 25.9293C355.057 25.8375 354.95 25.654 355.057 25.394C355.103 25.2793 355.172 25.1952 355.264 25.1417C355.355 25.0882 355.47 25.0729 355.6 25.1035C356.097 25.2182 356.632 25.394 357.198 25.6158L357.978 25.9216C358.36 26.0745 358.62 26.1816 358.75 26.2504C358.934 26.3422 359.064 26.4492 359.125 26.5562H359.14Z" fill="#D8A745"/>
<path d="M356.441 31.6029C356.403 31.3735 356.441 31.1212 356.548 30.8383C356.678 30.5018 356.823 30.2036 356.969 29.936C357.122 29.6684 357.297 29.4008 357.519 29.1179C357.611 29.0032 357.703 28.9267 357.802 28.8962C357.894 28.8656 358.024 28.8809 358.177 28.942C358.268 28.9726 358.322 29.0108 358.337 29.0567C358.36 29.1026 358.36 29.1561 358.337 29.2173C358.322 29.2555 358.253 29.3702 358.131 29.5537C358.024 29.7066 357.932 29.8443 357.856 29.9666C357.588 30.4024 357.427 30.7083 357.366 30.8612C357.328 30.953 357.313 31.0218 357.32 31.0677C357.32 31.1135 357.351 31.1441 357.389 31.1594C357.45 31.1823 357.55 31.1441 357.695 31.0447C357.84 30.9453 358.016 30.7771 358.223 30.5477C358.429 30.3107 358.666 30.0201 358.918 29.6531C359.002 29.5308 359.087 29.4543 359.178 29.4237C359.27 29.3932 359.377 29.4008 359.507 29.4543C359.599 29.4926 359.66 29.5308 359.683 29.569C359.714 29.6072 359.714 29.6608 359.683 29.7296C359.637 29.8443 359.469 30.1272 359.171 30.5936C358.834 31.1212 358.635 31.4576 358.59 31.5876C358.559 31.6717 358.544 31.7482 358.559 31.8017C358.574 31.8629 358.605 31.9011 358.658 31.924C358.735 31.9546 358.857 31.9393 359.01 31.8705C359.163 31.8017 359.377 31.687 359.66 31.5111C359.729 31.4729 359.798 31.4576 359.859 31.4805C359.912 31.5035 359.943 31.5417 359.951 31.6105C359.958 31.6717 359.951 31.7558 359.905 31.8476C359.836 32.0234 359.744 32.1534 359.629 32.2222C359.362 32.3904 359.102 32.5128 358.842 32.5892C358.582 32.6657 358.33 32.6504 358.077 32.551C357.886 32.4745 357.779 32.3369 357.749 32.1381C357.726 31.9393 357.771 31.687 357.886 31.3888C357.695 31.6641 357.504 31.8628 357.305 31.9699C357.106 32.0769 356.93 32.1075 356.77 32.0464C356.594 31.9775 356.479 31.8246 356.441 31.5952V31.6029Z" fill="#D8A745"/>
<path d="M359.148 32.6727C359.148 32.4663 359.24 32.1681 359.393 31.7781C359.622 31.197 359.912 30.6694 360.264 30.203C360.348 30.0883 360.448 30.0195 360.555 29.9889C360.662 29.9583 360.784 29.9736 360.937 30.0348C361.014 30.0654 361.067 30.096 361.09 30.1342C361.113 30.1724 361.113 30.2183 361.09 30.2795C361.059 30.3483 360.968 30.5012 360.807 30.7306C360.7 30.8912 360.601 31.0364 360.524 31.1664C360.448 31.2888 360.364 31.4493 360.272 31.6405C360.555 31.3041 360.822 31.0517 361.082 30.8759C361.342 30.7 361.572 30.593 361.771 30.5471C361.969 30.5089 362.138 30.5089 362.267 30.5624C362.527 30.6618 362.604 30.8606 362.489 31.1511C362.42 31.327 362.252 31.6252 361.985 32.0457C361.755 32.4051 361.618 32.6498 361.572 32.7721C361.503 32.948 361.526 33.0627 361.641 33.1085C361.717 33.1391 361.839 33.1238 361.992 33.055C362.145 32.9862 362.359 32.8715 362.642 32.6957C362.711 32.6574 362.78 32.6421 362.841 32.6651C362.894 32.688 362.925 32.7262 362.933 32.7951C362.94 32.8562 362.933 32.9403 362.894 33.0321C362.826 33.2079 362.734 33.3379 362.619 33.4067C362.352 33.575 362.092 33.6973 361.832 33.7738C361.572 33.8502 361.319 33.8349 361.067 33.7355C360.861 33.6591 360.731 33.5291 360.685 33.3532C360.631 33.1774 360.654 32.9709 360.754 32.7186C360.799 32.5963 360.914 32.3822 361.098 32.0763C361.258 31.8163 361.365 31.6252 361.404 31.5258C361.434 31.457 361.426 31.4111 361.381 31.3882C361.327 31.3652 361.228 31.4111 361.075 31.5258C360.922 31.6405 360.746 31.8011 360.555 32.0075C360.364 32.2139 360.18 32.4433 360.012 32.6957C359.882 32.8868 359.783 33.0091 359.691 33.0627C359.607 33.1162 359.5 33.1162 359.377 33.0627C359.224 33.0015 359.156 32.8715 359.163 32.6651L359.148 32.6727Z" fill="#D8A745"/>
<path d="M362.168 33.8205C362.107 33.5606 362.138 33.27 362.268 32.9412C362.405 32.5819 362.612 32.2684 362.887 32.0084C363.162 31.7484 363.46 31.5649 363.781 31.4655C364.103 31.3661 364.401 31.3738 364.684 31.4808C364.775 31.519 364.821 31.5573 364.837 31.6031C364.852 31.6567 364.852 31.7331 364.837 31.8402C364.921 31.8478 365.005 31.8784 365.097 31.909C365.188 31.9472 365.257 32.0007 365.288 32.0772C365.318 32.1537 365.311 32.2378 365.272 32.3372C365.234 32.4366 365.142 32.6124 365.005 32.8495C364.852 33.1094 364.714 33.3541 364.592 33.5911C364.47 33.8282 364.347 34.1034 364.225 34.4169C364.156 34.5851 364.08 34.6998 363.988 34.7457C363.896 34.7916 363.781 34.7916 363.644 34.7381C363.506 34.6845 363.422 34.6081 363.384 34.5087C363.346 34.4093 363.361 34.2716 363.422 34.1111L363.468 34.004C363.193 34.3405 362.902 34.4475 362.596 34.3328C362.367 34.2411 362.222 34.0728 362.16 33.8129L362.168 33.8205ZM363.514 33.6141C363.674 33.4764 363.881 33.1935 364.126 32.773L364.508 32.1384C364.34 32.0772 364.164 32.0925 363.973 32.169C363.781 32.2531 363.598 32.3831 363.422 32.5742C363.246 32.7654 363.116 32.9871 363.017 33.2394C362.963 33.3694 362.948 33.4841 362.963 33.5682C362.979 33.6523 363.032 33.7135 363.109 33.7441C363.223 33.7899 363.361 33.7441 363.521 33.5988L363.514 33.6141Z" fill="#D8A745"/>
<path d="M351.242 38.9595C351.242 38.9595 351.273 42.6067 355.141 44.9388C355.631 45.237 356.181 45.5123 356.801 45.7569C362.321 47.9208 366.878 45.0994 366.878 45.0994C366.878 45.0994 365.464 39.923 359.943 37.7591C359.324 37.5144 358.735 37.3462 358.169 37.2315C353.75 36.3063 351.242 38.9672 351.242 38.9672V38.9595Z" fill="#E5A67C"/>
<path d="M365.93 44.7165L367.521 48.486L368.591 45.764L369.661 43.042L365.93 44.7165Z" fill="#E5A67C"/>
<path d="M351.242 38.9604C351.242 38.9604 351.273 42.6076 355.141 44.9396C356.334 44.1521 357.305 42.9975 357.871 41.56C358.437 40.1226 358.506 38.6163 358.169 37.2247C353.75 36.2995 351.242 38.9604 351.242 38.9604Z" fill="#F4C19F"/>
<path d="M353.406 38.753C353.306 38.9977 353.429 39.273 353.673 39.3724C353.918 39.4641 354.193 39.3494 354.293 39.0971C354.384 38.8524 354.27 38.5772 354.025 38.4778C353.78 38.386 353.505 38.5007 353.413 38.7454L353.406 38.753Z" fill="#E5A67C"/>
<path d="M358.368 39.5789C356.701 38.8219 356.174 39.7318 355.631 40.9093C355.096 42.0868 354.744 43.0885 356.411 43.8531C358.078 44.6177 358.98 43.8684 359.515 42.6909C360.05 41.5133 360.027 40.3358 358.36 39.5789H358.368Z" fill="#F4C19F"/>
<path d="M340.725 31.8933L331.722 28.3594L328.769 35.8826L337.772 39.4165L340.725 31.8933Z" fill="#E2DED0"/>
<path d="M332.27 29.8137L335.65 31.1407C335.729 31.1714 335.775 31.2634 335.741 31.3488L335.683 31.4983C335.652 31.5766 335.56 31.6226 335.474 31.5891L332.094 30.2621C332.015 30.2314 331.976 30.1422 332.007 30.0639L332.066 29.9144C332.096 29.8361 332.186 29.7972 332.264 29.8279L332.27 29.8137Z" fill="#6A9B53"/>
<path d="M335.025 32.6808L331.706 31.3809C331.66 31.3656 331.645 31.3121 331.66 31.2662C331.676 31.2204 331.729 31.1974 331.767 31.2127L335.086 32.5126C335.132 32.5279 335.147 32.5814 335.132 32.6273C335.109 32.6731 335.063 32.6961 335.025 32.6808Z" fill="#6A9B53"/>
<path d="M334.795 33.2775L331.477 31.9776C331.439 31.9623 331.416 31.9088 331.431 31.8629C331.446 31.8171 331.5 31.7941 331.538 31.8094L334.856 33.1092C334.895 33.1245 334.918 33.1781 334.902 33.2239C334.887 33.2698 334.833 33.2928 334.795 33.2775Z" fill="#6A9B53"/>
<path d="M334.566 33.8663L331.247 32.5665C331.209 32.5512 331.186 32.4977 331.202 32.4518C331.217 32.4059 331.27 32.383 331.309 32.3983L334.627 33.6981C334.665 33.7134 334.688 33.7669 334.673 33.8128C334.658 33.8587 334.604 33.8816 334.566 33.8663Z" fill="#6A9B53"/>
<path d="M334.329 34.4552L331.01 33.1554C330.964 33.1401 330.949 33.0865 330.964 33.0407C330.98 32.9948 331.033 32.9718 331.071 32.9871L334.382 34.287C334.428 34.3023 334.443 34.3558 334.428 34.4017C334.413 34.4475 334.359 34.4705 334.321 34.4552H334.329Z" fill="#6A9B53"/>
<path d="M334.099 35.0519L330.789 33.752C330.743 33.7367 330.727 33.6832 330.743 33.6373C330.766 33.5915 330.811 33.5685 330.85 33.5838L334.168 34.8837C334.214 34.899 334.229 34.9525 334.214 34.9984C334.199 35.0442 334.145 35.0672 334.107 35.0519H334.099Z" fill="#6A9B53"/>
<path d="M333.87 35.6388L330.552 34.3389C330.506 34.3237 330.49 34.2701 330.506 34.2243C330.529 34.1784 330.575 34.1554 330.613 34.1707L333.931 35.4706C333.969 35.4859 333.992 35.5394 333.977 35.5853C333.962 35.6311 333.908 35.6541 333.87 35.6388Z" fill="#6A9B53"/>
<path d="M333.633 36.2286L330.315 34.9288C330.269 34.9135 330.253 34.86 330.269 34.8141C330.284 34.7682 330.338 34.7453 330.376 34.7606L333.694 36.0604C333.732 36.0757 333.755 36.1292 333.74 36.1751C333.725 36.221 333.671 36.2439 333.633 36.2286Z" fill="#6A9B53"/>
<path d="M333.404 36.8175L330.085 35.5177C330.047 35.5024 330.024 35.4488 330.039 35.403C330.055 35.3571 330.108 35.3342 330.146 35.3494L333.465 36.6493C333.503 36.6646 333.526 36.7181 333.511 36.764C333.495 36.8099 333.442 36.8328 333.404 36.8175Z" fill="#6A9B53"/>
<path d="M338.572 34.1108L338.06 33.912C338.006 33.8891 337.983 33.8202 338.006 33.7591C338.029 33.6979 338.098 33.6673 338.152 33.6826L338.664 33.8814C338.717 33.9043 338.74 33.9732 338.717 34.0343C338.695 34.0955 338.626 34.1261 338.572 34.1108Z" fill="#6A9B53"/>
<path d="M338.335 34.6997L337.823 34.5009C337.77 34.4779 337.747 34.4091 337.77 34.3479C337.793 34.2868 337.861 34.2562 337.915 34.2715L338.427 34.4703C338.481 34.4932 338.504 34.562 338.481 34.6232C338.458 34.6844 338.389 34.7149 338.335 34.6997Z" fill="#6A9B53"/>
<path d="M338.106 35.2884L337.594 35.0896C337.54 35.0667 337.509 34.9979 337.54 34.9367C337.563 34.8755 337.632 34.8373 337.685 34.8602L338.198 35.059C338.251 35.082 338.282 35.1508 338.251 35.212C338.228 35.2731 338.159 35.3037 338.106 35.2808V35.2884Z" fill="#6A9B53"/>
<path d="M337.877 35.8764L337.364 35.6776C337.311 35.6547 337.28 35.5859 337.311 35.5247C337.334 35.4635 337.403 35.4329 337.456 35.4482L337.968 35.647C338.022 35.67 338.052 35.7388 338.022 35.8C337.999 35.8611 337.93 35.8917 337.877 35.8688V35.8764Z" fill="#6A9B53"/>
<path d="M337.639 36.4731L337.127 36.2743C337.074 36.2514 337.051 36.1825 337.074 36.1214C337.096 36.0602 337.165 36.0296 337.219 36.0449L337.731 36.2437C337.785 36.2666 337.808 36.3355 337.785 36.3966C337.762 36.4578 337.693 36.4884 337.639 36.4731Z" fill="#6A9B53"/>
<path d="M337.41 37.062L336.898 36.8632C336.844 36.8402 336.821 36.7714 336.844 36.7102C336.867 36.6491 336.936 36.6185 336.989 36.6338L337.502 36.8326C337.555 36.8555 337.586 36.9243 337.555 36.9855C337.532 37.0467 337.464 37.0773 337.41 37.062Z" fill="#6A9B53"/>
<path d="M337.181 37.6508L336.668 37.452C336.615 37.4291 336.584 37.3603 336.615 37.2991C336.638 37.2379 336.707 37.2074 336.76 37.2226L337.273 37.4214C337.326 37.4444 337.357 37.5132 337.326 37.5744C337.303 37.6355 337.234 37.6661 337.181 37.6508Z" fill="#6A9B53"/>
<path d="M336.944 38.2397L336.431 38.0409C336.378 38.018 336.355 37.9491 336.378 37.888C336.401 37.8268 336.47 37.7962 336.523 37.8115L337.035 38.0103C337.089 38.0332 337.12 38.1021 337.089 38.1632C337.066 38.2244 336.997 38.255 336.944 38.2397Z" fill="#6A9B53"/>
<path d="M336.901 9.30153L337.599 7.52203C337.711 7.23731 338.038 7.09456 338.322 7.20625L382.304 24.4604C382.589 24.5721 382.732 24.8991 382.62 25.1838L381.922 26.9633C381.81 27.248 381.483 27.3908 381.199 27.2791L337.209 10.0222C336.925 9.91051 336.782 9.58346 336.894 9.29874L336.901 9.30153Z" fill="#D8E9EF"/>
<path d="M374.211 56.3155L373.515 58.0894C373.4 58.3799 373.079 58.5175 372.796 58.4029L322.233 38.5535C321.942 38.4388 321.804 38.1177 321.919 37.8348L322.615 36.0609C322.73 35.7703 323.051 35.6327 323.334 35.7474L373.897 55.5967C374.18 55.7038 374.326 56.0326 374.211 56.3155Z" fill="#D8E9EF"/>
<g style="mix-blend-mode:overlay" opacity="0.5">
<path d="M346.876 12.1828C346.708 12.6186 345.255 12.4581 343.626 11.8158C342.005 11.1812 340.828 10.3095 340.996 9.87369C341.164 9.43786 342.625 9.59843 344.246 10.2407C345.867 10.8753 347.044 11.747 346.876 12.1828Z" fill="#EDF4F4"/>
</g>
<g style="mix-blend-mode:overlay" opacity="0.5">
<path d="M349.98 13.3979C349.873 13.6808 349.307 13.719 348.726 13.4897C348.145 13.2603 347.763 12.8474 347.87 12.5721C347.977 12.2892 348.543 12.251 349.124 12.4804C349.705 12.7098 350.087 13.1226 349.973 13.3979H349.98Z" fill="#EDF4F4"/>
</g>
<g style="mix-blend-mode:overlay" opacity="0.5">
<path d="M337.173 42.729C336.99 43.1955 334.183 42.5379 330.903 41.2457C327.623 39.9611 325.115 38.5313 325.299 38.0649C325.482 37.5985 328.288 38.2561 331.568 39.5482C334.849 40.8328 337.357 42.2626 337.173 42.729Z" fill="#EDF4F4"/>
</g>
<g style="mix-blend-mode:overlay" opacity="0.5">
<path d="M341.615 44.472C341.493 44.7855 340.744 44.7778 339.933 44.4644C339.13 44.1509 338.572 43.6386 338.695 43.3251C338.817 43.0116 339.566 43.0192 340.377 43.3327C341.18 43.6462 341.738 44.1585 341.615 44.4644V44.472Z" fill="#EDF4F4"/>
</g>
<g style="mix-blend-mode:multiply" opacity="0.5">
<path d="M380.695 27.0764L380.465 27.6575L371.405 24.0944L371.581 23.498L380.695 27.0764Z" fill="#ADADAD"/>
</g>
<g style="mix-blend-mode:multiply" opacity="0.5">
<path d="M382.629 25.1885L381.933 26.9624C381.826 27.2453 381.498 27.3906 381.215 27.2759L371.581 23.4987C373.683 22.7035 372.72 20.7002 372.72 20.7002L382.316 24.4697C382.599 24.5768 382.744 24.9056 382.629 25.1885Z" fill="#ADADAD"/>
</g>
<g style="mix-blend-mode:multiply" opacity="0.5">
<path d="M373.232 55.3378L363.468 51.4994L371.405 24.0957L380.465 27.6588L376.314 43.5551L373.232 55.3378Z" fill="#ADADAD"/>
</g>
<g style="mix-blend-mode:multiply" opacity="0.5">
<path d="M373.89 55.5973L373.232 55.3374L363.46 51.499C363.46 51.499 363.95 52.2636 363.621 53.1735C363.483 53.5788 363.185 53.9993 362.627 54.4045L372.789 58.3958C373.072 58.5029 373.393 58.3729 373.507 58.0823L374.203 56.3084C374.318 56.0179 374.173 55.6967 373.89 55.5897V55.5973Z" fill="#ADADAD"/>
</g>
<path d="M41.8866 29.2437L40.2292 31.631L40.2257 31.6346L27.2485 27.29L15.8089 19.7859L16.6552 17L41.8866 29.2437Z" fill="#CEC7AF"/>
<path d="M25.2314 63.5701L0 51.33L1.66446 48.9355L14.6381 53.2801L26.0848 60.7842L25.2314 63.5701Z" fill="#CEC7AF"/>
<path d="M15.8057 19.7822L1.66174 48.9365L26.0791 60.7824L40.2231 31.6282L15.8057 19.7822Z" fill="#E2DED0"/>
<path d="M40.2292 31.6313L36.3537 39.6186C32.2948 40.5778 27.1709 39.9571 22.2622 37.5733C17.3534 35.193 13.6966 31.5537 11.9369 27.7734L15.8124 19.7861L40.2292 31.6313Z" fill="#CEC7AF"/>
<path d="M40.2292 31.6309L36.6957 38.9129C32.9683 40.1472 27.654 39.5935 22.4949 37.0898C17.3393 34.5896 13.6154 30.7564 12.2754 27.0642L15.8088 19.7822L40.2292 31.6309Z" fill="#A85D4E"/>
<path d="M26.7619 50.1092C25.5665 52.5742 20.894 52.7752 16.3273 50.5606C11.7606 48.346 9.02764 44.5516 10.2231 42.0867C11.4185 39.6217 16.091 39.4207 20.6577 41.6353C25.2244 43.8499 27.9574 47.6443 26.7619 50.1092Z" fill="#CCC6B4"/>
<path d="M22.1353 52.3767C20.9222 51.9818 19.8043 51.5586 18.7711 51.1213C15.9888 49.9506 13.813 48.674 12.085 47.4997C11.3727 47.0166 10.6639 47.133 10.8402 46.8967C11.0165 46.6569 11.6724 46.7239 11.6724 46.7239C12.2226 45.6378 13.746 44.2766 13.746 44.2766C13.746 44.2766 13.6719 44.1073 13.4921 43.797C13.3122 43.4867 14.0739 43.5854 14.0739 43.5854C14.4407 42.8872 15.7454 39.918 15.7454 39.918L23.5458 43.6277L26.1413 44.862C24.9775 46.9461 23.6199 48.4942 23.6199 48.4942C23.8103 48.8433 23.5599 48.9455 23.5599 48.9455C23.7609 49.4146 23.4048 49.3264 23.4048 49.3264C23.2143 50.3984 22.6078 52.084 22.6078 52.084C23.098 52.814 22.904 52.6342 22.1353 52.3803V52.3767Z" fill="#BC745B"/>
<g style="mix-blend-mode:multiply" opacity="0.5">
<path d="M22.1352 52.3771C20.9221 51.9822 19.8042 51.559 18.771 51.1217C19.1166 51.1288 19.4904 51.1182 19.5574 51.0371C19.6843 50.8784 21.3982 48.0185 21.3982 48.0185C21.3982 48.0185 21.1866 47.9162 21.1725 47.821C21.1584 47.7223 21.4652 47.68 21.4652 47.68C21.4652 47.68 21.0914 47.3626 21.0596 47.2321C21.0244 47.1016 21.5815 47.1686 21.5815 47.1686L22.4702 43.3037L23.5457 43.6317L26.1412 44.8659C24.9775 46.95 23.6198 48.4981 23.6198 48.4981C23.8102 48.8472 23.5598 48.9495 23.5598 48.9495C23.7608 49.4185 23.4047 49.3303 23.4047 49.3303C23.2143 50.4024 22.6077 52.088 22.6077 52.088C23.0979 52.8179 22.9039 52.6381 22.1352 52.3842V52.3771Z" fill="#898989"/>
</g>
<path d="M8.12129 45.5009C8.36813 46.2838 10.4769 47.7755 13.1041 48.1598C15.7313 48.5442 16.1826 47.8672 16.2249 47.6662C16.3307 47.1442 15.7101 45.9946 13.2557 45.0284C10.8014 44.0586 7.66991 44.0728 8.12481 45.5045L8.12129 45.5009Z" fill="#E89B67"/>
<path d="M9.46485 46.1998C9.58827 45.2195 9.04168 44.5565 9.02405 44.5354C9.04521 44.5354 9.06636 44.5283 9.08752 44.5283C9.88449 45.1737 9.48601 46.1399 9.46132 46.1998H9.46485Z" fill="#DD8E58"/>
<path d="M11.0376 46.6186C11.2985 45.2222 10.4205 44.4922 10.4205 44.4922C10.4522 44.4922 10.4839 44.4957 10.5157 44.4992C11.7852 45.4619 11.0376 46.6186 11.0376 46.6186Z" fill="#DD8E58"/>
<path d="M12.554 47.1764C12.9736 45.5154 12.0991 44.782 12.0497 44.7432C12.0744 44.7502 12.0991 44.7537 12.1237 44.7608C13.3298 45.7235 12.554 47.1764 12.554 47.1764Z" fill="#DD8E58"/>
<path d="M13.968 47.5042C14.7121 46.2347 13.8482 45.4095 13.8023 45.3672C13.8482 45.3883 13.8975 45.4095 13.9469 45.4342C15.0365 46.4463 13.968 47.5042 13.968 47.5042Z" fill="#DD8E58"/>
<path d="M14.9836 47.8349C15.7489 46.8687 14.9484 45.9941 14.9484 45.9941C14.9836 46.0153 15.0189 46.04 15.0542 46.0611C15.9569 47.1191 14.9836 47.8349 14.9836 47.8349Z" fill="#DD8E58"/>
<path d="M10.9812 50.1945C11.9686 50.7657 13.0371 51.2277 14.1197 51.6156C15.2059 52.0035 16.3167 52.3244 17.4486 52.5536C18.5771 52.7828 19.7232 52.9521 20.8798 53.0085C22.033 53.0967 23.1896 53.0473 24.3428 52.9733C24.3674 52.9733 24.3851 52.9909 24.3886 53.0121C24.3886 53.0367 24.371 53.0544 24.3498 53.0579C23.1931 53.1496 22.033 53.2095 20.8728 53.1355C19.7126 53.0896 18.5559 52.9345 17.4169 52.7158C16.2744 52.5007 15.153 52.1904 14.0527 51.8096C12.9525 51.4252 11.8805 50.9809 10.8543 50.4025C10.7943 50.3708 10.7732 50.2967 10.8084 50.2368C10.8402 50.1768 10.9142 50.1557 10.9742 50.1909L10.9812 50.1945Z" fill="#E89B67"/>
<path d="M6.88349 48.3754C7.25729 49.4157 10.1736 51.1295 13.7318 51.2318C17.2864 51.3305 17.8576 50.3149 17.9035 50.0293C18.0163 49.2887 17.1206 47.8041 13.7635 46.8696C10.4064 45.9351 6.19937 46.4712 6.88349 48.3754Z" fill="#EAAD65"/>
<path d="M8.73136 49.12C8.84068 47.7447 8.07193 46.9195 8.04724 46.8913C8.07545 46.8842 8.10366 46.8772 8.1354 46.8701C9.24622 47.6283 8.7631 49.0353 8.73136 49.12Z" fill="#E89B67"/>
<path d="M10.8684 49.4444C11.1434 47.4661 9.92328 46.6057 9.92328 46.6057C9.9656 46.6057 10.0079 46.6022 10.0502 46.5986C11.8134 47.72 10.8684 49.4444 10.8684 49.4444Z" fill="#E89B67"/>
<path d="M12.9347 49.9657C13.4108 47.5995 12.1942 46.7285 12.1272 46.6826C12.1589 46.6861 12.1942 46.6897 12.2259 46.6967C13.8974 47.8322 12.9383 49.9657 12.9383 49.9657H12.9347Z" fill="#E89B67"/>
<path d="M14.8567 50.1843C15.7876 48.3048 14.5816 47.3033 14.5181 47.2539C14.5816 47.2751 14.6486 47.2997 14.7121 47.3244C16.232 48.541 14.8567 50.1843 14.8567 50.1843Z" fill="#E89B67"/>
<path d="M16.2425 50.4742C17.2193 49.0107 16.0944 47.9316 16.0944 47.9316C16.1438 47.9563 16.1896 47.981 16.239 48.0092C17.5085 49.321 16.239 50.4742 16.239 50.4742H16.2425Z" fill="#E89B67"/>
<path d="M16.0134 38.5963C15.287 38.3283 15.9112 39.0865 15.8371 39.4215C15.7666 39.7565 15.2164 39.5908 15.3399 39.887C15.4668 40.1832 22.9604 44.2738 26.2012 45.3599C27.0969 45.6597 26.18 44.6088 26.4798 44.503C26.7795 44.3972 27.6823 44.3373 27.0405 43.9494C21.8637 40.8321 21.5287 40.6346 16.0099 38.5963H16.0134Z" fill="#D1846F"/>
<path d="M26.7512 44.0444C26.7512 44.0444 26.5467 43.9809 26.1623 43.8434C24.8011 43.3568 21.1972 41.9568 16.7927 39.2803C16.6199 39.1745 16.4436 39.0687 16.2673 38.9558C16.1121 38.8606 16.4259 38.9488 17.0536 39.178C18.7957 39.8268 22.9463 41.5971 26.2047 43.6812C26.3916 43.8011 26.5749 43.921 26.7512 44.0409V44.0444Z" fill="#A85D4E"/>
<path d="M26.1588 43.8435C24.7976 43.3569 21.1937 41.9569 16.7892 39.2804C16.8632 39.2486 16.9514 39.2134 17.0501 39.1816C17.4204 39.0406 17.9212 38.9066 18.2421 38.9912C18.7992 39.1429 19.5292 39.7811 20.0511 39.8693C20.5765 39.9539 21.7579 38.8572 23.1261 39.3439C24.2581 39.7459 24.8223 41.0471 24.8752 41.5302C25.249 41.5761 25.7956 41.6995 26.1341 42.0592C26.4515 42.3977 26.3493 43.1277 26.2047 43.6849C26.1906 43.7377 26.1765 43.7906 26.1624 43.8435H26.1588Z" fill="#F2F0E9"/>
<path d="M15.964 52.2965C16.3307 52.3141 16.6481 51.5242 17.1559 51.7393C17.1559 51.7393 17.036 51.7358 16.9161 51.8698C16.6798 52.1307 16.6411 52.5081 15.964 52.2965Z" fill="#E5AD70"/>
<path d="M15.964 52.2959C16.2532 52.4616 15.8794 53.248 16.6516 53.4984C16.6516 53.4984 16.4577 53.4067 16.4224 53.0505C16.3907 52.7226 16.5176 52.437 15.9675 52.2994L15.964 52.2959Z" fill="#E5AD70"/>
<path d="M16.2427 52.3736C16.6094 52.3877 16.9268 51.6542 17.4346 51.8552C17.4346 51.8552 17.3147 51.8517 17.1948 51.9751C16.9585 52.2184 16.9197 52.5711 16.2427 52.3736Z" fill="#D19962"/>
<path d="M16.2427 52.373C16.5318 52.5282 16.158 53.2617 16.9303 53.4944C16.9303 53.4944 16.7328 53.4098 16.7011 53.0783C16.6694 52.7715 16.7963 52.5071 16.2462 52.3766L16.2427 52.373Z" fill="#D19962"/>
<path d="M16.5458 52.5068C16.9126 52.4927 17.1735 51.8015 17.6954 51.9602C17.6954 51.9602 17.5121 51.9849 17.4028 52.1153C17.1876 52.3798 17.237 52.6443 16.5494 52.5032L16.5458 52.5068Z" fill="#E5AD70"/>
<path d="M16.5458 52.5068C16.8456 52.6373 16.4612 53.3602 17.2476 53.5295C17.2476 53.5295 17.1136 53.5013 17.0536 53.1733C16.9972 52.8701 17.103 52.595 16.5458 52.5104V52.5068Z" fill="#E5AD70"/>
<path d="M18.6688 52.8705C19.0285 52.8105 19.1802 51.9747 19.7197 52.0805C19.7197 52.0805 19.5998 52.1017 19.5116 52.2569C19.3353 52.5637 19.3741 52.9374 18.6688 52.874V52.8705Z" fill="#D19962"/>
<path d="M18.6688 52.8711C18.9827 52.9734 18.7817 53.8197 19.5892 53.9043C19.5892 53.9043 19.3776 53.855 19.2718 53.5129C19.1731 53.199 19.2366 52.8923 18.6688 52.8711Z" fill="#E5AD70"/>
<path d="M18.9579 52.8851C19.3176 52.8252 19.4798 52.0388 20.0158 52.1305C20.0158 52.1305 19.8959 52.1516 19.8042 52.2997C19.6244 52.5889 19.6561 52.9415 18.9543 52.8886L18.9579 52.8851Z" fill="#E5AD70"/>
<path d="M18.9579 52.8848C19.2717 52.9765 19.0566 53.7734 19.8606 53.8404C19.8606 53.8404 19.6526 53.7981 19.5468 53.4807C19.4516 53.188 19.5221 52.9024 18.9543 52.8883L18.9579 52.8848Z" fill="#E5AD70"/>
<path d="M19.2822 52.955C19.6384 52.8669 19.7512 52.1369 20.2943 52.1827C20.2943 52.1827 20.118 52.2427 20.0404 52.3978C19.8817 52.7011 19.9875 52.9515 19.2858 52.955H19.2822Z" fill="#E5AD70"/>
<path d="M19.2823 52.9555C19.6032 53.0225 19.3775 53.8089 20.1816 53.8089C20.1816 53.8089 20.0476 53.8089 19.9171 53.4986C19.8007 53.2129 19.8466 52.9238 19.2788 52.9555H19.2823Z" fill="#D19962"/>
<path d="M17.6178 52.6835C17.9845 52.6694 18.2455 51.9782 18.7674 52.1369C18.7674 52.1369 18.584 52.1616 18.4747 52.2956C18.2596 52.5601 18.309 52.8246 17.6213 52.6835H17.6178Z" fill="#D19962"/>
<path d="M17.6179 52.6836C17.9176 52.8141 17.5333 53.537 18.3197 53.7062C18.3197 53.7062 18.1857 53.678 18.1257 53.3466C18.0693 53.0433 18.1751 52.7682 17.6144 52.6836H17.6179Z" fill="#D19962"/>
<path d="M17.0854 52.578C17.4451 52.511 17.5227 51.8516 18.0623 51.9327C18.0623 51.9327 17.9388 51.9644 17.8472 52.1161C17.6708 52.4087 17.7872 52.6203 17.0854 52.578Z" fill="#D19962"/>
<path d="M17.0641 52.5811C17.3639 52.7115 16.9795 53.4344 17.7659 53.6037C17.7659 53.6037 17.6319 53.5755 17.5719 53.244C17.5155 52.9407 17.6213 52.6657 17.0606 52.5811H17.0641Z" fill="#D19962"/>
<path d="M17.3181 52.6132C17.6849 52.5991 17.7977 51.9361 18.3196 52.0948C18.3196 52.0948 18.1997 52.1548 18.1221 52.3382C17.9846 52.6485 17.7589 52.7261 17.3216 52.6132H17.3181Z" fill="#E5AD70"/>
<path d="M17.3181 52.6133C17.6179 52.7438 17.163 53.4314 17.9493 53.6007C17.9493 53.6007 17.84 53.5019 17.8118 53.1705C17.7871 52.8637 17.8753 52.6979 17.3181 52.6133Z" fill="#E5AD70"/>
<path d="M18.4078 52.8875C18.7711 52.8416 18.9756 52.1328 19.5081 52.2492C19.5081 52.2492 19.3247 52.288 19.2295 52.4291C19.0355 52.7076 19.1096 52.9721 18.4114 52.8875H18.4078Z" fill="#E5AD70"/>
<path d="M18.4078 52.8887C18.7182 52.9945 18.3937 53.7456 19.1942 53.8479C19.1942 53.8479 19.0602 53.8302 18.9721 53.5093C18.891 53.2131 18.9721 52.9275 18.4078 52.8887Z" fill="#D19962"/>
<path d="M17.8682 52.8249C18.2208 52.7296 18.2455 52.0667 18.7886 52.1019C18.7886 52.1019 18.6651 52.1443 18.5911 52.2994C18.443 52.6062 18.5734 52.8037 17.8682 52.8249Z" fill="#E5AD70"/>
<path d="M17.8471 52.832C18.1574 52.9378 17.833 53.6889 18.6335 53.7912C18.6335 53.7912 18.4995 53.7736 18.4113 53.4492C18.3302 53.1529 18.4113 52.8708 17.8471 52.832Z" fill="#E5AD70"/>
<path d="M18.101 52.8425C18.4642 52.7967 18.5242 52.1267 19.0531 52.243C19.0531 52.243 18.9403 52.3136 18.8768 52.5005C18.7675 52.8214 18.5489 52.9166 18.101 52.8425Z" fill="#D19962"/>
<path d="M18.101 52.8428C18.4113 52.9486 18.0164 53.6715 18.8133 53.7773C18.8133 53.7773 18.697 53.6891 18.6406 53.3576C18.5912 53.0544 18.6652 52.8816 18.101 52.8428Z" fill="#E5AD70"/>
<path d="M20.0615 52.9974C20.4212 52.9375 20.5729 52.1017 21.1124 52.2075C21.1124 52.2075 20.9925 52.2286 20.9043 52.3838C20.728 52.6906 20.7668 53.0644 20.0615 52.9974Z" fill="#D19962"/>
<path d="M20.0615 52.9971C20.3789 53.0993 20.1744 53.9457 20.9819 54.0303C20.9819 54.0303 20.7703 53.9809 20.6645 53.6389C20.5658 53.325 20.6293 53.0182 20.0615 52.9971Z" fill="#E5AD70"/>
<path d="M20.3509 53.016C20.7106 52.956 20.8728 52.1696 21.4088 52.2613C21.4088 52.2613 21.2889 52.2825 21.1972 52.4271C21.0174 52.7162 21.0526 53.0689 20.3509 53.016Z" fill="#E5AD70"/>
<path d="M20.3509 53.0146C20.6647 53.1063 20.4496 53.9033 21.2536 53.9703C21.2536 53.9703 21.0456 53.928 20.9433 53.6106C20.8481 53.3179 20.9186 53.0323 20.3509 53.0182V53.0146Z" fill="#D19962"/>
<path d="M20.6718 53.082C21.0279 52.9938 21.1408 52.2638 21.6838 52.3097C21.6838 52.3097 21.5075 52.3696 21.4299 52.5248C21.2712 52.8281 21.377 53.0784 20.6753 53.082H20.6718Z" fill="#E5AD70"/>
<path d="M20.6718 53.0815C20.9927 53.1485 20.767 53.9349 21.571 53.9349C21.571 53.9349 21.437 53.9349 21.3066 53.6246C21.1902 53.3389 21.236 53.0498 20.6683 53.0815H20.6718Z" fill="#E5AD70"/>
<path d="M19.8007 53.0144C20.1639 52.9686 20.3685 52.2598 20.901 52.3762C20.901 52.3762 20.7211 52.415 20.6224 52.556C20.4284 52.8346 20.5025 53.0991 19.8042 53.0144H19.8007Z" fill="#E5AD70"/>
<path d="M19.8007 53.0146C20.111 53.1204 19.7866 53.8716 20.5871 53.9738C20.5871 53.9738 20.4531 53.9562 20.3649 53.6353C20.2838 53.3391 20.3649 53.0534 19.8007 53.0146Z" fill="#D19962"/>
<path d="M21.1831 53.0935C21.5393 53.0089 21.6274 52.1626 22.174 52.2261C22.174 52.2261 22.0577 52.2543 21.9801 52.4165C21.8284 52.7339 21.8919 53.1077 21.1866 53.09L21.1831 53.0935Z" fill="#E5AD70"/>
<path d="M21.1831 53.0925C21.504 53.1701 21.3665 54.0305 22.1775 54.0552C22.1775 54.0552 21.966 54.0235 21.832 53.6885C21.7085 53.3817 21.7509 53.0749 21.1831 53.0925Z" fill="#E5AD70"/>
<path d="M21.4722 53.0893C21.8284 53.0012 21.9307 52.2077 22.4737 52.2571C22.4737 52.2571 22.3574 52.2888 22.2762 52.4405C22.1176 52.7402 22.1775 53.0893 21.4722 53.0893Z" fill="#D19962"/>
<path d="M21.4722 53.0893C21.7931 53.1563 21.6379 53.9674 22.4419 53.9744C22.4419 53.9744 22.2303 53.9462 22.1034 53.6359C21.987 53.3502 22.0364 53.0575 21.4686 53.0893H21.4722Z" fill="#E5AD70"/>
<path d="M21.8002 53.1349C22.1493 53.0185 22.2058 52.285 22.7524 52.292C22.7524 52.292 22.5831 52.3661 22.5126 52.5248C22.3786 52.8386 22.502 53.0784 21.8002 53.1349Z" fill="#E5AD70"/>
<path d="M21.8002 53.1347C22.1247 53.177 21.9554 53.9775 22.7594 53.9211C22.7594 53.9211 22.6254 53.9316 22.4738 53.6319C22.3362 53.3568 22.3609 53.0641 21.8002 53.1347Z" fill="#D19962"/>
<path d="M22.0683 53.1139C22.3328 53.0504 22.3998 52.4192 22.8053 52.4686C22.8053 52.4686 22.7172 52.4897 22.6607 52.6096C22.5444 52.8459 22.5973 53.1245 22.0683 53.1139Z" fill="#D19962"/>
<path d="M22.0683 53.1139C22.3081 53.1738 22.2058 53.8121 22.8088 53.8298C22.8088 53.8298 22.6502 53.8051 22.5514 53.5582C22.4597 53.3325 22.4915 53.0998 22.0683 53.1139Z" fill="#E5AD70"/>
<path d="M22.2868 53.1102C22.5513 53.0467 22.6288 52.4542 23.0309 52.493C23.0309 52.493 22.9427 52.5142 22.8828 52.627C22.7629 52.8527 22.8087 53.1102 22.2833 53.1102H22.2868Z" fill="#E5AD70"/>
<path d="M22.2869 53.1098C22.5231 53.1592 22.4103 53.7657 23.0098 53.7693C23.0098 53.7693 22.8511 53.7481 22.7594 53.5189C22.6748 53.3073 22.71 53.0887 22.2869 53.1098Z" fill="#D19962"/>
<path d="M22.5266 53.1453C22.784 53.0607 22.8298 52.5106 23.2354 52.5176C23.2354 52.5176 23.1084 52.5741 23.059 52.6904C22.9603 52.9232 23.0485 53.103 22.5266 53.1453Z" fill="#D19962"/>
<path d="M22.5266 53.1457C22.7663 53.1774 22.6429 53.7734 23.2424 53.7311C23.2424 53.7311 23.1437 53.7381 23.0308 53.516C22.9286 53.3114 22.9462 53.0928 22.5301 53.1457H22.5266Z" fill="#E5AD70"/>
<path d="M22.8652 53.096C23.0521 53.0325 23.0591 52.5741 23.3589 52.5811C23.3589 52.5811 23.2954 52.6023 23.2637 52.694C23.1967 52.8703 23.2496 53.0678 22.8652 53.096Z" fill="#D19962"/>
<path d="M22.8652 53.0958C23.0415 53.1241 23.0098 53.5931 23.447 53.5684C23.447 53.5684 23.3307 53.5613 23.2425 53.3885C23.1614 53.2298 23.1684 53.0606 22.8652 53.0994V53.0958Z" fill="#D19962"/>
<path d="M23.0204 53.0816C23.2073 53.0181 23.2249 52.5844 23.5211 52.5879C23.5211 52.5879 23.4577 52.6091 23.4224 52.6972C23.3519 52.8665 23.3977 53.0534 23.0204 53.0851V53.0816Z" fill="#E5AD70"/>
<path d="M23.0204 53.0815C23.1967 53.1027 23.1509 53.547 23.5846 53.5153C23.5846 53.5153 23.4682 53.5118 23.3871 53.3496C23.3096 53.2014 23.3237 53.0428 23.0204 53.0851V53.0815Z" fill="#D19962"/>
<path d="M23.2002 53.0886C23.3836 53.0111 23.38 52.6126 23.6727 52.5879C23.6727 52.5879 23.5846 52.6373 23.5564 52.7254C23.4999 52.9017 23.5775 53.0252 23.2002 53.0886Z" fill="#D19962"/>
<path d="M23.2002 53.0892C23.3765 53.0963 23.3236 53.5371 23.7538 53.4665C23.7538 53.4665 23.6798 53.4771 23.5881 53.322C23.4999 53.1809 23.4999 53.0222 23.2002 53.0857V53.0892Z" fill="#E5AD70"/>
<path d="M23.3518 53.0792C23.4893 53.0334 23.4964 52.6913 23.7186 52.6983C23.7186 52.6983 23.6727 52.7125 23.648 52.783C23.5987 52.917 23.6374 53.0616 23.3553 53.0792H23.3518Z" fill="#E5AD70"/>
<path d="M23.3518 53.0782C23.4823 53.0994 23.4576 53.4449 23.782 53.4273C23.782 53.4273 23.6974 53.4203 23.6304 53.2933C23.5704 53.1769 23.5775 53.05 23.3518 53.0782Z" fill="#E5AD70"/>
<path d="M23.4683 53.065C23.6058 53.0191 23.6199 52.6982 23.8385 52.6982C23.8385 52.6982 23.7927 52.7159 23.768 52.7794C23.7151 52.9063 23.7504 53.0438 23.4718 53.065H23.4683Z" fill="#E5AD70"/>
<path d="M23.4683 53.0648C23.5987 53.0789 23.567 53.4104 23.8879 53.3857C23.8879 53.3857 23.8033 53.3857 23.7398 53.2623C23.6834 53.153 23.6904 53.0366 23.4683 53.0648Z" fill="#D19962"/>
<path d="M23.5986 53.0714C23.7326 53.0115 23.7326 52.7188 23.9477 52.7012C23.9477 52.7012 23.8843 52.7364 23.8596 52.8034C23.8173 52.9339 23.8737 53.0256 23.5951 53.0714H23.5986Z" fill="#E5AD70"/>
<path d="M23.5987 53.0718C23.7292 53.0788 23.6904 53.4033 24.0078 53.3539C24.0078 53.3539 23.9549 53.361 23.8843 53.2481C23.8209 53.1423 23.8209 53.0259 23.5987 53.0718Z" fill="#D19962"/>
<path d="M23.7327 53.0551C23.8423 53.0197 23.8494 52.7686 24.0192 52.7686C24.0192 52.7686 23.9839 52.7827 23.9626 52.8322C23.9202 52.9313 23.9485 53.0374 23.7291 53.0551H23.7327Z" fill="#D19962"/>
<path d="M23.7327 53.0539C23.8353 53.0681 23.807 53.3228 24.0582 53.3016C24.0582 53.3016 23.991 53.3016 23.945 53.206C23.9025 53.1211 23.9096 53.0291 23.7327 53.0539Z" fill="#E5AD70"/>
<path d="M23.835 53.0587C23.9376 53.0127 23.9376 52.7827 24.1074 52.7686C24.1074 52.7686 24.0579 52.7969 24.0402 52.8464C24.0084 52.9455 24.0508 53.0197 23.835 53.0551V53.0587Z" fill="#D19962"/>
<path d="M23.835 53.0565C23.9376 53.06 23.9058 53.3147 24.1534 53.2758C24.1534 53.2758 24.111 53.2829 24.0579 53.1944C24.0084 53.1131 24.0084 53.0211 23.835 53.06V53.0565Z" fill="#D19962"/>
<path d="M23.9513 53.0336C24.061 52.9983 24.0716 52.7471 24.2414 52.7471C24.2414 52.7471 24.206 52.7577 24.1848 52.8108C24.1423 52.9098 24.1706 53.016 23.9513 53.0336Z" fill="#E5AD70"/>
<path d="M23.9513 53.0324C24.0539 53.0466 24.0256 53.3013 24.2768 53.2801C24.2768 53.2801 24.2096 53.2801 24.1636 53.1846C24.1211 53.0996 24.1282 53.0077 23.9513 53.0324Z" fill="#E5AD70"/>
<path d="M24.0535 53.0405C24.1596 52.9945 24.1561 52.7645 24.3259 52.7539C24.3259 52.7539 24.2764 52.7822 24.2587 52.8317C24.2268 52.9308 24.2693 53.0051 24.0535 53.0405Z" fill="#E5AD70"/>
<path d="M24.0535 53.0389C24.1561 53.0424 24.1242 53.2971 24.3754 53.2582C24.3754 53.2582 24.333 53.2653 24.2799 53.1769C24.2304 53.0955 24.2304 53.0035 24.057 53.0424L24.0535 53.0389Z" fill="#E5AD70"/>
<path d="M20.9257 53.1309C21.2854 53.0603 21.437 52.3374 21.9765 52.415C21.9765 52.415 21.8002 52.4679 21.712 52.616C21.5393 52.9087 21.6309 53.1661 20.9292 53.1309H20.9257Z" fill="#D19962"/>
<path d="M20.9257 53.1318C21.243 53.2165 20.975 53.9888 21.779 54.0311C21.779 54.0311 21.645 54.024 21.5322 53.7102C21.4299 53.421 21.4899 53.1318 20.9257 53.1318Z" fill="#D19962"/>
<path d="M19.4939 52.9695C19.8571 52.9236 19.9171 52.2536 20.4496 52.37C20.4496 52.37 20.3367 52.437 20.2732 52.6274C20.1639 52.9483 19.9453 53.0435 19.4974 52.9695H19.4939Z" fill="#D19962"/>
<path d="M19.4939 52.9688C19.8042 53.0745 19.4093 53.7975 20.2062 53.8997C20.2062 53.8997 20.0863 53.8116 20.0334 53.4836C19.9841 53.1803 20.0581 53.0075 19.4939 52.9688Z" fill="#E5AD70"/>
<path d="M23.2642 30.6334L27.0905 32.4897L26.7873 33.1147C26.735 33.2226 26.603 33.2683 26.4952 33.216L23.0591 31.549C22.9512 31.4967 22.9055 31.3647 22.9578 31.2569L23.261 30.6318L23.2642 30.6334Z" fill="#E2DED0"/>
<path d="M29.1246 29.4764C29.1845 28.8804 28.1618 28.8169 27.5765 28.831C27.6294 28.4784 27.58 27.9918 27.0369 27.7273C26.5326 27.484 26.0919 27.7061 25.7956 27.96C25.4395 27.491 24.7694 26.7434 24.3392 27.156C23.7362 27.7379 24.2652 29.0849 24.2652 29.0849L23.5493 30.0371L27.3472 31.8814L27.6646 30.6859C27.6646 30.6859 29.0399 30.3086 29.1246 29.4764Z" fill="#E2DED0"/>
<path d="M24.191 33.5981C22.1246 32.5966 20.4531 31.1896 19.7196 29.8389C19.6843 29.7755 19.709 29.6979 19.7725 29.6626C19.8359 29.6274 19.9135 29.652 19.9488 29.7155C20.6576 31.0203 22.2868 32.385 24.3074 33.3618C26.328 34.3422 28.4051 34.7759 29.8685 34.5255C29.9391 34.515 30.0061 34.5608 30.0202 34.6313C30.0308 34.7019 29.9849 34.7689 29.9144 34.783C28.398 35.0404 26.261 34.5996 24.1946 33.5946L24.191 33.5981Z" fill="#9B5145"/>
<path d="M23.8243 34.3501C22.1775 33.5496 20.7881 32.5587 20.1005 31.6912C20.0793 31.663 20.0828 31.6207 20.111 31.5995C20.1392 31.5784 20.1816 31.5819 20.2027 31.6101C20.8763 32.46 22.2516 33.4403 23.8808 34.2302C25.51 35.0201 27.1321 35.4962 28.2147 35.4962C28.2535 35.4962 28.2782 35.5244 28.2782 35.5597C28.2782 35.5949 28.25 35.6267 28.2147 35.6267C27.1109 35.6267 25.4676 35.1471 23.8208 34.3466L23.8243 34.3501Z" fill="#9B5145"/>
<g style="mix-blend-mode:multiply" opacity="0.5">
<path d="M41.8866 29.2438L40.2292 31.6312L35.5179 29.3461L36.9672 26.8564L41.8866 29.2438Z" fill="#ADADAD"/>
</g>
<g style="mix-blend-mode:multiply" opacity="0.5">
<path d="M25.2314 63.5694L20.231 61.1432L22.9498 59.2637L26.0848 60.7835L25.2314 63.5694Z" fill="#ADADAD"/>
</g>
<g style="mix-blend-mode:multiply" opacity="0.5">
<path d="M40.2292 31.6308L26.0848 60.7835L22.9498 59.2637L35.5179 29.3457L40.2292 31.6308Z" fill="#ADADAD"/>
</g>
<path d="M107 11.6293L111.396 8.90527L109.326 11.6767L107 11.6293Z" fill="#E2DED0"/>
<path d="M107.091 21.8795L108.821 12.9346L107 11.6297L109.326 11.677L110.079 9.72168L110.678 11.7835L119.461 14.2119L113.926 19.8414L107.091 21.8795Z" fill="#CEC7AF"/>
<g style="mix-blend-mode:multiply" opacity="0.5">
<path d="M110.252 12.5195L117.293 14.3724L113.28 17.4L112.653 17.7863L108.159 20.0374L109.629 12.9059L110.252 12.5195Z" fill="#ADADAD"/>
</g>
<path d="M135.147 4.48625L123.723 17.3458L119.461 14.2117L110.678 11.7833L110.079 9.72547L125.769 0L126.368 2.05784L135.147 4.48625Z" fill="#E2DED0"/>
<path d="M126.786 6.67426C126.975 7.52578 125.84 8.50345 124.247 8.85825C122.658 9.21305 121.216 8.81094 121.026 7.95942C120.837 7.1079 121.973 6.13023 123.561 5.77543C125.15 5.42063 126.593 5.82274 126.786 6.6782V6.67426Z" fill="#DCE7F4"/>
<path d="M126.719 6.37058C126.908 7.2221 125.773 8.19977 124.184 8.55063C122.595 8.90543 121.153 8.50332 120.963 7.6518C120.774 6.80028 121.909 5.82261 123.498 5.46781C125.087 5.11301 126.534 5.51512 126.723 6.37058H126.719Z" fill="#F0F4F7"/>
<g style="mix-blend-mode:multiply" opacity="0.5">
<path d="M125.564 6.4103C125.584 6.49703 125.58 6.5877 125.556 6.67837C125.442 7.12778 124.819 7.57326 124.003 7.7546C123.191 7.93594 122.438 7.79797 122.142 7.43922C122.079 7.36826 122.039 7.28942 122.02 7.19875C121.902 6.67443 122.603 6.07127 123.585 5.85445C124.563 5.63368 125.45 5.88599 125.568 6.4103H125.564Z" fill="#ADADAD"/>
</g>
<path d="M125.556 6.67813C125.442 7.12754 124.819 7.57302 124.003 7.75436C123.191 7.9357 122.438 7.79772 122.142 7.43898C122.26 6.98957 122.883 6.54409 123.695 6.36275C124.511 6.17746 125.26 6.31939 125.56 6.67419L125.556 6.67813Z" fill="#DCE7F4"/>
<path d="M135.148 4.47598L113.276 18.0371L137.538 57.1672L159.41 43.6061L135.148 4.47598Z" fill="#F0F4F7"/>
<path d="M119.461 14.2074L107.094 21.875L131.356 61.0051L143.723 53.3375L119.461 14.2074Z" fill="#DCE7F4"/>
<path d="M161.005 47.3581L139.914 60.4345C139.697 60.5685 139.456 60.5843 139.362 60.4739L136.717 57.3477C136.555 57.0875 136.795 56.6421 137.257 56.3582L158.962 42.8995C159.424 42.6156 159.503 42.86 159.664 43.1202L161.284 46.8811C161.344 47.0152 161.221 47.2241 161.005 47.3581Z" fill="#9DE2ED"/>
<path d="M145.638 56.8854L133.673 64.3008C133.551 64.3757 133.389 64.3441 133.303 64.2298L130.878 60.9656C130.716 60.7055 130.795 60.3625 131.059 60.2008L143.131 52.7146C143.391 52.5529 143.734 52.6318 143.895 52.8959L145.74 56.5188C145.807 56.6489 145.76 56.8066 145.638 56.8854Z" fill="#73CFE5"/>
<path d="M119.461 14.2109L131.726 33.997C131.351 34.336 130.925 34.6553 130.46 34.9431C129.802 35.3531 129.128 35.6566 128.469 35.8616C127.953 38.3492 125.765 41.1639 122.509 43.1823C121.965 43.5214 121.409 43.821 120.857 44.0812L107.091 21.8786L119.457 14.2109H119.461Z" fill="#73CFE5"/>
<path d="M123.944 34.6012L123.179 35.366C118.31 30.6471 113.647 28.6602 110.781 27.8324L107.091 21.8796L109.807 20.1963C112.834 22.4631 119.067 27.588 123.94 34.6051L123.944 34.6012Z" fill="#A85D4E"/>
<path d="M125.004 32.2359L124.937 32.295C125.122 31.8219 125.414 30.9389 125.024 30.8797C124.657 30.8245 124.48 31.5775 124.405 32.0545L124.078 31.9323C124.078 31.9323 124.429 29.6813 123.774 30.5525C123.12 31.4277 123.762 33.0125 123.762 33.0125L123.857 33.253L121.921 34.9678L121.712 34.818C121.712 34.818 120.017 33.588 118.787 34.1084C117.557 34.6288 120.333 34.8772 120.333 34.8772L120.38 35.3029C119.793 35.2517 118.839 35.2359 118.799 35.6892C118.764 36.0953 119.572 36.0992 120.195 36.0401C118.563 36.7931 117.774 37.8851 117.431 38.5395L120.865 44.0783C121.417 43.8142 121.973 43.5146 122.517 43.1795C125.777 41.1611 127.961 38.3424 128.477 35.8588C129.136 35.6577 129.81 35.3502 130.468 34.9402C130.933 34.6524 131.359 34.3331 131.734 33.9941L127.957 27.8994C125.753 29.1728 125.012 32.2359 125.012 32.2359H125.004Z" fill="#9B5145"/>
<path d="M125.335 32.7759L125.268 32.835C125.454 32.362 125.745 31.4789 125.355 31.4198C124.988 31.3646 124.811 32.1215 124.736 32.5946L124.409 32.4724C124.409 32.4724 124.76 30.2213 124.105 31.0965C123.451 31.9717 124.094 33.5565 124.094 33.5565L124.188 33.7969L122.253 35.5118L122.044 35.362C122.044 35.362 120.348 34.132 119.118 34.6524C117.889 35.1728 120.668 35.4211 120.668 35.4211L120.715 35.8469C120.128 35.7956 119.174 35.7799 119.134 36.2332C119.099 36.6432 119.907 36.6432 120.53 36.5841C118.894 37.3371 118.109 38.4291 117.766 39.0835L121.2 44.6183C121.756 44.3582 122.308 44.0546 122.852 43.7195C126.112 41.7011 128.296 38.8864 128.812 36.3988C129.471 36.1978 130.145 35.8903 130.803 35.4803C131.268 35.1925 131.694 34.8732 132.069 34.5341L128.292 28.4395C126.088 29.7128 125.347 32.7759 125.347 32.7759H125.335Z" fill="#A85D4E"/>
<path d="M124.957 31.8449C124.291 31.6202 124.768 33.1301 124.775 33.1932C124.775 33.1932 124.342 31.6833 123.865 31.6163C123.392 31.5493 123.605 32.1564 124.149 32.5466C124.693 32.9369 123.179 33.4376 123.242 32.113C123.301 30.7884 122.761 30.3863 122.383 30.6189C121.681 31.0486 123.498 32.724 122.994 32.9172C122.489 33.1104 122.465 31.6202 121.866 32.046C121.263 32.4717 123.569 33.8476 123.238 34.4192C122.962 34.8923 122.639 34.5375 122.493 34.1866C122.493 34.1866 122.051 32.7516 121.523 33.1813C121.038 33.5716 122.359 34.5296 122.359 34.5296L121.929 34.6636C121.527 34.0447 120.672 32.9014 119.938 33.1301C118.937 33.4376 121.464 35.0854 121.464 35.0854C121.464 35.0854 120.041 34.364 120.005 34.9199C119.966 35.4718 121.153 35.6019 121.153 35.6019C121.153 35.6019 120.112 35.5388 120.183 35.8739C120.254 36.209 121.452 36.6071 121.452 36.6071C121.452 36.6071 123.573 36.142 125.075 33.548C125.075 33.548 125.627 32.0696 124.961 31.8449H124.957Z" fill="#BC6E61"/>
<path d="M115.992 26.5429C116.146 26.2669 116.599 27.0081 116.753 26.7952C116.895 26.606 112.712 22.7978 108.703 20.8779L107.091 21.8753L110.335 27.1106C111.612 27.422 113.489 28.0449 115.764 29.2827C118.649 30.8596 119.686 32.271 119.785 31.5653C119.879 30.8754 115.164 28.7269 116.114 27.7611C116.686 27.1776 118.113 29.6257 118.46 28.9555C118.63 28.6205 115.834 26.8189 115.988 26.539L115.992 26.5429ZM114.739 27.2604C114.731 27.3668 114.368 27.0396 114.009 26.8583C113.639 26.6691 113.276 26.6139 113.308 26.5114C113.343 26.4049 113.729 26.4877 114.092 26.6848C114.431 26.8662 114.746 27.154 114.739 27.2604ZM114.585 26.2433C114.565 26.5587 113.611 25.4667 112.555 24.9187C111.47 24.3629 110.28 24.3392 110.378 24.0396C110.481 23.7321 111.62 23.9765 112.681 24.5481C113.682 25.0843 114.605 25.9358 114.589 26.2433H114.585Z" fill="#BC6E61"/>
<path d="M136.815 45.3165L127.318 51.2062C127.243 51.2535 127.149 51.2298 127.101 51.1549L124.212 46.4913C124.164 46.4163 124.188 46.3217 124.263 46.2744L133.76 40.3887C133.835 40.3414 133.929 40.365 133.977 40.4399L136.866 45.1036C136.914 45.1785 136.89 45.2731 136.815 45.3204V45.3165Z" fill="#E2DED0"/>
<g style="mix-blend-mode:multiply" opacity="0.5">
<path d="M127.871 44.6527L124.812 46.5488L125.66 47.916L128.719 46.0199L127.871 44.6527Z" fill="#898989"/>
</g>
<g style="mix-blend-mode:multiply" opacity="0.5">
<path d="M133.279 41.5866L128.852 44.3304C128.809 44.358 128.753 44.3422 128.726 44.2989C128.698 44.2555 128.714 44.2003 128.753 44.1727L133.181 41.4289C133.224 41.4013 133.279 41.4171 133.307 41.4565C133.334 41.4999 133.322 41.5551 133.279 41.5827V41.5866Z" fill="#898989"/>
<path d="M133.618 42.1382L129.191 44.882C129.148 44.9096 129.092 44.8938 129.065 44.8544C129.037 44.811 129.053 44.7558 129.092 44.7282L133.519 41.9844C133.563 41.9568 133.618 41.9726 133.646 42.016C133.673 42.0593 133.657 42.1145 133.618 42.1421V42.1382Z" fill="#898989"/>
<path d="M133.961 42.6899L129.534 45.4337C129.491 45.4613 129.435 45.4455 129.408 45.4061C129.38 45.3628 129.392 45.3076 129.435 45.28L133.863 42.5362C133.906 42.5086 133.961 42.5244 133.989 42.5677C134.016 42.6111 134.001 42.6663 133.957 42.6939L133.961 42.6899Z" fill="#898989"/>
<path d="M127.433 47.6842L126.053 48.5397C126.009 48.5673 125.954 48.5515 125.927 48.5121C125.899 48.4687 125.911 48.4136 125.954 48.386L127.334 47.5305C127.377 47.5029 127.433 47.5187 127.46 47.5581C127.488 47.6015 127.472 47.6566 127.433 47.6842Z" fill="#898989"/>
<path d="M127.803 48.2806L126.424 49.1361C126.404 49.1479 126.376 49.144 126.36 49.1203C126.349 49.1006 126.353 49.073 126.376 49.0572L127.756 48.2018C127.776 48.1899 127.807 48.1939 127.819 48.2175C127.831 48.2412 127.827 48.2648 127.803 48.2806Z" fill="#898989"/>
<path d="M128.197 48.9145L126.818 49.7699C126.798 49.7818 126.77 49.7778 126.755 49.7542C126.743 49.7345 126.747 49.7069 126.77 49.6911L128.15 48.8356C128.17 48.8238 128.197 48.8317 128.213 48.8514C128.225 48.8751 128.221 48.8987 128.197 48.9145Z" fill="#898989"/>
<path d="M128.588 49.5501L127.208 50.4056C127.188 50.4174 127.161 50.4135 127.145 50.3898C127.133 50.3701 127.137 50.3425 127.161 50.3268L128.54 49.4713C128.56 49.4595 128.588 49.4634 128.604 49.4871C128.615 49.5107 128.611 49.5344 128.588 49.5501Z" fill="#898989"/>
<path d="M129.77 46.234L128.391 47.0895C128.347 47.1171 128.292 47.1013 128.264 47.0619C128.237 47.0185 128.253 46.9633 128.292 46.9358L129.672 46.0803C129.715 46.0527 129.77 46.0685 129.798 46.1079C129.826 46.1512 129.81 46.2064 129.766 46.234H129.77Z" fill="#898989"/>
<path d="M130.141 46.8294L128.761 47.6849C128.742 47.6967 128.714 47.6928 128.698 47.6691C128.686 47.6494 128.69 47.6218 128.714 47.6061L130.094 46.7506C130.113 46.7388 130.145 46.7427 130.157 46.7664C130.169 46.7861 130.165 46.8137 130.141 46.8294Z" fill="#898989"/>
<path d="M130.535 47.4642L129.155 48.3197C129.136 48.3315 129.108 48.3275 129.092 48.3039C129.081 48.2842 129.085 48.2566 129.108 48.2408L130.488 47.3854C130.508 47.3735 130.539 47.3775 130.551 47.4011C130.563 47.4208 130.559 47.4484 130.535 47.4642Z" fill="#898989"/>
<path d="M130.929 48.099L129.55 48.9544C129.53 48.9663 129.502 48.9623 129.487 48.9387C129.475 48.919 129.479 48.8914 129.502 48.8756L130.882 48.0201C130.906 48.0083 130.933 48.0122 130.945 48.0359C130.957 48.0596 130.953 48.0872 130.929 48.099Z" fill="#898989"/>
<path d="M132.112 44.7829L130.732 45.6383C130.689 45.6659 130.634 45.6541 130.606 45.6107C130.579 45.5674 130.594 45.5122 130.638 45.4846L132.014 44.6291C132.057 44.6015 132.112 44.6173 132.14 44.6567C132.167 44.7001 132.152 44.7553 132.112 44.7829Z" fill="#898989"/>
<path d="M132.483 45.3793L131.103 46.2347C131.083 46.2465 131.056 46.2426 131.04 46.2189C131.028 46.1992 131.032 46.1716 131.056 46.1559L132.435 45.3004C132.455 45.2886 132.487 45.2925 132.498 45.3162C132.51 45.3359 132.506 45.3635 132.483 45.3793Z" fill="#898989"/>
<path d="M132.873 46.0169L131.493 46.8724C131.473 46.8842 131.446 46.8803 131.43 46.8566C131.418 46.8369 131.422 46.8093 131.446 46.7936L132.826 45.9381C132.849 45.9263 132.877 45.9302 132.889 45.9539C132.904 45.9736 132.897 46.0012 132.873 46.0169Z" fill="#898989"/>
<path d="M133.267 46.6488L131.887 47.5042C131.868 47.5161 131.84 47.5121 131.824 47.4885C131.812 47.4688 131.816 47.4412 131.84 47.4254L133.22 46.5699C133.243 46.5581 133.271 46.5621 133.283 46.5857C133.299 46.6094 133.291 46.633 133.267 46.6488Z" fill="#898989"/>
<path d="M134.45 43.3337L133.07 44.1891C133.027 44.2167 132.972 44.2009 132.944 44.1615C132.916 44.1182 132.932 44.063 132.976 44.0354L134.355 43.1799C134.399 43.1523 134.454 43.1681 134.481 43.2075C134.509 43.2509 134.493 43.3061 134.45 43.3337Z" fill="#898989"/>
<path d="M134.82 43.932L133.441 44.7874C133.421 44.7993 133.393 44.7953 133.378 44.7717C133.366 44.752 133.37 44.7204 133.393 44.7086L134.773 43.8531C134.793 43.8413 134.824 43.8452 134.836 43.8689C134.848 43.8886 134.844 43.9162 134.82 43.932Z" fill="#898989"/>
<path d="M135.215 44.5668L133.835 45.4223C133.815 45.4341 133.784 45.4302 133.772 45.4065C133.76 45.3868 133.764 45.3553 133.788 45.3434L135.167 44.488C135.187 44.4762 135.219 44.484 135.23 44.5038C135.242 44.5274 135.238 44.5511 135.215 44.5668Z" fill="#898989"/>
<path d="M135.609 45.2015L134.229 46.057C134.209 46.0688 134.182 46.0649 134.166 46.0412C134.154 46.0215 134.158 45.9939 134.182 45.9781L135.561 45.1227C135.581 45.1108 135.609 45.1148 135.625 45.1384C135.636 45.1621 135.632 45.1897 135.609 45.2015Z" fill="#898989"/>
</g>
<path d="M130.699 50.5511L127.838 52.3252L131.323 57.9473L134.185 56.1732L130.699 50.5511Z" fill="#E2DED0"/>
<path d="M135.147 4.48242L150.396 29.078C150.081 29.5353 149.635 29.9492 149.024 30.2803C145.709 32.0583 143.02 30.1857 143.02 30.1857C137.738 36.7377 132.061 34.5301 132.061 34.5301L119.461 14.2079L135.147 4.48242Z" fill="#9DE2ED"/>
<path d="M137.943 47.0228L132.983 50.0978C132.936 50.1254 132.877 50.1136 132.849 50.0662L132.727 49.8691C132.699 49.8218 132.711 49.7627 132.758 49.7312L137.718 46.6602C137.765 46.6326 137.824 46.6444 137.856 46.6917L137.978 46.8888C138.006 46.9361 137.994 46.9953 137.946 47.0268L137.943 47.0228Z" fill="#C5D4E2"/>
<path d="M139.33 49.3485L134.45 52.3722C134.383 52.4156 134.292 52.3919 134.253 52.3249L134.178 52.2027C134.134 52.1357 134.158 52.045 134.225 52.0056L139.105 48.9779C139.172 48.9346 139.263 48.9543 139.303 49.0252L139.377 49.1475C139.421 49.2145 139.397 49.3051 139.33 49.3485Z" fill="#C5D4E2"/>
<path d="M136.949 52.1676L134.978 53.3897C134.95 53.4055 134.915 53.3976 134.895 53.37L134.73 53.1059C134.714 53.0783 134.722 53.0428 134.749 53.0231L136.72 51.801C136.748 51.7852 136.783 51.7892 136.803 51.8207L136.969 52.0848C136.985 52.1124 136.977 52.1519 136.949 52.1676Z" fill="#C5D4E2"/>
<path d="M140.028 50.2589L139.027 50.8778C139.027 50.8778 138.995 50.8818 138.983 50.866L138.79 50.5506C138.79 50.5506 138.786 50.5191 138.802 50.5072L139.803 49.8883C139.803 49.8883 139.835 49.8844 139.847 49.8962L140.04 50.2116C140.04 50.2116 140.04 50.2471 140.028 50.255V50.2589Z" fill="#C5D4E2"/>
<path d="M139.342 24.1581L136.105 26.1647C135.183 26.7363 133.827 26.1805 133.161 24.9584L132.364 23.4997L129.806 18.8164C129.502 18.2605 129.593 17.6337 130.007 17.3735L134.178 14.7874C134.596 14.5272 135.199 14.7283 135.561 15.2447L138.565 19.5417L139.571 20.9846C140.371 22.1239 140.268 23.5865 139.346 24.1581H139.342Z" fill="#E2DED0"/>
<path d="M130.811 19.0961C127.839 15.4417 126.163 17.7321 126.163 17.7321C126.163 17.7321 128.284 21.1343 130.811 19.0961Z" fill="#F0F4F7"/>
<path d="M132.136 16.9758C131.694 14.7012 130.129 14.2754 130.129 14.2754C130.129 14.2754 130.2 16.0573 132.136 16.9758Z" fill="#F0F4F7"/>
<path d="M132.96 16.4668C131.118 15.0595 131.434 13.4668 131.434 13.4668C131.434 13.4668 132.995 14.3223 132.96 16.4668Z" fill="#F0F4F7"/>
<path d="M135.364 16.273C133.413 11.9839 136.208 11.5029 136.208 11.5029C136.208 11.5029 138.313 14.9169 135.364 16.273Z" fill="#F0F4F7"/>
<path d="M138.566 19.5417C137.919 20.3853 136.902 21.2921 135.652 22.0687C134.505 22.7783 133.354 23.2632 132.364 23.4997L129.81 18.8163C129.506 18.2644 129.597 17.6337 130.011 17.3774L134.182 14.7913C134.6 14.5311 135.203 14.7322 135.565 15.2486L138.569 19.5456L138.566 19.5417Z" fill="#F0F4F7"/>
<path d="M135.727 22.8095C135.897 22.5453 136.472 23.1248 136.342 23.4087C136.212 23.6925 135.573 23.046 135.727 22.8095Z" fill="#F0F4F7"/>
<path d="M136.504 22.329C136.192 22.3645 136.453 23.1371 136.768 23.145C137.079 23.1568 136.788 22.2974 136.504 22.329Z" fill="#F0F4F7"/>
<path d="M153.659 34.3333L137.973 44.0596L140.941 48.8474L156.628 39.1211L153.659 34.3333Z" fill="#E2DED0"/>
<path d="M492.744 47.0506C484.808 48.7481 477.041 51.7704 470.99 54.5283C469.509 55.2035 468.136 55.8595 466.881 56.4806C462.2 58.799 459.267 60.5665 459.267 60.5665L458.732 58.1589V58.1398L458.7 58.0188C458.7 58.0188 458.69 57.9933 458.665 57.9455L458.658 57.9296C457.993 56.5124 449.84 38.9806 450.168 28.6176L450.104 28.5539L446.824 25.2641C446.824 25.2641 448.767 23.608 452.601 21.4265C454.818 20.159 457.671 18.7163 461.152 17.3118L461.356 17.229C467.085 14.9169 471.665 13.8564 474.397 13.3787C476.193 13.0634 477.187 13.0029 477.187 13.0029L477.111 17.6526V17.7354C484.515 24.9488 490.802 43.1271 491.343 44.7131L491.353 44.7322C491.372 44.7895 491.381 44.8213 491.381 44.8213L491.439 44.9137L491.448 44.9328L492.741 47.0475L492.744 47.0506Z" fill="#73CFE5"/>
<path d="M477.789 33.4809C480.413 37.2102 479.187 42.5923 475.05 45.5032C470.913 48.414 465.432 47.7516 462.808 44.0223C460.184 40.293 461.41 34.9108 465.547 31.9968C469.684 29.086 475.165 29.7484 477.789 33.4777V33.4809Z" fill="#E2DED0"/>
<path d="M474.168 40.2549L470.076 36.7549L471.674 36.1084L474.958 37.36L475.888 38.9874L474.168 40.2549Z" fill="#E89C2D"/>
<path d="M479.381 36.3728C478.142 38.3791 474.544 40.5861 474.168 40.2549C473.792 39.9269 475.037 39.1212 474.687 38.7804L474.534 38.6371L473.706 38.3664L470.776 36.2613C474.025 35.8919 475.929 33.8186 476.728 32.7135C477.028 32.2995 477.171 32.0225 477.171 32.0225C477.171 32.0225 479.12 34.0097 479.381 36.376V36.3728Z" fill="#F2C955"/>
<path d="M465.343 46.5896L463.506 44.873L463.439 46.0928C463.439 46.0928 464.776 47.2552 464.789 47.2329C464.802 47.2138 465.343 46.5864 465.343 46.5864V46.5896Z" fill="#E89C2D"/>
<path d="M464.649 46.6106C464.789 46.7539 465.05 46.3336 465.343 46.5915C465.627 46.8399 465.276 49.2094 462.748 50.2603L459.875 47.1297C459.875 47.1297 462.659 46.3559 461.811 43.168L464.649 46.6106Z" fill="#F2C955"/>
<path d="M464.649 46.6115C464.649 46.6115 462.649 44.8472 460.999 42.9427C459.346 41.0383 467.843 36.0001 469.557 35.4714C471.27 34.9396 474.69 38.7835 474.69 38.7835C474.69 38.7835 473.872 37.9746 468.939 41.5574C463.483 45.5192 464.652 46.6147 464.652 46.6147L464.649 46.6115Z" fill="#EFBB3C"/>
<path d="M479.263 35.7233C479.318 35.9367 479.356 36.1533 479.381 36.373L478.537 36.2202C478.181 34.096 476.423 32.3221 476.423 32.3221L477.174 32.0195C477.174 32.0195 478.773 33.6533 479.267 35.7233H479.263Z" fill="#E89C2D"/>
<path d="M482.544 34.7996C481.362 34.6053 480.056 35.2422 479.267 35.7231C478.821 35.997 478.537 36.2231 478.537 36.2231C478.181 34.0989 476.423 32.325 476.423 32.325C476.423 32.325 478.579 30.0607 480.779 30.927L482.544 34.7996Z" fill="#EFBB3C"/>
<path d="M491.439 44.9172C483.168 46.7356 475.748 49.5828 470.044 52.1879C464.025 54.9363 459.92 57.4203 458.735 58.1592L458.732 58.1433L458.703 58.0223C458.703 58.0223 458.694 57.9968 458.668 57.949C459.866 57.2006 463.967 54.7229 469.961 51.9872C475.662 49.3821 483.076 46.5382 491.34 44.7197L491.35 44.7388C491.369 44.7962 491.378 44.828 491.378 44.828L491.436 44.9204L491.439 44.9172Z" fill="#E89C2D"/>
<path d="M483.681 27.05C480.502 26.2093 473.684 25.1105 466.037 28.1965C458.292 31.3239 453.729 36.9163 451.846 39.6806C450.843 35.98 450.146 32.2698 450.158 29.1488C451.808 27.8781 462.566 19.9736 477.493 18.1201C479.706 20.3972 481.811 23.6233 483.681 27.05Z" fill="#EF9354"/>
<path d="M477.19 13.0059L477.114 17.6555C462.658 19.5027 452.146 27.0027 450.104 28.5536L446.824 25.267C446.824 25.267 451.668 21.1428 461.152 17.3116L461.356 17.2288C470.84 13.4008 477.19 13.0059 477.19 13.0059Z" fill="#EF9354"/>
<path d="M475.929 13.9713C475.856 14 475.776 14.0063 475.697 13.984L475.187 13.8407C475.133 13.8248 475.073 13.8375 475.025 13.8726L474.608 14.1942C474.518 14.2643 474.407 14.2866 474.299 14.2579L473.786 14.1274C473.732 14.1114 473.671 14.1274 473.627 14.1624L473.216 14.4936C473.13 14.5637 473.015 14.5891 472.907 14.5637L472.391 14.4426C472.337 14.4299 472.276 14.4426 472.232 14.4809L471.827 14.8216C471.741 14.8917 471.63 14.9203 471.522 14.8981L471.002 14.7866C470.948 14.7739 470.888 14.7898 470.843 14.828L470.445 15.1751C470.362 15.2484 470.248 15.277 470.139 15.2579L469.62 15.156C469.563 15.1465 469.506 15.1624 469.464 15.2006L469.069 15.5541C468.987 15.6305 468.875 15.6624 468.767 15.6433L468.245 15.5509C468.187 15.5414 468.13 15.5573 468.088 15.5955L467.7 15.9586C467.617 16.035 467.509 16.07 467.397 16.0509L466.875 15.9681C466.818 15.9586 466.76 15.9777 466.719 16.0159L466.34 16.3853C466.26 16.4617 466.149 16.5 466.041 16.484L465.515 16.4108C465.458 16.4012 465.401 16.4235 465.359 16.4617L464.987 16.8375C464.91 16.914 464.799 16.9554 464.687 16.9395L464.162 16.8758C464.104 16.8694 464.047 16.8885 464.009 16.9299L463.643 17.3121C463.566 17.3917 463.455 17.4331 463.346 17.4203L462.818 17.3662C462.76 17.3598 462.703 17.3821 462.665 17.4235L462.308 17.8152C462.232 17.8981 462.127 17.9394 462.015 17.9299L461.487 17.8853C461.429 17.8821 461.372 17.9044 461.334 17.9458L460.99 18.3375C460.917 18.4203 460.805 18.4681 460.697 18.4586L460.178 18.4235C460.12 18.4235 460.063 18.4458 460.025 18.4872L459.69 18.8821C459.617 18.9681 459.509 19.0159 459.397 19.0095L458.878 18.984C458.821 18.984 458.764 19.0063 458.725 19.0509L458.397 19.4522C458.327 19.5382 458.219 19.5891 458.108 19.5859L457.592 19.5668C457.534 19.5668 457.477 19.5923 457.442 19.6369L457.124 20.0445C457.053 20.1305 456.945 20.1847 456.834 20.1815L456.315 20.1719C456.257 20.1719 456.2 20.1974 456.165 20.2452L455.853 20.6592C455.786 20.7484 455.678 20.8025 455.566 20.8025H455.047C454.99 20.8025 454.936 20.8312 454.901 20.8789L454.595 21.2961C454.531 21.3885 454.426 21.4426 454.311 21.4458L453.792 21.4586C453.735 21.4586 453.681 21.4904 453.646 21.535L453.35 21.9617C453.286 22.0541 453.181 22.1114 453.069 22.1146L452.55 22.1369C452.493 22.1369 452.439 22.1687 452.407 22.2165L452.12 22.6496C452.057 22.742 451.955 22.8025 451.843 22.8089L451.327 22.8439C451.27 22.8471 451.216 22.8789 451.184 22.9299L450.907 23.3662C450.846 23.4617 450.748 23.5222 450.636 23.5318L450.12 23.5796C450.063 23.5859 450.009 23.6178 449.98 23.6687L449.716 24.1146C449.659 24.2101 449.56 24.2738 449.448 24.2866L448.936 24.3503C448.878 24.3566 448.827 24.3917 448.799 24.4426L448.55 24.898C448.496 24.9936 448.404 25.0605 448.296 25.0796L447.646 25.191L447.617 25.0159L448.267 24.9044C448.321 24.8949 448.369 24.863 448.397 24.812L448.646 24.3566C448.7 24.2547 448.802 24.1878 448.917 24.1719L449.429 24.1082C449.483 24.1019 449.534 24.0668 449.563 24.0191L449.827 23.5732C449.885 23.4745 449.99 23.4076 450.104 23.398L450.62 23.3503C450.678 23.3471 450.729 23.3121 450.757 23.2643L451.034 22.828C451.095 22.7293 451.2 22.6687 451.315 22.6592L451.831 22.6273C451.888 22.6242 451.939 22.5923 451.971 22.5477L452.257 22.1146C452.321 22.0191 452.429 21.9586 452.541 21.9554L453.057 21.9331C453.114 21.9331 453.168 21.9012 453.2 21.8535L453.496 21.4267C453.563 21.3343 453.668 21.2738 453.783 21.2738L454.302 21.2611C454.359 21.2611 454.413 21.2324 454.445 21.1847L454.748 20.7675C454.815 20.6751 454.923 20.6178 455.038 20.6178H455.557C455.614 20.6178 455.668 20.5891 455.703 20.5445L456.015 20.1305C456.085 20.0382 456.194 19.9872 456.308 19.9872L456.827 19.9968C456.885 19.9968 456.939 19.9713 456.974 19.9267L457.292 19.5191C457.362 19.4299 457.474 19.3789 457.589 19.3821L458.104 19.398C458.162 19.398 458.216 19.3758 458.254 19.3312L458.582 18.9299C458.655 18.8407 458.764 18.793 458.878 18.7993L459.397 18.8248C459.455 18.8248 459.509 18.8025 459.547 18.7611L459.882 18.363C459.955 18.277 460.066 18.2293 460.181 18.2356L460.7 18.2707C460.757 18.2738 460.811 18.2516 460.85 18.2102L461.194 17.8184C461.267 17.7324 461.381 17.6879 461.493 17.6974L462.022 17.7388C462.079 17.742 462.133 17.7229 462.171 17.6783L462.528 17.2866C462.604 17.2038 462.716 17.1592 462.831 17.1719L463.359 17.2261C463.413 17.2324 463.471 17.2102 463.509 17.1719L463.875 16.7898C463.955 16.707 464.066 16.6688 464.178 16.6815L464.703 16.7452C464.757 16.7516 464.815 16.7324 464.853 16.6942L465.225 16.3184C465.305 16.2388 465.42 16.2006 465.531 16.2165L466.057 16.2898C466.114 16.2961 466.168 16.2802 466.21 16.2388L466.588 15.8694C466.668 15.7898 466.783 15.7547 466.894 15.7707L467.417 15.8535C467.474 15.863 467.528 15.8439 467.569 15.8057L467.958 15.4426C468.041 15.3662 468.155 15.3312 468.267 15.3503L468.789 15.4426C468.846 15.4522 468.901 15.4363 468.942 15.3981L469.337 15.0446C469.42 14.9681 469.538 14.9363 469.649 14.9586L470.168 15.0605C470.222 15.07 470.283 15.0541 470.324 15.0191L470.722 14.6719C470.808 14.5987 470.923 14.5668 471.034 14.5923L471.553 14.7038C471.608 14.7165 471.665 14.7038 471.71 14.6656L472.114 14.3248C472.2 14.2516 472.318 14.2229 472.426 14.2484L472.942 14.3694C472.996 14.3821 473.057 14.3694 473.098 14.3344L473.509 14.0032C473.595 13.9331 473.716 13.9076 473.824 13.9331L474.337 14.0637C474.391 14.0796 474.448 14.0668 474.493 14.0318L474.91 13.707C474.999 13.6369 475.12 13.6146 475.229 13.6433L475.738 13.7866C475.792 13.8025 475.85 13.793 475.897 13.7579L476.436 13.3662L476.541 13.5095L476.002 13.9012C475.977 13.9204 475.952 13.9331 475.923 13.9458L475.929 13.9713Z" fill="#E2DED0"/>
<path d="M457.238 30.7105C456.958 30.7073 456.722 30.5831 456.528 30.3411L457.251 29.822C457.318 29.9016 457.391 29.9462 457.461 29.9557C457.531 29.9621 457.604 29.9398 457.671 29.892C457.735 29.8474 457.773 29.7965 457.792 29.736C457.811 29.6755 457.799 29.6181 457.76 29.564C457.71 29.4907 457.636 29.4621 457.541 29.4684C457.445 29.478 457.305 29.513 457.12 29.5704C456.923 29.6309 456.757 29.6723 456.624 29.6946C456.49 29.7137 456.353 29.7041 456.213 29.6595C456.069 29.6149 455.945 29.5162 455.834 29.3634C455.722 29.2073 455.665 29.0449 455.662 28.8761C455.662 28.7073 455.706 28.5449 455.805 28.3888C455.901 28.2328 456.038 28.0895 456.213 27.9653C456.496 27.7614 456.77 27.6659 457.034 27.6755C457.299 27.685 457.522 27.806 457.706 28.0385L456.971 28.5672C456.917 28.4971 456.853 28.4557 456.783 28.4493C456.713 28.443 456.646 28.4653 456.579 28.513C456.528 28.5513 456.499 28.5958 456.487 28.6468C456.477 28.7009 456.49 28.7551 456.531 28.8092C456.563 28.857 456.611 28.8825 456.671 28.892C456.732 28.8984 456.795 28.8952 456.869 28.8825C456.939 28.8665 457.038 28.8442 457.168 28.806C457.359 28.7487 457.525 28.7073 457.662 28.6882C457.799 28.6691 457.939 28.6786 458.076 28.72C458.216 28.7614 458.337 28.8538 458.439 28.9939C458.544 29.1404 458.601 29.2965 458.611 29.4621C458.62 29.6309 458.582 29.7965 458.493 29.9589C458.404 30.1245 458.267 30.2742 458.079 30.4079C457.796 30.6118 457.515 30.7137 457.235 30.7073L457.238 30.7105Z" fill="#E2DED0"/>
<path d="M461.624 28.1186L460.907 28.5486L459.092 27.6823L459.955 29.1218L459.241 29.5518L457.697 26.9817L458.413 26.5518L460.238 27.4371L459.366 25.9817L460.082 25.5518L461.627 28.125L461.624 28.1186Z" fill="#E2DED0"/>
<path d="M463.48 26.6497L462.525 27.1147L462.595 27.6243L461.808 28.0096L461.477 24.8344L462.34 24.4141L464.636 26.6338L463.843 27.0192L463.484 26.6497H463.48ZM463.012 26.1657L462.296 25.4364L462.436 26.4491L463.012 26.1688V26.1657Z" fill="#E2DED0"/>
<path d="M464.085 24.3794C464.12 24.1214 464.219 23.8889 464.385 23.6883C464.55 23.4877 464.773 23.3348 465.047 23.2297C465.397 23.0959 465.729 23.0768 466.038 23.1756C466.346 23.2711 466.598 23.4685 466.789 23.7615L465.948 24.08C465.859 23.994 465.757 23.9399 465.649 23.9176C465.538 23.8953 465.426 23.9049 465.308 23.9494C465.127 24.0163 465.009 24.1373 464.952 24.3061C464.894 24.4749 464.904 24.6692 464.987 24.8826C465.069 25.0991 465.187 25.252 465.343 25.3412C465.499 25.4271 465.668 25.4367 465.85 25.3698C465.967 25.3252 466.06 25.2584 466.127 25.1692C466.194 25.08 466.232 24.9717 466.241 24.8475L467.082 24.5291C467.136 24.8762 467.079 25.1883 466.91 25.4654C466.741 25.7424 466.483 25.9494 466.133 26.08C465.856 26.1851 465.592 26.2169 465.334 26.1787C465.076 26.1373 464.85 26.0322 464.652 25.8603C464.455 25.6883 464.302 25.4622 464.197 25.1851C464.092 24.908 464.057 24.6405 464.088 24.3794H464.085Z" fill="#E2DED0"/>
<path d="M469.493 24.9844L468.238 23.9653L468.585 25.2328L467.78 25.4525L466.99 22.5576L467.795 22.3379L468.136 23.5863L468.694 22.0927L469.62 21.8379L468.942 23.5322L470.467 24.7169L469.493 24.9812V24.9844Z" fill="#E2DED0"/>
<path d="M470.353 21.7139L471.181 21.5547L470.929 22.8254L470.381 22.9305L470.353 21.7139Z" fill="#E2DED0"/>
<path d="M472.592 24.2933C472.436 24.2423 472.308 24.1627 472.206 24.0512C472.108 23.943 472.047 23.8124 472.022 23.6627L472.334 23.6245C472.366 23.7646 472.445 23.8856 472.569 23.978C472.697 24.0735 472.866 24.1054 473.082 24.0799C473.283 24.0544 473.432 23.9844 473.538 23.8665C473.643 23.7487 473.684 23.6118 473.665 23.4557C473.649 23.3283 473.604 23.2296 473.531 23.1627C473.458 23.0926 473.369 23.0449 473.27 23.0194C473.168 22.9939 473.031 22.9684 472.856 22.943C472.652 22.9143 472.49 22.8825 472.366 22.8442C472.245 22.8092 472.136 22.7423 472.041 22.6436C471.945 22.5449 471.888 22.4079 471.866 22.2232C471.847 22.0704 471.869 21.9302 471.933 21.8028C471.996 21.6723 472.095 21.564 472.232 21.4812C472.366 21.3952 472.528 21.3411 472.713 21.3188C472.987 21.2837 473.213 21.3251 473.397 21.4366C473.582 21.5512 473.7 21.7105 473.751 21.9175L473.429 21.9557C473.394 21.8379 473.315 21.736 473.19 21.6563C473.066 21.5767 472.907 21.5481 472.716 21.5704C472.538 21.5926 472.397 21.6563 472.289 21.7678C472.181 21.8761 472.14 22.013 472.159 22.1754C472.175 22.2996 472.219 22.3952 472.292 22.4621C472.366 22.5289 472.455 22.5799 472.557 22.6054C472.659 22.6309 472.796 22.6595 472.968 22.685C473.165 22.7137 473.327 22.7487 473.452 22.7837C473.576 22.8219 473.687 22.8888 473.78 22.9844C473.875 23.0831 473.932 23.22 473.955 23.4016C473.971 23.5385 473.952 23.6754 473.894 23.8092C473.837 23.943 473.741 24.0544 473.604 24.15C473.471 24.2423 473.305 24.3028 473.104 24.3283C472.91 24.3506 472.735 24.3379 472.579 24.2901L472.592 24.2933Z" fill="#E2DED0"/>
<path d="M485.117 39.6143C485.117 39.6143 485.779 41.4773 484.343 42.1939L485.117 39.6143Z" fill="#E2DED0"/>
<path d="M484.827 41.1368C484.827 41.1368 483.248 41.8884 482.47 41.3629L484.91 40.8311L484.83 41.1368H484.827Z" fill="#E2DED0"/>
<path d="M457.066 40.8727C457.066 40.8727 457.407 39.5097 458.486 39.2549L457.451 41.1243L457.066 40.8727Z" fill="#E2DED0"/>
<path d="M455.901 40.6084C455.901 40.6084 456.703 41.6976 458.967 41.0129L455.901 40.6084Z" fill="#E2DED0"/>
<g style="mix-blend-mode:multiply" opacity="0.5">
<path d="M491.381 44.8248L491.439 44.9171C483.168 46.7356 475.748 49.5827 470.044 52.1878L469.961 51.984C470.06 51.9012 476.811 46.3853 477.725 46.3152C478.646 46.2483 478.286 47.6019 479.044 47.5382C479.805 47.4745 480.378 45.3057 481.327 45.105C482.276 44.9044 482.821 46.1974 483.502 46.0413C484.187 45.8853 484.158 35.1114 483.716 33.3344C483.27 31.5573 475.146 28.0191 474.958 26.7866C474.77 25.5573 477.662 25.2962 477.719 24.5446C477.779 23.7962 472.693 20.086 473.127 18.8471C473.362 18.1688 473.929 15.5828 474.397 13.3758C476.193 13.0605 477.187 13 477.187 13L477.111 17.6497V17.7325C484.515 24.9458 490.802 43.1242 491.343 44.7101L491.353 44.7292C491.372 44.7866 491.381 44.8184 491.381 44.8184V44.8248Z" fill="#ADADAD"/>
</g>
<g clip-path="url(#clip0_177_22262)">
<path d="M249.103 16.8368L253.74 44.0779C253.938 45.2414 253.221 46.3602 252.088 46.6571L240.037 49.8144C238.904 50.1113 237.731 49.4875 237.332 48.3765L228.014 22.3619L227.71 21.2002L248.799 15.6751L249.103 16.8368Z" fill="white"/>
<path d="M248.495 14.5137L247.675 12.3762C247.468 11.8357 246.89 11.5364 246.331 11.6829L227.903 16.5108C227.347 16.6564 226.99 17.2009 227.072 17.774L227.405 20.0389L227.71 21.2006L248.799 15.6755L248.495 14.5137Z" fill="#ECECEC"/>
<path d="M249.939 16.6181L227.178 22.5809C226.938 22.6438 226.69 22.4999 226.626 22.2553L226.248 20.8123C226.184 20.5708 226.327 20.3211 226.57 20.2575L249.33 14.2946C249.57 14.2317 249.82 14.3787 249.883 14.6202L250.261 16.0632C250.325 16.3078 250.182 16.5544 249.939 16.6181Z" fill="#D9D9D9"/>
<path d="M253.191 38.9814L250.262 21.78L229.428 27.2383L235.309 43.6661L253.191 38.9814Z" fill="#C7A670"/>
<path opacity="0.15" d="M240.486 26.9557L232.724 28.9893L236.896 40.6378L243.609 38.8788L240.486 26.9557Z" fill="white" stroke="white" stroke-width="16.1218" stroke-linecap="round" stroke-linejoin="round"/>
</g>
<g clip-path="url(#clip1_177_22262)">
<path d="M565.483 42.2568L558.588 43.7827C556.499 44.248 556.062 47.0778 557.917 48.1653C560.618 49.7507 564.827 50.8761 570.71 48.7605L565.483 42.2568Z" fill="#CF893B"/>
<g style="mix-blend-mode:multiply" opacity="0.31">
<path d="M563.73 49.8909C565.723 50.0046 568.046 49.7178 570.71 48.7601L567.945 45.3135C566.543 46.8393 565.147 48.3759 563.73 49.8909Z" fill="#CF893B"/>
</g>
<path d="M565.391 36.7401L564.413 37.8556C562.173 40.4115 562.397 44.3275 564.914 46.6023L566.94 48.4333C569.457 50.7081 573.313 50.4802 575.554 47.9243L576.531 46.8088C578.771 44.253 578.547 40.337 576.03 38.0622L574.004 36.2312C571.487 33.9564 567.631 34.1842 565.391 36.7401Z" fill="#DC9841"/>
<g style="mix-blend-mode:multiply" opacity="0.17">
<path d="M576.027 38.063L574.988 37.127L565.845 47.4506L566.932 48.4354C569.452 50.7133 573.31 50.486 575.548 47.9268L576.523 46.8121C578.766 44.2529 578.542 40.3355 576.022 38.063H576.027Z" fill="#DC9841"/>
</g>
<path d="M579.491 26.2734L580.189 19.1421C580.402 16.9832 583.119 16.2149 584.398 17.9571C586.263 20.4947 587.851 24.6123 586.466 30.7914L579.496 26.2734H579.491Z" fill="#CF893B"/>
<g style="mix-blend-mode:multiply" opacity="0.31">
<path d="M583.077 28.6001L586.46 30.7915C587.041 28.1943 587.094 25.9651 586.828 24.0605C585.517 25.516 584.281 27.0419 583.077 28.5947V28.6001Z" fill="#CF893B"/>
</g>
<path d="M585.223 36.8898L586.2 35.7743C588.44 33.2184 588.216 29.3024 585.699 27.0276L583.673 25.1966C581.156 22.9218 577.3 23.1497 575.06 25.7055L574.082 26.8211C571.842 29.3769 572.066 33.2929 574.583 35.5677L576.609 37.3987C579.126 39.6735 582.982 39.4456 585.223 36.8898Z" fill="#DC9841"/>
<g style="mix-blend-mode:multiply" opacity="0.17">
<path d="M585.698 27.0258L584.595 26.0303L575.761 36.6299L576.608 37.3982C579.129 39.6761 582.986 39.4489 585.224 36.8896L586.199 35.775C588.442 33.2157 588.219 29.2984 585.698 27.0258Z" fill="#DC9841"/>
</g>
<path d="M569.893 28.5445L566.425 32.5014C564.4 34.8117 564.603 38.3515 566.878 40.4077L573.239 46.1562C575.514 48.2124 579 48.0064 581.025 45.6961L584.493 41.7393C586.518 39.429 586.315 35.8892 584.04 33.8329L577.679 28.0845C575.404 26.0282 571.918 26.2342 569.893 28.5445Z" fill="#FFB150"/>
<g style="mix-blend-mode:multiply" opacity="0.18">
<path d="M584.041 33.8387L580.674 30.7979L570.118 43.3399L573.241 46.1589C575.516 48.215 579.006 48.0094 581.031 45.699L584.494 41.7492C586.519 39.4388 586.316 35.8948 584.041 33.8387Z" fill="#FFB150"/>
</g>
</g>
<defs>
<clipPath id="clip0_177_22262">
<rect width="24.4329" height="35.2919" fill="white" transform="translate(225.299 17.1924) rotate(-14.6807)"/>
</clipPath>
<clipPath id="clip1_177_22262">
<rect width="31" height="33" fill="white" transform="translate(556.744 17)"/>
</clipPath>
</defs>
</svg>
