<svg width="65" height="133" viewBox="0 0 65 133" fill="none" xmlns="http://www.w3.org/2000/svg">
<g id="Group 56">
<g id="Group">
<path id="Vector" d="M35.586 0.839844H29.9297V65.1952H35.586V0.839844Z" fill="#BC7D26"/>
<path id="Vector_2" d="M54.9843 56.6664C55.7798 55.6205 56.2511 54.3096 56.2511 52.8807C56.2364 49.5223 53.5555 46.812 50.2266 46.7236C50.2855 46.4143 50.3149 46.0902 50.3149 45.7662C50.3149 43.0559 48.1202 40.8463 45.3951 40.8463C44.4966 40.8463 43.6717 41.0968 42.9499 41.5239C39.8861 32.6123 27.6455 35.2637 26.6144 39.1819C26.2903 39.1377 25.981 39.1082 25.6422 39.1082C22.4311 39.1082 19.7502 41.3766 19.1168 44.3963C18.6749 44.3374 18.2183 44.2932 17.7617 44.2932C12.9155 44.3226 8.99733 48.2703 9.01206 53.1312C9.01206 55.3849 9.88112 57.4176 11.2805 58.9642C9.64544 60.4667 8.61433 62.6173 8.62906 65.0183C8.65852 69.5256 12.3263 73.1639 16.8337 73.1345C16.8337 73.1345 16.8631 73.1345 16.8779 73.1345C16.8779 73.2965 16.8337 73.4438 16.8337 73.6059C16.8337 76.3898 19.1021 78.6288 21.8861 78.614C24.67 78.614 26.909 76.3309 26.8943 73.5617C26.8943 73.5469 26.8943 73.5322 26.8943 73.5175C27.1741 73.5469 27.454 73.5617 27.7191 73.5617C27.9843 73.5617 28.2494 73.5322 28.5146 73.5175C29.3984 74.1803 30.4 74.6811 31.49 75.0052C31.1218 75.889 30.9155 76.8612 30.9303 77.8775C30.945 81.943 34.2593 85.2278 38.3247 85.1983C42.3902 85.1836 45.675 81.8694 45.6455 77.8039C45.6455 74.9905 44.04 72.56 41.7274 71.3374C41.9925 70.9397 42.2282 70.5126 42.4491 70.0854C43.9221 71.0428 45.675 71.6026 47.5604 71.5879C52.7012 71.5584 56.8403 67.3751 56.8109 62.2343C56.8109 60.1574 56.1038 58.2572 54.9402 56.7105L54.9843 56.6664Z" fill="#F0E3D0"/>
<path id="Vector_3" opacity="0.3" d="M41.8313 29.1357C39.3714 30.6529 36.2192 31.5662 32.7576 31.5662C29.2961 31.5662 26.1291 30.6529 23.684 29.1357C13.1667 32.8624 5.625 42.9083 5.625 54.707C5.625 69.6874 17.7772 81.8397 32.7576 81.8397C47.738 81.8397 59.8903 69.6874 59.8903 54.707C59.8903 42.9083 52.3485 32.8624 41.8313 29.1357Z" fill="#CFC9BE"/>
<path id="Vector_4" d="M3.69531 54.707L12.7395 132.879H52.7756L61.8346 54.707H3.69531Z" fill="#5A2E2F"/>
<path id="Vector_5" d="M63.6747 58.419H1.85297L0.71875 52.7627H64.8089L63.6747 58.419Z" fill="#CFC9BE"/>
<path id="Vector_6" d="M54.7201 116.102L59.8903 71.4111H5.625L10.7952 116.102H54.7201Z" fill="#F0C284"/>
<g id="Group_2">
<g id="Group_3">
<path id="Vector_7" d="M34.0241 79.2476C35.8212 77.5242 37.5445 76.4047 37.8539 76.7288C36.3072 75.1085 33.5969 75.1822 31.7999 76.9056C30.0028 78.629 29.7819 81.3245 31.3285 82.9448C31.0192 82.6208 32.227 80.971 34.0388 79.2476H34.0241Z" fill="#3F2C26"/>
<path id="Vector_8" d="M37.8526 76.7286C38.1619 77.0526 36.9541 78.7024 35.1423 80.4258C33.3452 82.1492 31.6218 83.2687 31.3125 82.9446C32.8591 84.5649 35.5695 84.4913 37.3665 82.7679C39.1636 81.0445 39.3845 78.3489 37.8379 76.7139L37.8526 76.7286Z" fill="#3F2C26"/>
</g>
<g id="Group_4">
<path id="Vector_9" d="M43.5545 95.023C45.3515 93.2996 47.0749 92.1801 47.3842 92.5042C45.8376 90.8839 43.1273 90.9575 41.3155 92.6809C39.5184 94.4043 39.2975 97.0999 40.8441 98.7202C40.5348 98.3962 41.7427 96.7464 43.5545 95.023Z" fill="#3F2C26"/>
<path id="Vector_10" d="M47.3682 92.5039C47.6776 92.828 46.4697 94.4777 44.6579 96.2011C42.8609 97.9245 41.1375 99.044 40.8281 98.72C42.3748 100.34 45.0851 100.267 46.8822 98.5579C48.6939 96.8345 48.9002 94.1389 47.3535 92.5039H47.3682Z" fill="#3F2C26"/>
</g>
<g id="Group_5">
<path id="Vector_11" d="M43.0388 84.0347C44.8359 82.3113 46.5593 81.1918 46.8686 81.5159C45.322 79.8956 42.6116 79.9693 40.7999 81.6927C39.0028 83.4161 38.7819 86.1117 40.3285 87.732C40.0192 87.4079 41.227 85.7581 43.0388 84.0347Z" fill="#3F2C26"/>
<path id="Vector_12" d="M46.8526 81.5157C47.1619 81.8398 45.9393 83.4895 44.1423 85.2129C42.3452 86.9364 40.6218 88.0558 40.3125 87.7318C41.8591 89.3521 44.5694 89.2784 46.3665 87.555C48.1783 85.8316 48.3845 83.136 46.8379 81.501L46.8526 81.5157Z" fill="#3F2C26"/>
</g>
<path id="Vector_13" d="M21.0167 90.1629L17.8203 84.6244L21.0167 79.0859H27.4095L30.6059 84.6244L27.4095 90.1629H21.0167Z" fill="#BC7D26"/>
<path id="Vector_14" d="M31.3878 96.2312L28.1914 90.6927L31.3878 85.1689H37.7806L40.9771 90.6927L37.7806 96.2312H31.3878Z" fill="#BC7D26"/>
<path id="Vector_15" d="M21.0167 102.123L17.8203 96.5844L21.0167 91.0459H27.4095L30.6059 96.5844L27.4095 102.123H21.0167Z" fill="#BC7D26"/>
<path id="Vector_16" d="M31.3878 108.31L28.1914 102.772L31.3878 97.2334H37.7806L40.9771 102.772L37.7806 108.31H31.3878Z" fill="#BC7D26"/>
</g>
</g>
<g id="Vector_17" style="mix-blend-mode:multiply" opacity="0.4">
<path d="M41.8312 29.1361C40.0636 30.2262 37.9278 30.9921 35.5857 31.3456V0.839844H32.625V132.88H52.7756L54.9115 114.482L59.8902 71.3965L61.3927 58.4046H63.6758L64.81 52.7483H59.8166C59.0359 41.7892 51.774 32.6419 41.8312 29.1214V29.1361Z" fill="#5A2E2F"/>
</g>
<path id="Vector_18" d="M26.7876 40.5167C26.7876 42.5527 25.1369 44.2033 23.1008 44.2033C21.0647 44.2033 19.4141 42.5527 19.4141 40.5167C19.4141 38.4806 21.0647 36.8301 23.1008 36.8301C25.1369 36.8301 26.7876 38.4806 26.7876 40.5167Z" fill="#C40026"/>
</g>
</svg>
