<svg width="87" height="90" viewBox="0 0 87 90" fill="none" xmlns="http://www.w3.org/2000/svg">
<g id="Group">
<g id="Group_2" style="mix-blend-mode:multiply">
<path id="Vector" opacity="0.09" d="M0.501953 46.0028C0.501953 22.285 19.755 3.07065 43.4834 3.07065C67.2118 3.07065 86.4648 22.3151 86.4648 46.0028C86.4648 69.6906 67.2418 88.9351 43.4834 88.9351C19.725 88.9351 0.501953 69.6906 0.501953 46.0028Z" fill="#EEEDEE"/>
<path id="Vector_2" opacity="0.18" d="M0.742188 45.6426C0.742188 22.0449 19.875 2.92062 43.4833 2.92062C67.0916 2.92062 86.2244 22.0449 86.2244 45.6426C86.2244 69.2404 67.0916 88.3648 43.4833 88.3648C19.875 88.3648 0.742188 69.2404 0.742188 45.6426Z" fill="#E2E1E2"/>
<path id="Vector_3" opacity="0.27" d="M0.952637 45.3124C0.952637 21.8348 19.9953 2.80051 43.4835 2.80051C66.9716 2.80051 86.0145 21.8348 86.0145 45.3124C86.0145 68.7901 66.9716 87.8244 43.4835 87.8244C19.9953 87.8244 0.952637 68.7901 0.952637 45.3124Z" fill="#D5D4D7"/>
<path id="Vector_4" opacity="0.36" d="M1.16309 44.9522C1.16309 21.5947 20.1156 2.68042 43.4536 2.68042C66.7915 2.68042 85.7743 21.6247 85.7743 44.9522C85.7743 68.2797 66.8215 87.2239 43.4536 87.2239C20.0856 87.2239 1.16309 68.2797 1.16309 44.9522Z" fill="#CAC9CC"/>
<path id="Vector_5" opacity="0.45" d="M1.40283 44.5919C1.40283 21.3545 20.2354 2.5304 43.4832 2.5304C66.7311 2.5304 85.5636 21.3545 85.5636 44.5919C85.5636 67.8294 66.7311 86.6535 43.4832 86.6535C20.2354 86.6535 1.40283 67.8294 1.40283 44.5919Z" fill="#BFBEC2"/>
<path id="Vector_6" opacity="0.55" d="M1.61328 44.2617C1.61328 21.1444 20.3557 2.41028 43.4834 2.41028C66.6111 2.41028 85.3535 21.1444 85.3535 44.2617C85.3535 67.3791 66.6111 86.1131 43.4834 86.1131C20.3557 86.1131 1.61328 67.3791 1.61328 44.2617Z" fill="#B4B4B9"/>
<path id="Vector_7" opacity="0.64" d="M1.854 43.9015C1.854 20.9042 20.5063 2.29019 43.4838 2.29019C66.4613 2.29019 85.1436 20.9342 85.1436 43.9015C85.1436 66.8687 66.4913 85.5127 43.4838 85.5127C20.4763 85.5127 1.854 66.8687 1.854 43.9015Z" fill="#AAAAAF"/>
<path id="Vector_8" opacity="0.73" d="M2.06396 43.5411C2.06396 20.6639 20.5961 2.13998 43.4835 2.13998C66.3709 2.13998 84.903 20.6639 84.903 43.5411C84.903 66.4183 66.3408 84.9421 43.4835 84.9421C20.6261 84.9421 2.06396 66.4183 2.06396 43.5411Z" fill="#A0A1A7"/>
<path id="Vector_9" opacity="0.82" d="M2.27441 43.1809C2.27441 20.4538 20.7164 1.98993 43.4837 1.98993C66.2509 1.98993 84.6931 20.4238 84.6931 43.1809C84.6931 65.9379 66.2209 84.3718 43.4837 84.3718C20.7464 84.3718 2.27441 65.9379 2.27441 43.1809Z" fill="#97989E"/>
<path id="Vector_10" opacity="0.91" d="M2.51465 42.8506C2.51465 20.2436 20.8667 1.89978 43.4837 1.89978C66.1008 1.89978 84.4829 20.2436 84.4829 42.8506C84.4829 65.4576 66.1308 83.8013 43.4837 83.8013C20.8366 83.8013 2.51465 65.4576 2.51465 42.8506Z" fill="#8D8F96"/>
<path id="Vector_11" d="M2.72461 42.4904C2.72461 20.0035 20.9565 1.74976 43.4834 1.74976C66.0104 1.74976 84.2422 20.0035 84.2422 42.4904C84.2422 64.9773 65.9803 83.231 43.4834 83.231C20.9865 83.231 2.72461 65.0073 2.72461 42.4904Z" fill="#84878F"/>
</g>
<path id="Vector_12" d="M43.4833 0.759033C21.1065 0.759033 2.96484 18.8926 2.96484 41.2594C2.96484 63.6262 21.1065 81.7598 43.4833 81.7598C65.8601 81.7598 84.0018 63.6262 84.0018 41.2594C84.0018 18.8926 65.8601 0.759033 43.4833 0.759033ZM43.4833 78.9978C22.6384 78.9978 5.75817 62.0951 5.75817 41.2895C5.75817 20.4838 22.6684 3.55111 43.4833 3.55111C64.2982 3.55111 81.2085 20.4538 81.2085 41.2895C81.2085 62.1251 64.2982 78.9978 43.4833 78.9978Z" fill="#7B7C7F"/>
<path id="Vector_13" d="M82.0492 41.2595C82.0492 62.5455 64.8085 79.8084 43.513 79.8084C22.2175 79.8084 4.94678 62.5455 4.94678 41.2595C4.94678 19.9735 22.2175 2.71054 43.513 2.71054C64.8085 2.71054 82.0492 19.9735 82.0492 41.2595Z" fill="#939598"/>
<g id="Group_3">
<path id="Vector_14" d="M74.9614 40.599C74.9614 57.952 60.8746 72.0627 43.4838 72.0627C26.0929 72.0627 11.9761 57.982 11.9761 40.599C11.9761 23.2159 26.0929 9.10538 43.4838 9.10538C60.8746 9.10538 74.9614 23.1859 74.9614 40.599Z" fill="#7B7C7F"/>
<path id="Vector_15" d="M69.4346 21.0243C58.6217 6.6735 38.2273 3.82134 23.8701 14.6295C9.54295 25.4676 6.68955 45.8228 17.5025 60.1736C28.3154 74.4944 48.7098 77.3465 63.0369 66.5384C77.3641 55.7303 80.2175 35.345 69.4045 21.0542L69.4346 21.0243ZM62.2259 65.4275C48.4995 75.7853 28.9762 73.0533 18.6138 59.333C8.25141 45.6127 10.9846 26.098 24.711 15.7102C38.4374 5.35245 57.9608 8.0845 68.2932 21.8048C78.6857 35.5251 75.9223 55.0398 62.1958 65.3976L62.2259 65.4275Z" fill="#7B7C7F"/>
</g>
<path id="Vector_16" opacity="0.8" d="M47.4778 61.7048C47.4778 63.3861 45.6756 64.7671 43.4529 64.7671C41.2303 64.7671 39.4282 63.3861 39.4282 61.7048V18.8326C39.4282 17.1514 41.2303 15.7704 43.4529 15.7704C45.6756 15.7704 47.4778 17.1514 47.4778 18.8326V61.7048Z" fill="url(#paint0_linear_638_1570)"/>
</g>
<defs>
<linearGradient id="paint0_linear_638_1570" x1="39.4583" y1="40.2687" x2="47.4778" y2="40.2687" gradientUnits="userSpaceOnUse">
<stop offset="0.33" stop-color="#2E2C2E"/>
<stop offset="0.41" stop-color="#333133"/>
<stop offset="0.51" stop-color="#423F43"/>
<stop offset="0.57" stop-color="#4E4B4F"/>
</linearGradient>
</defs>
</svg>
